# https://github.com/mikedh/trimesh
v -0.60493575 0.22415619 3.53927835
v -0.31639492 0.22415619 3.48078823
v -0.60493575 -0.18415619 3.53927835
v -0.31639492 -0.18415619 3.48078823
v -0.31532686 -0.10617547 4.22701050
v -0.31532686 0.14617547 4.22701050
v -0.60600381 -0.10617547 2.79305608
v -0.60600381 0.14617547 2.79305608
v -0.31705501 0.02000000 3.01959750
v -0.13740678 0.02000000 3.90583007
v -0.78392389 0.02000000 3.11423651
v -0.60427566 0.02000000 4.00046908
v -0.46066533 0.26000000 3.51003329
v -0.46066533 -0.22000000 3.51003329
v -0.46003755 -0.17416408 3.94865173
v -0.29043750 -0.17416408 3.91427210
v -0.46003755 0.21416408 3.94865173
v -0.29043750 0.21416408 3.91427210
v -0.28980971 0.02000000 4.35289055
v -0.63089317 -0.17416408 3.10579448
v -0.46129312 -0.17416408 3.07141484
v -0.63089317 0.21416408 3.10579448
v -0.46129312 0.21416408 3.07141484
v -0.63152096 0.02000000 2.66717603
v -0.29145328 0.14000000 3.20457255
v -0.29145328 -0.10000000 3.20457255
v -0.46168112 -0.05416408 2.80033374
v -0.46168112 0.09416408 2.80033374
v -0.18585870 0.14000000 3.72548698
v -0.18585870 -0.10000000 3.72548698
v -0.18523091 -0.05416408 4.16410543
v -0.18523091 0.09416408 4.16410543
v -0.18624669 0.02000000 3.45440588
v -0.73547197 0.14000000 3.29457959
v -0.73547197 -0.10000000 3.29457959
v -0.73609976 -0.05416408 2.85596115
v -0.73609976 0.09416408 2.85596115
v -0.62987739 0.14000000 3.81549403
v -0.62987739 -0.10000000 3.81549403
v -0.45964955 -0.05416408 4.21973284
v -0.45964955 0.09416408 4.21973284
v -0.73508398 0.02000000 3.56566070
v -0.53565476 0.25086521 3.52523440
v -0.38567590 0.25086521 3.49483218
v -0.53565476 -0.21086521 3.52523440
v -0.38567590 -0.21086521 3.49483218
v -0.53532845 -0.18704044 3.75322117
v -0.38479443 -0.14650731 4.11069322
v -0.46033529 -0.20825356 3.74062865
v -0.29719423 -0.18704044 3.70494898
v -0.29663907 -0.14650731 4.09282324
v -0.37117127 -0.20825356 3.72255421
v -0.37084122 -0.18415619 3.95314957
v -0.53532845 0.22704044 3.75322117
v -0.38479443 0.18650731 4.11069322
v -0.46033529 0.24825356 3.74062865
v -0.29719423 0.22704044 3.70494898
v -0.29663907 0.18650731 4.09282324
v -0.37117127 0.24825356 3.72255421
v -0.37084122 0.22415619 3.95314957
v -0.29631276 -0.04558397 4.32081001
v -0.29631276 0.08558397 4.32081001
v -0.62413644 -0.18704044 3.31511760
v -0.62469160 -0.14650731 2.92724334
v -0.55015940 -0.20825356 3.29751237
v -0.38600222 -0.18704044 3.26684541
v -0.53653624 -0.14650731 2.90937336
v -0.46099538 -0.20825356 3.27943793
v -0.55048945 -0.18415619 3.06691701
v -0.62413644 0.22704044 3.31511760
v -0.62469160 0.18650731 2.92724334
v -0.55015940 0.24825356 3.29751237
v -0.38600222 0.22704044 3.26684541
v -0.53653624 0.18650731 2.90937336
v -0.46099538 0.24825356 3.27943793
v -0.55048945 0.22415619 3.06691701
v -0.62501791 -0.04558397 2.69925656
v -0.62501791 0.08558397 2.69925656
v -0.29772222 0.18849115 3.33605863
v -0.29806532 0.08237406 3.09633915
v -0.37203534 0.18516583 3.11884771
v -0.29772222 -0.14849115 3.33605863
v -0.29806532 -0.04237406 3.09633915
v -0.37203534 -0.14516583 3.11884771
v -0.53673791 -0.08413326 2.76846979
v -0.38654700 -0.01854929 2.88622235
v -0.46152941 -0.12106846 2.90632679
v -0.55102348 -0.01899036 2.69380587
v -0.37223932 -0.08207810 2.97633194
v -0.53673791 0.12413326 2.76846979
v -0.38654700 0.05854929 2.88622235
v -0.46152941 0.16106846 2.90632679
v -0.55102348 0.05899036 2.69380587
v -0.37223932 0.12207810 2.97633194
v -0.46173339 0.02000000 2.76381102
v -0.24283586 0.18849115 3.60682152
v -0.14980072 0.08237406 3.82775140
v -0.22669687 0.18516583 3.83582492
v -0.22723090 0.14617547 3.46271379
v -0.24283586 -0.14849115 3.60682152
v -0.14980072 -0.04237406 3.82775140
v -0.22669687 -0.14516583 3.83582492
v -0.22723090 -0.10617547 3.46271379
v -0.24195439 -0.08413326 4.22268256
v -0.14947441 -0.01854929 4.05573817
v -0.22636682 -0.12106846 4.06642028
v -0.22603677 -0.01899036 4.29701564
v -0.17138649 -0.08207810 3.96717007
v -0.24195439 0.12413326 4.22268256
v -0.14947441 0.05854929 4.05573817
v -0.22636682 0.16106846 4.06642028
v -0.22603677 0.05899036 4.29701564
v -0.17138649 0.12207810 3.96717007
v -0.17105644 0.02000000 4.19776543
v -0.24338064 0.02000000 3.22619847
v -0.15000239 0.02000000 3.68684782
v -0.22743488 0.08308773 3.32019801
v -0.22743488 -0.04308773 3.32019801
v -0.17192052 0.08308773 3.59405894
v -0.17192052 -0.04308773 3.59405894
v -0.67849481 0.18849115 3.41324505
v -0.77152995 0.08237406 3.19231518
v -0.69463380 0.18516583 3.18424166
v -0.67849481 -0.14849115 3.41324505
v -0.77152995 -0.04237406 3.19231518
v -0.69463380 -0.14516583 3.18424166
v -0.67937628 -0.08413326 2.79738401
v -0.77185626 -0.01854929 2.96432841
v -0.69496385 -0.12106846 2.95364630
v -0.69529390 -0.01899036 2.72305093
v -0.74994418 -0.08207810 3.05289651
v -0.67937628 0.12413326 2.79738401
v -0.77185626 0.05854929 2.96432841
v -0.69496385 0.16106846 2.95364630
v -0.69529390 0.05899036 2.72305093
v -0.74994418 0.12207810 3.05289651
v -0.75027423 0.02000000 2.82230114
v -0.62360845 0.18849115 3.68400795
v -0.62326535 0.08237406 3.92372743
v -0.54929533 0.18516583 3.90121887
v -0.69409977 0.14617547 3.55735279
v -0.62360845 -0.14849115 3.68400795
v -0.62326535 -0.04237406 3.92372743
v -0.54929533 -0.14516583 3.90121887
v -0.69409977 -0.10617547 3.55735279
v -0.38459276 -0.08413326 4.25159679
v -0.53478367 -0.01854929 4.13384423
v -0.45980126 -0.12106846 4.11373979
v -0.37030719 -0.01899036 4.32626071
v -0.54909135 -0.08207810 4.04373464
v -0.38459276 0.12413326 4.25159679
v -0.53478367 0.05854929 4.13384423
v -0.45980126 0.16106846 4.11373979
v -0.37030719 0.05899036 4.32626071
v -0.54909135 0.12207810 4.04373464
v -0.45959728 0.02000000 4.25625556
v -0.77132828 0.02000000 3.33321875
v -0.67795003 0.02000000 3.79386811
v -0.74941015 0.08308773 3.42600764
v -0.74941015 -0.04308773 3.42600764
v -0.69389579 0.08308773 3.69986856
v -0.69389579 -0.04308773 3.69986856
v -0.57135356 0.23961042 3.53247090
v -0.49852200 0.25770533 3.51770722
v -0.34997711 0.23961042 3.48759567
v -0.42280867 0.25770533 3.50235936
v -0.57135356 -0.19961042 3.53247090
v -0.49852200 -0.21770533 3.51770722
v -0.34997711 -0.19961042 3.48759567
v -0.42280867 -0.21770533 3.50235936
v -0.57118883 -0.18758304 3.64756472
v -0.49804035 -0.18253875 3.85422733
v -0.53647593 -0.20183310 3.64092731
v -0.34899293 -0.12775409 4.17521171
v -0.42204675 -0.16207655 4.03468877
v -0.46049825 -0.21704520 3.62676817
v -0.46018045 -0.19384157 3.84881111
v -0.49838121 -0.21193422 3.63420293
v -0.49821636 -0.19989860 3.74937560
v -0.30530919 -0.18758304 3.59366825
v -0.29220520 -0.18253875 3.81250248
v -0.33986661 -0.20183310 3.60107263
v -0.30448975 -0.12775409 4.16619046
v -0.29192494 -0.16207655 4.00831177
v -0.33913885 -0.14869769 4.10954226
v -0.41536052 -0.21704520 3.61761830
v -0.32918565 -0.19384157 3.82225715
v -0.37757278 -0.21193422 3.60971385
v -0.41514859 -0.21132670 3.73457442
v -0.33287426 -0.19989860 3.71585910
v -0.41487563 -0.18164269 3.95639612
v -0.32901857 -0.18164269 3.93899203
v -0.37696075 -0.16724905 4.03732043
v -0.41498135 -0.19911580 3.85142444
v -0.33242708 -0.16724905 4.02829301
v -0.36979910 -0.19911580 3.84226554
v -0.57118883 0.22758304 3.64756472
v -0.49804035 0.22253875 3.85422733
v -0.53647593 0.24183310 3.64092731
v -0.34899293 0.16775409 4.17521171
v -0.42204675 0.20207655 4.03468877
v -0.46049825 0.25704520 3.62676817
v -0.46018045 0.23384157 3.84881111
v -0.49838121 0.25193422 3.63420293
v -0.49821636 0.23989860 3.74937560
v -0.30530919 0.22758304 3.59366825
v -0.29220520 0.22253875 3.81250248
v -0.33986661 0.24183310 3.60107263
v -0.30448975 0.16775409 4.16619046
v -0.29192494 0.20207655 4.00831177
v -0.33913885 0.18869769 4.10954226
v -0.41536052 0.25704520 3.61761830
v -0.32918565 0.23384157 3.82225715
v -0.37757278 0.25193422 3.60971385
v -0.41514859 0.25132670 3.73457442
v -0.33287426 0.23989860 3.71585910
v -0.41487563 0.22164269 3.95639612
v -0.32901857 0.22164269 3.93899203
v -0.37696075 0.20724905 4.03732043
v -0.41498135 0.23911580 3.85142444
v -0.33242708 0.20724905 4.02829301
v -0.36979910 0.23911580 3.84226554
v -0.30432502 -0.07680528 4.28128428
v -0.29144328 -0.01310854 4.34483189
v -0.30432502 0.11680528 4.28128428
v -0.29144328 0.05310854 4.34483189
v -0.61602147 -0.18758304 3.42639833
v -0.62912547 -0.18253875 3.20756410
v -0.58146405 -0.20183310 3.41899394
v -0.61684092 -0.12775409 2.85387611
v -0.62940573 -0.16207655 3.01175481
v -0.50597015 -0.21704520 3.40244828
v -0.59214502 -0.19384157 3.19780943
v -0.54375789 -0.21193422 3.41035273
v -0.58845641 -0.19989860 3.30420748
v -0.35014184 -0.18758304 3.37250186
v -0.42329032 -0.18253875 3.16583925
v -0.38485474 -0.20183310 3.37913926
v -0.57233774 -0.12775409 2.84485487
v -0.49928392 -0.16207655 2.98537781
v -0.58219182 -0.14869769 2.91052432
v -0.46083242 -0.21704520 3.39329841
v -0.46115022 -0.19384157 3.17125547
v -0.42294946 -0.21193422 3.38586365
v -0.50618208 -0.21132670 3.28549215
v -0.42311431 -0.19989860 3.27069097
v -0.59231210 -0.18164269 3.08107455
v -0.50645503 -0.18164269 3.06367046
v -0.58890359 -0.16724905 2.99177357
v -0.55153157 -0.19911580 3.17780103
v -0.54436992 -0.16724905 2.98274614
v -0.50634932 -0.19911580 3.16864214
v -0.61602147 0.22758304 3.42639833
v -0.62912547 0.22253875 3.20756410
v -0.58146405 0.24183310 3.41899394
v -0.61684092 0.16775409 2.85387611
v -0.62940573 0.20207655 3.01175481
v -0.50597015 0.25704520 3.40244828
v -0.59214502 0.23384157 3.19780943
v -0.54375789 0.25193422 3.41035273
v -0.58845641 0.23989860 3.30420748
v -0.35014184 0.22758304 3.37250186
v -0.42329032 0.22253875 3.16583925
v -0.38485474 0.24183310 3.37913926
v -0.57233774 0.16775409 2.84485487
v -0.49928392 0.20207655 2.98537781
v -0.58219182 0.18869769 2.91052432
v -0.46083242 0.25704520 3.39329841
v -0.46115022 0.23384157 3.17125547
v -0.42294946 0.25193422 3.38586365
v -0.50618208 0.25132670 3.28549215
v -0.42311431 0.23989860 3.27069097
v -0.59231210 0.22164269 3.08107455
v -0.50645503 0.22164269 3.06367046
v -0.58890359 0.20724905 2.99177357
v -0.55153157 0.23911580 3.17780103
v -0.54436992 0.20724905 2.98274614
v -0.50634932 0.23911580 3.16864214
v -0.61700565 -0.07680528 2.73878230
v -0.62988739 -0.01310854 2.67523469
v -0.61700565 0.11680528 2.73878230
v -0.62988739 0.05310854 2.67523469
v -0.30557574 0.20812233 3.40744255
v -0.29298453 0.16563804 3.26800149
v -0.34029938 0.21023582 3.29870817
v -0.30608218 0.05148809 3.05360435
v -0.29315774 0.11206730 3.14698470
v -0.41611575 0.20190450 3.08995947
v -0.33013729 0.16436023 3.15736824
v -0.37817413 0.20802841 3.18956520
v -0.33357749 0.18855436 3.22452982
v -0.30557574 -0.16812233 3.40744255
v -0.29298453 -0.12563804 3.26800149
v -0.34029938 -0.17023582 3.29870817
v -0.30608218 -0.01148809 3.05360435
v -0.29315774 -0.07206730 3.14698470
v -0.41611575 -0.16190450 3.08995947
v -0.33013729 -0.12436023 3.15736824
v -0.37817413 -0.16802841 3.18956520
v -0.33357749 -0.14855436 3.22452982
v -0.57243955 -0.09626599 2.77372298
v -0.49958160 -0.07000926 2.77739694
v -0.53763647 -0.11710040 2.83009322
v -0.58245929 -0.06597491 2.72365280
v -0.35075009 0.00053929 2.94753178
v -0.42376121 -0.03690072 2.83684158
v -0.34074917 -0.03112549 2.98445666
v -0.46142057 -0.14970563 2.98237446
v -0.46161698 -0.08895772 2.84514438
v -0.49942974 -0.13537885 2.90162037
v -0.41619155 -0.13517867 3.00588978
v -0.49953162 -0.10386919 2.83043974
v -0.59290025 0.00026181 2.67015060
v -0.50692179 -0.03728246 2.73755937
v -0.58933821 -0.03282809 2.68811537
v -0.54474158 -0.05230213 2.72308000
v -0.33024056 -0.09242316 3.08522212
v -0.41641543 -0.06921953 2.88058327
v -0.33385387 -0.06307672 3.03143505
v -0.37094542 -0.11542101 3.04136362
v -0.37855238 -0.05104110 2.92528980
v -0.41629491 -0.10321011 2.93367250
v -0.57243955 0.13626599 2.77372298
v -0.49958160 0.11000926 2.77739694
v -0.53763647 0.15710040 2.83009322
v -0.58245929 0.10597491 2.72365280
v -0.35075009 0.03946071 2.94753178
v -0.42376121 0.07690072 2.83684158
v -0.34074917 0.07112549 2.98445666
v -0.38557199 0.02000000 2.87801623
v -0.46142057 0.18970563 2.98237446
v -0.46161698 0.12895772 2.84514438
v -0.49942974 0.17537885 2.90162037
v -0.41619155 0.17517867 3.00588978
v -0.49953162 0.14386919 2.83043974
v -0.59290025 0.03973819 2.67015060
v -0.50692179 0.07728246 2.73755937
v -0.58933821 0.07282809 2.68811537
v -0.55224004 0.02000000 2.68281642
v -0.54474158 0.09230213 2.72308000
v -0.33024056 0.13242316 3.08522212
v -0.41641543 0.10921953 2.88058327
v -0.33385387 0.10307672 3.03143505
v -0.37094542 0.15542101 3.04136362
v -0.37855238 0.09104110 2.92528980
v -0.41629491 0.14321011 2.93367250
v -0.46172024 -0.01754427 2.77299825
v -0.46172024 0.05754427 2.77299825
v -0.42376234 0.00052596 2.81793005
v -0.50699390 0.00024234 2.71829026
v -0.42376234 0.03947404 2.81793005
v -0.50699390 0.03975766 2.71829026
v -0.27786764 0.20812233 3.54413089
v -0.21196947 0.16563804 3.66766135
v -0.26750708 0.21023582 3.65780391
v -0.26777454 0.19070762 3.47093239
v -0.14054302 0.05148809 3.87023466
v -0.16500285 0.11206730 3.77919266
v -0.25604800 0.20190450 3.87959847
v -0.20310681 0.16436023 3.78402930
v -0.25988975 0.20802841 3.77308036
v -0.23242939 0.18855436 3.72350906
v -0.25683257 0.14462204 3.33144444
v -0.20337715 0.14462204 3.59514829
v -0.26042625 0.16885750 3.39824154
v -0.23269917 0.16885750 3.53502354
v -0.27786764 -0.16812233 3.54413089
v -0.21196947 -0.12563804 3.66766135
v -0.26750708 -0.17023582 3.65780391
v -0.26777454 -0.15070762 3.47093239
v -0.14054302 -0.01148809 3.87023466
v -0.16500285 -0.07206730 3.77919266
v -0.25604800 -0.16190450 3.87959847
v -0.20310681 -0.12436023 3.78402930
v -0.25988975 -0.16802841 3.77308036
v -0.23242939 -0.14855436 3.72350906
v -0.25683257 -0.10462204 3.33144444
v -0.20337715 -0.10462204 3.59514829
v -0.26042625 -0.12885750 3.39824154
v -0.23269917 -0.12885750 3.53502354
v -0.27688346 -0.09626599 4.23174692
v -0.21120755 -0.07000926 4.19999076
v -0.26677931 -0.11710040 4.16627353
v -0.26661401 -0.06597491 4.28176648
v -0.14037829 0.00053929 3.98532847
v -0.16452119 -0.03690072 4.11571277
v -0.14554605 -0.03112549 3.94742387
v -0.25588092 -0.14970563 3.99633335
v -0.20262192 -0.08895772 4.12280712
v -0.25944257 -0.13537885 4.08551427
v -0.22337954 -0.13517867 3.95706130
v -0.23181737 -0.10386919 4.15111564
v -0.25539603 0.00026181 4.33511117
v -0.20245484 -0.03728246 4.23954200
v -0.25911099 -0.03282809 4.31717740
v -0.23165063 -0.05230213 4.26760610
v -0.17510690 -0.09242316 3.85052049
v -0.17478909 -0.06921953 4.07256343
v -0.15748930 -0.06307672 3.90146875
v -0.19551925 -0.11542101 3.90676806
v -0.15732446 -0.05104110 4.01664142
v -0.19535201 -0.10321011 4.02361807
v -0.27688346 0.13626599 4.23174692
v -0.21120755 0.11000926 4.19999076
v -0.26677931 0.15710040 4.16627353
v -0.26661401 0.10597491 4.28176648
v -0.14037829 0.03946071 3.98532847
v -0.16452119 0.07690072 4.11571277
v -0.14554605 0.07112549 3.94742387
v -0.14538075 0.02000000 4.06291682
v -0.25588092 0.18970563 3.99633335
v -0.20262192 0.12895772 4.12280712
v -0.25944257 0.17537885 4.08551427
v -0.22337954 0.17517867 3.95706130
v -0.23181737 0.14386919 4.15111564
v -0.25539603 0.03973819 4.33511117
v -0.20245484 0.07728246 4.23954200
v -0.25911099 0.07282809 4.31717740
v -0.22287780 0.02000000 4.30761135
v -0.23165063 0.09230213 4.26760610
v -0.17510690 0.13242316 3.85052049
v -0.17478909 0.10921953 4.07256343
v -0.15748930 0.10307672 3.90146875
v -0.19551925 0.15542101 3.90676806
v -0.15732446 0.09104110 4.01664142
v -0.19535201 0.14321011 4.02361807
v -0.17462201 -0.01754427 4.18929831
v -0.17462201 0.05754427 4.18929831
v -0.15715773 0.00052596 4.13313188
v -0.19501752 0.00024234 4.25731810
v -0.15715773 0.03947404 4.13313188
v -0.19501752 0.03975766 4.25731810
v -0.27847589 0.02000000 3.11916081
v -0.21244036 0.02000000 3.33866369
v -0.26822433 0.05159729 3.15668088
v -0.26822433 -0.01159729 3.15668088
v -0.14064483 0.02000000 3.79910277
v -0.16530053 0.02000000 3.57121178
v -0.14581352 0.05159729 3.76055235
v -0.14581352 -0.01159729 3.76055235
v -0.25693583 0.11268497 3.25929832
v -0.20367683 0.05193706 3.38577208
v -0.26070263 0.08337986 3.20514676
v -0.22419137 0.11590569 3.38985941
v -0.23307742 0.05187019 3.27074814
v -0.25693583 -0.07268497 3.25929832
v -0.20367683 -0.01193706 3.38577208
v -0.26070263 -0.04337986 3.20514676
v -0.22419137 -0.07590569 3.38985941
v -0.23307742 -0.01187019 3.27074814
v -0.17537724 0.11268497 3.66163948
v -0.17557365 0.05193706 3.52440940
v -0.15775908 0.08337986 3.71298323
v -0.19606047 0.11590569 3.52863346
v -0.15786096 0.05187019 3.64180260
v -0.19616384 0.08393713 3.45641618
v -0.17537724 -0.07268497 3.66163948
v -0.17557365 -0.01193706 3.52440940
v -0.15775908 -0.04337986 3.71298323
v -0.19606047 -0.07590569 3.52863346
v -0.15786096 -0.01187019 3.64180260
v -0.19616384 -0.04393713 3.45641618
v -0.64346303 0.20812233 3.47593569
v -0.70936120 0.16563804 3.35240522
v -0.65382359 0.21023582 3.36226267
v -0.78078765 0.05148809 3.14983192
v -0.75632782 0.11206730 3.24087392
v -0.66528267 0.20190450 3.14046811
v -0.71822386 0.16436023 3.23603728
v -0.66144092 0.20802841 3.24698622
v -0.68890128 0.18855436 3.29655752
v -0.64346303 -0.16812233 3.47593569
v -0.70936120 -0.12563804 3.35240522
v -0.65382359 -0.17023582 3.36226267
v -0.78078765 -0.01148809 3.14983192
v -0.75632782 -0.07206730 3.24087392
v -0.66528267 -0.16190450 3.14046811
v -0.71822386 -0.12436023 3.23603728
v -0.66144092 -0.16802841 3.24698622
v -0.68890128 -0.14855436 3.29655752
v -0.64444721 -0.09626599 2.78831966
v -0.71012312 -0.07000926 2.82007582
v -0.65455136 -0.11710040 2.85379304
v -0.65471666 -0.06597491 2.73830010
v -0.78095238 0.00053929 3.03473810
v -0.75680948 -0.03690072 2.90435381
v -0.77578462 -0.03112549 3.07264271
v -0.66544975 -0.14970563 3.02373323
v -0.71870875 -0.08895772 2.89725946
v -0.66188810 -0.13537885 2.93455231
v -0.69795113 -0.13517867 3.06300528
v -0.68951330 -0.10386919 2.86895094
v -0.66593463 0.00026181 2.68495540
v -0.71887583 -0.03728246 2.78052458
v -0.66221968 -0.03282809 2.70288918
v -0.68968004 -0.05230213 2.75246048
v -0.74622377 -0.09242316 3.16954609
v -0.74654158 -0.06921953 2.94750315
v -0.76384137 -0.06307672 3.11859783
v -0.72581142 -0.11542101 3.11329852
v -0.76400621 -0.05104110 3.00342516
v -0.72597866 -0.10321011 2.99644851
v -0.64444721 0.13626599 2.78831966
v -0.71012312 0.11000926 2.82007582
v -0.65455136 0.15710040 2.85379304
v -0.65471666 0.10597491 2.73830010
v -0.78095238 0.03946071 3.03473810
v -0.75680948 0.07690072 2.90435381
v -0.77578462 0.07112549 3.07264271
v -0.77594992 0.02000000 2.95714976
v -0.66544975 0.18970563 3.02373323
v -0.71870875 0.12895772 2.89725946
v -0.66188810 0.17537885 2.93455231
v -0.69795113 0.17517867 3.06300528
v -0.68951330 0.14386919 2.86895094
v -0.66593463 0.03973819 2.68495540
v -0.71887583 0.07728246 2.78052458
v -0.66221968 0.07282809 2.70288918
v -0.69845287 0.02000000 2.71245523
v -0.68968004 0.09230213 2.75246048
v -0.74622377 0.13242316 3.16954609
v -0.74654158 0.10921953 2.94750315
v -0.76384137 0.10307672 3.11859783
v -0.72581142 0.15542101 3.11329852
v -0.76400621 0.09104110 3.00342516
v -0.72597866 0.14321011 2.99644851
v -0.74670866 -0.01754427 2.83076827
v -0.74670866 0.05754427 2.83076827
v -0.76417294 0.00052596 2.88693470
v -0.72631315 0.00024234 2.76274848
v -0.76417294 0.03947404 2.88693470
v -0.72631315 0.03975766 2.76274848
v -0.61575493 0.20812233 3.61262403
v -0.62834614 0.16563804 3.75206508
v -0.58103128 0.21023582 3.72135841
v -0.65355613 0.19070762 3.54913419
v -0.61524849 0.05148809 3.96646222
v -0.62817293 0.11206730 3.87308188
v -0.50521492 0.20190450 3.93010710
v -0.59119337 0.16436023 3.86269834
v -0.54315654 0.20802841 3.83050138
v -0.58775318 0.18855436 3.79553676
v -0.71795352 0.14462204 3.42491829
v -0.66449810 0.14462204 3.68862213
v -0.68863150 0.16885750 3.48504304
v -0.66090442 0.16885750 3.62182504
v -0.61575493 -0.16812233 3.61262403
v -0.62834614 -0.12563804 3.75206508
v -0.58103128 -0.17023582 3.72135841
v -0.65355613 -0.15070762 3.54913419
v -0.61524849 -0.01148809 3.96646222
v -0.62817293 -0.07206730 3.87308188
v -0.50521492 -0.16190450 3.93010710
v -0.59119337 -0.12436023 3.86269834
v -0.54315654 -0.16802841 3.83050138
v -0.58775318 -0.14855436 3.79553676
v -0.71795352 -0.10462204 3.42491829
v -0.66449810 -0.10462204 3.68862213
v -0.68863150 -0.12885750 3.48504304
v -0.66090442 -0.12885750 3.62182504
v -0.34889112 -0.09626599 4.24634359
v -0.42174907 -0.07000926 4.24266964
v -0.38369420 -0.11710040 4.18997335
v -0.33887138 -0.06597491 4.29641378
v -0.57058058 0.00053929 4.07253479
v -0.49756946 -0.03690072 4.18322500
v -0.58058150 -0.03112549 4.03560992
v -0.45991010 -0.14970563 4.03769212
v -0.45971369 -0.08895772 4.17492220
v -0.42190093 -0.13537885 4.11844621
v -0.50513912 -0.13517867 4.01417679
v -0.42179905 -0.10386919 4.18962683
v -0.32843042 0.00026181 4.34991598
v -0.41440888 -0.03728246 4.28250721
v -0.33199246 -0.03282809 4.33195120
v -0.37658909 -0.05230213 4.29698658
v -0.59109011 -0.09242316 3.93484446
v -0.50491524 -0.06921953 4.13948331
v -0.58747680 -0.06307672 3.98863153
v -0.55038525 -0.11542101 3.97870295
v -0.54277829 -0.05104110 4.09477678
v -0.50503576 -0.10321011 4.08639407
v -0.34889112 0.13626599 4.24634359
v -0.42174907 0.11000926 4.24266964
v -0.38369420 0.15710040 4.18997335
v -0.33887138 0.10597491 4.29641378
v -0.57058058 0.03946071 4.07253479
v -0.49756946 0.07690072 4.18322500
v -0.58058150 0.07112549 4.03560992
v -0.53575868 0.02000000 4.14205034
v -0.45991010 0.18970563 4.03769212
v -0.45971369 0.12895772 4.17492220
v -0.42190093 0.17537885 4.11844621
v -0.50513912 0.17517867 4.01417679
v -0.42179905 0.14386919 4.18962683
v -0.32843042 0.03973819 4.34991598
v -0.41440888 0.07728246 4.28250721
v -0.33199246 0.07282809 4.33195120
v -0.36909063 0.02000000 4.33725015
v -0.37658909 0.09230213 4.29698658
v -0.59109011 0.13242316 3.93484446
v -0.50491524 0.10921953 4.13948331
v -0.58747680 0.10307672 3.98863153
v -0.55038525 0.15542101 3.97870295
v -0.54277829 0.09104110 4.09477678
v -0.50503576 0.14321011 4.08639407
v -0.45961043 -0.01754427 4.24706832
v -0.45961043 0.05754427 4.24706832
v -0.49756833 0.00052596 4.20213653
v -0.41433677 0.00024234 4.30177631
v -0.49756833 0.03947404 4.20213653
v -0.41433677 0.03975766 4.30177631
v -0.78068584 0.02000000 3.22096380
v -0.75603014 0.02000000 3.44885479
v -0.77551715 0.05159729 3.25951422
v -0.77551715 -0.01159729 3.25951422
v -0.64285478 0.02000000 3.90090577
v -0.70889031 0.02000000 3.68140289
v -0.65310634 0.05159729 3.86338570
v -0.65310634 -0.01159729 3.86338570
v -0.74595343 0.11268497 3.35842709
v -0.74575702 0.05193706 3.49565718
v -0.76357159 0.08337986 3.30708335
v -0.72527020 0.11590569 3.49143312
v -0.76346971 0.05187019 3.37826397
v -0.74595343 -0.07268497 3.35842709
v -0.74575702 -0.01193706 3.49565718
v -0.76357159 -0.04337986 3.30708335
v -0.72527020 -0.07590569 3.49143312
v -0.76346971 -0.01187019 3.37826397
v -0.66439484 0.11268497 3.76076826
v -0.71765384 0.05193706 3.63429449
v -0.66062804 0.08337986 3.81491981
v -0.69713930 0.11590569 3.63020717
v -0.68825325 0.05187019 3.74931844
v -0.72516683 0.08393713 3.56365040
v -0.66439484 -0.07268497 3.76076826
v -0.71765384 -0.01193706 3.63429449
v -0.66062804 -0.04337986 3.81491981
v -0.69713930 -0.07590569 3.63020717
v -0.68825325 -0.01187019 3.74931844
v -0.72516683 -0.04393713 3.56365040
f 1 533 197
f 533 138 535
f 197 535 54
f 533 535 197
f 138 534 542
f 534 38 540
f 542 540 140
f 534 540 542
f 54 541 198
f 541 140 539
f 198 539 17
f 541 539 198
f 138 542 535
f 542 140 541
f 535 541 54
f 542 541 535
f 38 538 601
f 538 139 603
f 601 603 155
f 538 603 601
f 139 537 589
f 537 12 587
f 589 587 152
f 537 587 589
f 155 605 602
f 605 152 588
f 602 588 41
f 605 588 602
f 139 589 603
f 589 152 605
f 603 605 155
f 589 605 603
f 17 591 201
f 591 153 593
f 201 593 55
f 591 593 201
f 153 592 595
f 592 41 584
f 595 584 151
f 592 584 595
f 55 585 200
f 585 151 583
f 200 583 6
f 585 583 200
f 153 595 593
f 595 151 585
f 593 585 55
f 595 585 593
f 38 601 540
f 601 155 604
f 540 604 140
f 601 604 540
f 155 602 606
f 602 41 592
f 606 592 153
f 602 592 606
f 140 594 539
f 594 153 591
f 539 591 17
f 594 591 539
f 155 606 604
f 606 153 594
f 604 594 140
f 606 594 604
f 1 197 163
f 197 54 199
f 163 199 43
f 197 199 163
f 54 198 205
f 198 17 203
f 205 203 56
f 198 203 205
f 43 204 164
f 204 56 202
f 164 202 13
f 204 202 164
f 54 205 199
f 205 56 204
f 199 204 43
f 205 204 199
f 17 201 217
f 201 55 219
f 217 219 60
f 201 219 217
f 55 200 211
f 200 6 209
f 211 209 58
f 200 209 211
f 60 221 218
f 221 58 210
f 218 210 18
f 221 210 218
f 55 211 219
f 211 58 221
f 219 221 60
f 211 221 219
f 13 212 166
f 212 59 214
f 166 214 44
f 212 214 166
f 59 213 216
f 213 18 207
f 216 207 57
f 213 207 216
f 44 208 165
f 208 57 206
f 165 206 2
f 208 206 165
f 59 216 214
f 216 57 208
f 214 208 44
f 216 208 214
f 17 217 203
f 217 60 220
f 203 220 56
f 217 220 203
f 60 218 222
f 218 18 213
f 222 213 59
f 218 213 222
f 56 215 202
f 215 59 212
f 202 212 13
f 215 212 202
f 60 222 220
f 222 59 215
f 220 215 56
f 222 215 220
f 1 163 253
f 163 43 255
f 253 255 70
f 163 255 253
f 43 164 260
f 164 13 258
f 260 258 72
f 164 258 260
f 70 261 254
f 261 72 259
f 254 259 22
f 261 259 254
f 43 260 255
f 260 72 261
f 255 261 70
f 260 261 255
f 13 166 268
f 166 44 270
f 268 270 75
f 166 270 268
f 44 165 264
f 165 2 262
f 264 262 73
f 165 262 264
f 75 272 269
f 272 73 263
f 269 263 23
f 272 263 269
f 44 264 270
f 264 73 272
f 270 272 75
f 264 272 270
f 22 273 257
f 273 76 275
f 257 275 71
f 273 275 257
f 76 274 277
f 274 23 266
f 277 266 74
f 274 266 277
f 71 267 256
f 267 74 265
f 256 265 8
f 267 265 256
f 76 277 275
f 277 74 267
f 275 267 71
f 277 267 275
f 13 268 258
f 268 75 271
f 258 271 72
f 268 271 258
f 75 269 278
f 269 23 274
f 278 274 76
f 269 274 278
f 72 276 259
f 276 76 273
f 259 273 22
f 276 273 259
f 75 278 271
f 278 76 276
f 271 276 72
f 278 276 271
f 1 253 463
f 253 70 465
f 463 465 121
f 253 465 463
f 70 254 470
f 254 22 468
f 470 468 123
f 254 468 470
f 121 471 464
f 471 123 469
f 464 469 34
f 471 469 464
f 70 470 465
f 470 123 471
f 465 471 121
f 470 471 465
f 22 257 511
f 257 71 513
f 511 513 134
f 257 513 511
f 71 256 505
f 256 8 503
f 505 503 132
f 256 503 505
f 134 515 512
f 515 132 504
f 512 504 37
f 515 504 512
f 71 505 513
f 505 132 515
f 513 515 134
f 505 515 513
f 34 521 467
f 521 136 523
f 467 523 122
f 521 523 467
f 136 522 525
f 522 37 508
f 525 508 133
f 522 508 525
f 122 509 466
f 509 133 507
f 466 507 11
f 509 507 466
f 136 525 523
f 525 133 509
f 523 509 122
f 525 509 523
f 22 511 468
f 511 134 514
f 468 514 123
f 511 514 468
f 134 512 526
f 512 37 522
f 526 522 136
f 512 522 526
f 123 524 469
f 524 136 521
f 469 521 34
f 524 521 469
f 134 526 514
f 526 136 524
f 514 524 123
f 526 524 514
f 1 463 533
f 463 121 536
f 533 536 138
f 463 536 533
f 121 464 545
f 464 34 543
f 545 543 141
f 464 543 545
f 138 546 534
f 546 141 544
f 534 544 38
f 546 544 534
f 121 545 536
f 545 141 546
f 536 546 138
f 545 546 536
f 34 467 621
f 467 122 623
f 621 623 159
f 467 623 621
f 122 466 615
f 466 11 613
f 615 613 157
f 466 613 615
f 159 625 622
f 625 157 614
f 622 614 42
f 625 614 622
f 122 615 623
f 615 157 625
f 623 625 159
f 615 625 623
f 38 631 538
f 631 161 633
f 538 633 139
f 631 633 538
f 161 632 635
f 632 42 618
f 635 618 158
f 632 618 635
f 139 619 537
f 619 158 617
f 537 617 12
f 619 617 537
f 161 635 633
f 635 158 619
f 633 619 139
f 635 619 633
f 34 621 543
f 621 159 624
f 543 624 141
f 621 624 543
f 159 622 636
f 622 42 632
f 636 632 161
f 622 632 636
f 141 634 544
f 634 161 631
f 544 631 38
f 634 631 544
f 159 636 624
f 636 161 634
f 624 634 141
f 636 634 624
f 2 206 353
f 206 57 355
f 353 355 96
f 206 355 353
f 57 207 361
f 207 18 359
f 361 359 98
f 207 359 361
f 96 362 354
f 362 98 360
f 354 360 29
f 362 360 354
f 57 361 355
f 361 98 362
f 355 362 96
f 361 362 355
f 18 210 411
f 210 58 413
f 411 413 111
f 210 413 411
f 58 209 405
f 209 6 403
f 405 403 109
f 209 403 405
f 111 415 412
f 415 109 404
f 412 404 32
f 415 404 412
f 58 405 413
f 405 109 415
f 413 415 111
f 405 415 413
f 29 421 358
f 421 113 423
f 358 423 97
f 421 423 358
f 113 422 425
f 422 32 408
f 425 408 110
f 422 408 425
f 97 409 357
f 409 110 407
f 357 407 10
f 409 407 357
f 113 425 423
f 425 110 409
f 423 409 97
f 425 409 423
f 18 411 359
f 411 111 414
f 359 414 98
f 411 414 359
f 111 412 426
f 412 32 422
f 426 422 113
f 412 422 426
f 98 424 360
f 424 113 421
f 360 421 29
f 424 421 360
f 111 426 414
f 426 113 424
f 414 424 98
f 426 424 414
f 6 583 225
f 583 151 586
f 225 586 62
f 583 586 225
f 151 584 600
f 584 41 597
f 600 597 154
f 584 597 600
f 62 598 226
f 598 154 596
f 226 596 19
f 598 596 226
f 151 600 586
f 600 154 598
f 586 598 62
f 600 598 586
f 41 588 608
f 588 152 611
f 608 611 156
f 588 611 608
f 152 587 590
f 587 12 565
f 590 565 147
f 587 565 590
f 156 609 607
f 609 147 566
f 607 566 40
f 609 566 607
f 152 590 611
f 590 147 609
f 611 609 156
f 590 609 611
f 19 573 224
f 573 149 575
f 224 575 61
f 573 575 224
f 149 574 576
f 574 40 562
f 576 562 146
f 574 562 576
f 61 564 223
f 564 146 561
f 223 561 5
f 564 561 223
f 149 576 575
f 576 146 564
f 575 564 61
f 576 564 575
f 41 608 597
f 608 156 612
f 597 612 154
f 608 612 597
f 156 607 610
f 607 40 574
f 610 574 149
f 607 574 610
f 154 599 596
f 599 149 573
f 596 573 19
f 599 573 596
f 156 610 612
f 610 149 599
f 612 599 154
f 610 599 612
f 12 617 551
f 617 158 620
f 551 620 143
f 617 620 551
f 158 618 641
f 618 42 638
f 641 638 162
f 618 638 641
f 143 639 552
f 639 162 637
f 552 637 39
f 639 637 552
f 158 641 620
f 641 162 639
f 620 639 143
f 641 639 620
f 42 614 627
f 614 157 630
f 627 630 160
f 614 630 627
f 157 613 616
f 613 11 475
f 616 475 125
f 613 475 616
f 160 628 626
f 628 125 476
f 626 476 35
f 628 476 626
f 157 616 630
f 616 125 628
f 630 628 160
f 616 628 630
f 39 558 548
f 558 145 560
f 548 560 142
f 558 560 548
f 145 557 559
f 557 35 473
f 559 473 124
f 557 473 559
f 142 550 547
f 550 124 472
f 547 472 3
f 550 472 547
f 145 559 560
f 559 124 550
f 560 550 142
f 559 550 560
f 42 627 638
f 627 160 642
f 638 642 162
f 627 642 638
f 160 626 629
f 626 35 557
f 629 557 145
f 626 557 629
f 162 640 637
f 640 145 558
f 637 558 39
f 640 558 637
f 160 629 642
f 629 145 640
f 642 640 162
f 629 640 642
f 11 507 485
f 507 133 510
f 485 510 128
f 507 510 485
f 133 508 531
f 508 37 528
f 531 528 137
f 508 528 531
f 128 529 486
f 529 137 527
f 486 527 36
f 529 527 486
f 133 531 510
f 531 137 529
f 510 529 128
f 531 529 510
f 37 504 517
f 504 132 520
f 517 520 135
f 504 520 517
f 132 503 506
f 503 8 281
f 506 281 78
f 503 281 506
f 135 518 516
f 518 78 282
f 516 282 24
f 518 282 516
f 132 506 520
f 506 78 518
f 520 518 135
f 506 518 520
f 36 494 482
f 494 130 496
f 482 496 127
f 494 496 482
f 130 493 495
f 493 24 280
f 495 280 77
f 493 280 495
f 127 484 481
f 484 77 279
f 481 279 7
f 484 279 481
f 130 495 496
f 495 77 484
f 496 484 127
f 495 484 496
f 37 517 528
f 517 135 532
f 528 532 137
f 517 532 528
f 135 516 519
f 516 24 493
f 519 493 130
f 516 493 519
f 137 530 527
f 530 130 494
f 527 494 36
f 530 494 527
f 135 519 532
f 519 130 530
f 532 530 137
f 519 530 532
f 8 265 323
f 265 74 325
f 323 325 90
f 265 325 323
f 74 266 333
f 266 23 331
f 333 331 92
f 266 331 333
f 90 335 324
f 335 92 332
f 324 332 28
f 335 332 324
f 74 333 325
f 333 92 335
f 325 335 90
f 333 335 325
f 23 263 288
f 263 73 290
f 288 290 81
f 263 290 288
f 73 262 285
f 262 2 283
f 285 283 79
f 262 283 285
f 81 291 289
f 291 79 284
f 289 284 25
f 291 284 289
f 73 285 290
f 285 79 291
f 290 291 81
f 285 291 290
f 28 342 328
f 342 94 345
f 328 345 91
f 342 345 328
f 94 341 343
f 341 25 287
f 343 287 80
f 341 287 343
f 91 329 327
f 329 80 286
f 327 286 9
f 329 286 327
f 94 343 345
f 343 80 329
f 345 329 91
f 343 329 345
f 23 288 331
f 288 81 334
f 331 334 92
f 288 334 331
f 81 289 344
f 289 25 341
f 344 341 94
f 289 341 344
f 92 346 332
f 346 94 342
f 332 342 28
f 346 342 332
f 81 344 334
f 344 94 346
f 334 346 92
f 344 346 334
f 4 367 180
f 367 100 369
f 180 369 50
f 367 369 180
f 100 368 376
f 368 30 374
f 376 374 102
f 368 374 376
f 50 375 181
f 375 102 373
f 181 373 16
f 375 373 181
f 100 376 369
f 376 102 375
f 369 375 50
f 376 375 369
f 30 372 397
f 372 101 399
f 397 399 108
f 372 399 397
f 101 371 387
f 371 10 385
f 387 385 105
f 371 385 387
f 108 401 398
f 401 105 386
f 398 386 31
f 401 386 398
f 101 387 399
f 387 105 401
f 399 401 108
f 387 401 399
f 16 388 184
f 388 106 390
f 184 390 51
f 388 390 184
f 106 389 392
f 389 31 382
f 392 382 104
f 389 382 392
f 51 383 183
f 383 104 381
f 183 381 5
f 383 381 183
f 106 392 390
f 392 104 383
f 390 383 51
f 392 383 390
f 30 397 374
f 397 108 400
f 374 400 102
f 397 400 374
f 108 398 402
f 398 31 389
f 402 389 106
f 398 389 402
f 102 391 373
f 391 106 388
f 373 388 16
f 391 388 373
f 108 402 400
f 402 106 391
f 400 391 102
f 402 391 400
f 4 180 169
f 180 50 182
f 169 182 46
f 180 182 169
f 50 181 190
f 181 16 187
f 190 187 52
f 181 187 190
f 46 188 170
f 188 52 186
f 170 186 14
f 188 186 170
f 50 190 182
f 190 52 188
f 182 188 46
f 190 188 182
f 16 184 192
f 184 51 195
f 192 195 53
f 184 195 192
f 51 183 185
f 183 5 174
f 185 174 48
f 183 174 185
f 53 193 191
f 193 48 175
f 191 175 15
f 193 175 191
f 51 185 195
f 185 48 193
f 195 193 53
f 185 193 195
f 14 176 168
f 176 49 178
f 168 178 45
f 176 178 168
f 49 177 179
f 177 15 172
f 179 172 47
f 177 172 179
f 45 173 167
f 173 47 171
f 167 171 3
f 173 171 167
f 49 179 178
f 179 47 173
f 178 173 45
f 179 173 178
f 16 192 187
f 192 53 196
f 187 196 52
f 192 196 187
f 53 191 194
f 191 15 177
f 194 177 49
f 191 177 194
f 52 189 186
f 189 49 176
f 186 176 14
f 189 176 186
f 53 194 196
f 194 49 189
f 196 189 52
f 194 189 196
f 4 169 236
f 169 46 238
f 236 238 66
f 169 238 236
f 46 170 244
f 170 14 242
f 244 242 68
f 170 242 244
f 66 246 237
f 246 68 243
f 237 243 21
f 246 243 237
f 46 244 238
f 244 68 246
f 238 246 66
f 244 246 238
f 14 168 232
f 168 45 234
f 232 234 65
f 168 234 232
f 45 167 229
f 167 3 227
f 229 227 63
f 167 227 229
f 65 235 233
f 235 63 228
f 233 228 20
f 235 228 233
f 45 229 234
f 229 63 235
f 234 235 65
f 229 235 234
f 21 248 240
f 248 69 251
f 240 251 67
f 248 251 240
f 69 247 249
f 247 20 231
f 249 231 64
f 247 231 249
f 67 241 239
f 241 64 230
f 239 230 7
f 241 230 239
f 69 249 251
f 249 64 241
f 251 241 67
f 249 241 251
f 14 232 242
f 232 65 245
f 242 245 68
f 232 245 242
f 65 233 250
f 233 20 247
f 250 247 69
f 233 247 250
f 68 252 243
f 252 69 248
f 243 248 21
f 252 248 243
f 65 250 245
f 250 69 252
f 245 252 68
f 250 252 245
f 4 236 292
f 236 66 294
f 292 294 82
f 236 294 292
f 66 237 299
f 237 21 297
f 299 297 84
f 237 297 299
f 82 300 293
f 300 84 298
f 293 298 26
f 300 298 293
f 66 299 294
f 299 84 300
f 294 300 82
f 299 300 294
f 21 240 308
f 240 67 310
f 308 310 87
f 240 310 308
f 67 239 303
f 239 7 301
f 303 301 85
f 239 301 303
f 87 312 309
f 312 85 302
f 309 302 27
f 312 302 309
f 67 303 310
f 303 85 312
f 310 312 87
f 303 312 310
f 26 317 296
f 317 89 319
f 296 319 83
f 317 319 296
f 89 318 321
f 318 27 306
f 321 306 86
f 318 306 321
f 83 307 295
f 307 86 305
f 295 305 9
f 307 305 295
f 89 321 319
f 321 86 307
f 319 307 83
f 321 307 319
f 21 308 297
f 308 87 311
f 297 311 84
f 308 311 297
f 87 309 322
f 309 27 318
f 322 318 89
f 309 318 322
f 84 320 298
f 320 89 317
f 298 317 26
f 320 317 298
f 87 322 311
f 322 89 320
f 311 320 84
f 322 320 311
f 4 292 367
f 292 82 370
f 367 370 100
f 292 370 367
f 82 293 379
f 293 26 377
f 379 377 103
f 293 377 379
f 100 380 368
f 380 103 378
f 368 378 30
f 380 378 368
f 82 379 370
f 379 103 380
f 370 380 100
f 379 380 370
f 26 296 446
f 296 83 448
f 446 448 118
f 296 448 446
f 83 295 436
f 295 9 433
f 436 433 115
f 295 433 436
f 118 450 447
f 450 115 434
f 447 434 33
f 450 434 447
f 83 436 448
f 436 115 450
f 448 450 118
f 436 450 448
f 30 457 372
f 457 120 459
f 372 459 101
f 457 459 372
f 120 458 461
f 458 33 438
f 461 438 116
f 458 438 461
f 101 440 371
f 440 116 437
f 371 437 10
f 440 437 371
f 120 461 459
f 461 116 440
f 459 440 101
f 461 440 459
f 26 446 377
f 446 118 449
f 377 449 103
f 446 449 377
f 118 447 462
f 447 33 458
f 462 458 120
f 447 458 462
f 103 460 378
f 460 120 457
f 378 457 30
f 460 457 378
f 118 462 449
f 462 120 460
f 449 460 103
f 462 460 449
f 5 381 223
f 381 104 384
f 223 384 61
f 381 384 223
f 104 382 396
f 382 31 394
f 396 394 107
f 382 394 396
f 61 395 224
f 395 107 393
f 224 393 19
f 395 393 224
f 104 396 384
f 396 107 395
f 384 395 61
f 396 395 384
f 31 386 427
f 386 105 429
f 427 429 114
f 386 429 427
f 105 385 410
f 385 10 407
f 410 407 110
f 385 407 410
f 114 431 428
f 431 110 408
f 428 408 32
f 431 408 428
f 105 410 429
f 410 110 431
f 429 431 114
f 410 431 429
f 19 416 226
f 416 112 418
f 226 418 62
f 416 418 226
f 112 417 420
f 417 32 404
f 420 404 109
f 417 404 420
f 62 406 225
f 406 109 403
f 225 403 6
f 406 403 225
f 112 420 418
f 420 109 406
f 418 406 62
f 420 406 418
f 31 427 394
f 427 114 430
f 394 430 107
f 427 430 394
f 114 428 432
f 428 32 417
f 432 417 112
f 428 417 432
f 107 419 393
f 419 112 416
f 393 416 19
f 419 416 393
f 114 432 430
f 432 112 419
f 430 419 107
f 432 419 430
f 3 171 547
f 171 47 549
f 547 549 142
f 171 549 547
f 47 172 555
f 172 15 553
f 555 553 144
f 172 553 555
f 142 556 548
f 556 144 554
f 548 554 39
f 556 554 548
f 47 555 549
f 555 144 556
f 549 556 142
f 555 556 549
f 15 175 568
f 175 48 570
f 568 570 148
f 175 570 568
f 48 174 563
f 174 5 561
f 563 561 146
f 174 561 563
f 148 572 569
f 572 146 562
f 569 562 40
f 572 562 569
f 48 563 570
f 563 146 572
f 570 572 148
f 563 572 570
f 39 577 552
f 577 150 579
f 552 579 143
f 577 579 552
f 150 578 581
f 578 40 566
f 581 566 147
f 578 566 581
f 143 567 551
f 567 147 565
f 551 565 12
f 567 565 551
f 150 581 579
f 581 147 567
f 579 567 143
f 581 567 579
f 15 568 553
f 568 148 571
f 553 571 144
f 568 571 553
f 148 569 582
f 569 40 578
f 582 578 150
f 569 578 582
f 144 580 554
f 580 150 577
f 554 577 39
f 580 577 554
f 148 582 571
f 582 150 580
f 571 580 144
f 582 580 571
f 7 230 481
f 230 64 483
f 481 483 127
f 230 483 481
f 64 231 490
f 231 20 488
f 490 488 129
f 231 488 490
f 127 492 482
f 492 129 489
f 482 489 36
f 492 489 482
f 64 490 483
f 490 129 492
f 483 492 127
f 490 492 483
f 20 228 477
f 228 63 479
f 477 479 126
f 228 479 477
f 63 227 474
f 227 3 472
f 474 472 124
f 227 472 474
f 126 480 478
f 480 124 473
f 478 473 35
f 480 473 478
f 63 474 479
f 474 124 480
f 479 480 126
f 474 480 479
f 36 498 486
f 498 131 501
f 486 501 128
f 498 501 486
f 131 497 499
f 497 35 476
f 499 476 125
f 497 476 499
f 128 487 485
f 487 125 475
f 485 475 11
f 487 475 485
f 131 499 501
f 499 125 487
f 501 487 128
f 499 487 501
f 20 477 488
f 477 126 491
f 488 491 129
f 477 491 488
f 126 478 500
f 478 35 497
f 500 497 131
f 478 497 500
f 129 502 489
f 502 131 498
f 489 498 36
f 502 498 489
f 126 500 491
f 500 131 502
f 491 502 129
f 500 502 491
f 9 305 327
f 305 86 330
f 327 330 91
f 305 330 327
f 86 306 349
f 306 27 347
f 349 347 95
f 306 347 349
f 91 351 328
f 351 95 348
f 328 348 28
f 351 348 328
f 86 349 330
f 349 95 351
f 330 351 91
f 349 351 330
f 27 302 314
f 302 85 316
f 314 316 88
f 302 316 314
f 85 301 304
f 301 7 279
f 304 279 77
f 301 279 304
f 88 315 313
f 315 77 280
f 313 280 24
f 315 280 313
f 85 304 316
f 304 77 315
f 316 315 88
f 304 315 316
f 28 337 324
f 337 93 340
f 324 340 90
f 337 340 324
f 93 336 338
f 336 24 282
f 338 282 78
f 336 282 338
f 90 326 323
f 326 78 281
f 323 281 8
f 326 281 323
f 93 338 340
f 338 78 326
f 340 326 90
f 338 326 340
f 27 314 347
f 314 88 350
f 347 350 95
f 314 350 347
f 88 313 339
f 313 24 336
f 339 336 93
f 313 336 339
f 95 352 348
f 352 93 337
f 348 337 28
f 352 337 348
f 88 339 350
f 339 93 352
f 350 352 95
f 339 352 350
f 10 437 357
f 437 116 439
f 357 439 97
f 437 439 357
f 116 438 455
f 438 33 452
f 455 452 119
f 438 452 455
f 97 453 358
f 453 119 451
f 358 451 29
f 453 451 358
f 116 455 439
f 455 119 453
f 439 453 97
f 455 453 439
f 33 434 442
f 434 115 445
f 442 445 117
f 434 445 442
f 115 433 435
f 433 9 286
f 435 286 80
f 433 286 435
f 117 443 441
f 443 80 287
f 441 287 25
f 443 287 441
f 115 435 445
f 435 80 443
f 445 443 117
f 435 443 445
f 29 364 354
f 364 99 366
f 354 366 96
f 364 366 354
f 99 363 365
f 363 25 284
f 365 284 79
f 363 284 365
f 96 356 353
f 356 79 283
f 353 283 2
f 356 283 353
f 99 365 366
f 365 79 356
f 366 356 96
f 365 356 366
f 33 442 452
f 442 117 456
f 452 456 119
f 442 456 452
f 117 441 444
f 441 25 363
f 444 363 99
f 441 363 444
f 119 454 451
f 454 99 364
f 451 364 29
f 454 364 451
f 117 444 456
f 444 99 454
f 456 454 119
f 444 454 456

