# https://github.com/mikedh/trimesh
v -0.67977782 0.31727334 0.31000000
v -0.28022218 0.31727334 0.31000000
v -0.67977782 -0.39727334 0.31000000
v -0.28022218 -0.39727334 0.31000000
v -0.48000000 -0.26080707 0.52266270
v -0.48000000 0.18080707 0.52266270
v -0.48000000 -0.26080707 0.09733730
v -0.48000000 0.18080707 0.09733730
v -0.15675269 -0.04000000 0.17856722
v -0.15675269 -0.04000000 0.44143278
v -0.80324731 -0.04000000 0.17856722
v -0.80324731 -0.04000000 0.44143278
v -0.48000000 0.38000000 0.31000000
v -0.48000000 -0.46000000 0.31000000
v -0.59742646 -0.37978714 0.43500000
v -0.36257354 -0.37978714 0.43500000
v -0.59742646 0.29978714 0.43500000
v -0.36257354 0.29978714 0.43500000
v -0.48000000 -0.04000000 0.56000000
v -0.59742646 -0.37978714 0.18500000
v -0.36257354 -0.37978714 0.18500000
v -0.59742646 0.29978714 0.18500000
v -0.36257354 0.29978714 0.18500000
v -0.48000000 -0.04000000 0.06000000
v -0.17257354 0.17000000 0.23274575
v -0.17257354 -0.25000000 0.23274575
v -0.29000000 -0.16978714 0.10774575
v -0.29000000 0.08978714 0.10774575
v -0.17257354 0.17000000 0.38725425
v -0.17257354 -0.25000000 0.38725425
v -0.29000000 -0.16978714 0.51225425
v -0.29000000 0.08978714 0.51225425
v -0.10000000 -0.04000000 0.31000000
v -0.78742646 0.17000000 0.23274575
v -0.78742646 -0.25000000 0.23274575
v -0.67000000 -0.16978714 0.10774575
v -0.67000000 0.08978714 0.10774575
v -0.78742646 0.17000000 0.38725425
v -0.78742646 -0.25000000 0.38725425
v -0.67000000 -0.16978714 0.51225425
v -0.67000000 0.08978714 0.51225425
v -0.86000000 -0.04000000 0.31000000
v -0.58384128 0.36401411 0.31000000
v -0.37615872 0.36401411 0.31000000
v -0.58384128 -0.44401411 0.31000000
v -0.37615872 -0.44401411 0.31000000
v -0.64487765 -0.40232076 0.37497298
v -0.54103637 -0.33138780 0.48551161
v -0.54173474 -0.43944374 0.37571639
v -0.31512235 -0.40232076 0.37497298
v -0.41896363 -0.33138780 0.48551161
v -0.41826526 -0.43944374 0.37571639
v -0.48000000 -0.39727334 0.44143278
v -0.64487765 0.32232076 0.37497298
v -0.54103637 0.25138780 0.48551161
v -0.54173474 0.35944374 0.37571639
v -0.31512235 0.32232076 0.37497298
v -0.41896363 0.25138780 0.48551161
v -0.41826526 0.35944374 0.37571639
v -0.48000000 0.31727334 0.44143278
v -0.48000000 -0.15477194 0.55048459
v -0.48000000 0.07477194 0.55048459
v -0.64487765 -0.40232076 0.24502702
v -0.54103637 -0.33138780 0.13448839
v -0.54173474 -0.43944374 0.24428361
v -0.31512235 -0.40232076 0.24502702
v -0.41896363 -0.33138780 0.13448839
v -0.41826526 -0.43944374 0.24428361
v -0.48000000 -0.39727334 0.17856722
v -0.64487765 0.32232076 0.24502702
v -0.54103637 0.25138780 0.13448839
v -0.54173474 0.35944374 0.24428361
v -0.31512235 0.32232076 0.24502702
v -0.41896363 0.25138780 0.13448839
v -0.41826526 0.35944374 0.24428361
v -0.48000000 0.31727334 0.17856722
v -0.48000000 -0.15477194 0.06951541
v -0.48000000 0.07477194 0.06951541
v -0.21636342 0.25485951 0.26984449
v -0.15218598 0.06915460 0.20152786
v -0.25664160 0.24904020 0.20366865
v -0.21636342 -0.33485951 0.26984449
v -0.15218598 -0.14915460 0.20152786
v -0.25664160 -0.32904020 0.20366865
v -0.38124107 -0.22223320 0.09433288
v -0.21322235 -0.10746125 0.13655488
v -0.31837635 -0.28686981 0.13795226
v -0.38011109 -0.10823314 0.07223587
v -0.21848744 -0.21863667 0.16305369
v -0.38124107 0.14223320 0.09433288
v -0.21322235 0.02746125 0.13655488
v -0.31837635 0.20686981 0.13795226
v -0.38011109 0.02823314 0.07223587
v -0.21848744 0.13863667 0.16305369
v -0.28022218 -0.04000000 0.09733730
v -0.21636342 0.25485951 0.35015551
v -0.15218598 0.06915460 0.41847214
v -0.25664160 0.24904020 0.41633135
v -0.15675269 0.18080707 0.31000000
v -0.21636342 -0.33485951 0.35015551
v -0.15218598 -0.14915460 0.41847214
v -0.25664160 -0.32904020 0.41633135
v -0.15675269 -0.26080707 0.31000000
v -0.38124107 -0.22223320 0.52566712
v -0.21322235 -0.10746125 0.48344512
v -0.31837635 -0.28686981 0.48204774
v -0.38011109 -0.10823314 0.54776413
v -0.21848744 -0.21863667 0.45694631
v -0.38124107 0.14223320 0.52566712
v -0.21322235 0.02746125 0.48344512
v -0.31837635 0.20686981 0.48204774
v -0.38011109 0.02823314 0.54776413
v -0.21848744 0.13863667 0.45694631
v -0.28022218 -0.04000000 0.52266270
v -0.11446342 -0.04000000 0.24168337
v -0.11446342 -0.04000000 0.37831663
v -0.11859852 0.07040353 0.26938504
v -0.11859852 -0.15040353 0.26938504
v -0.11859852 0.07040353 0.35061496
v -0.11859852 -0.15040353 0.35061496
v -0.74363658 0.25485951 0.26984449
v -0.80781402 0.06915460 0.20152786
v -0.70335840 0.24904020 0.20366865
v -0.74363658 -0.33485951 0.26984449
v -0.80781402 -0.14915460 0.20152786
v -0.70335840 -0.32904020 0.20366865
v -0.57875893 -0.22223320 0.09433288
v -0.74677765 -0.10746125 0.13655488
v -0.64162365 -0.28686981 0.13795226
v -0.57988891 -0.10823314 0.07223587
v -0.74151256 -0.21863667 0.16305369
v -0.57875893 0.14223320 0.09433288
v -0.74677765 0.02746125 0.13655488
v -0.64162365 0.20686981 0.13795226
v -0.57988891 0.02823314 0.07223587
v -0.74151256 0.13863667 0.16305369
v -0.67977782 -0.04000000 0.09733730
v -0.74363658 0.25485951 0.35015551
v -0.80781402 0.06915460 0.41847214
v -0.70335840 0.24904020 0.41633135
v -0.80324731 0.18080707 0.31000000
v -0.74363658 -0.33485951 0.35015551
v -0.80781402 -0.14915460 0.41847214
v -0.70335840 -0.32904020 0.41633135
v -0.80324731 -0.26080707 0.31000000
v -0.57875893 -0.22223320 0.52566712
v -0.74677765 -0.10746125 0.48344512
v -0.64162365 -0.28686981 0.48204774
v -0.57988891 -0.10823314 0.54776413
v -0.74151256 -0.21863667 0.45694631
v -0.57875893 0.14223320 0.52566712
v -0.74677765 0.02746125 0.48344512
v -0.64162365 0.20686981 0.48204774
v -0.57988891 0.02823314 0.54776413
v -0.74151256 0.13863667 0.45694631
v -0.67977782 -0.04000000 0.52266270
v -0.84553658 -0.04000000 0.24168337
v -0.84553658 -0.04000000 0.37831663
v -0.84140148 0.07040353 0.26938504
v -0.84140148 -0.15040353 0.26938504
v -0.84140148 0.07040353 0.35061496
v -0.84140148 -0.15040353 0.35061496
v -0.63327503 0.34431824 0.31000000
v -0.53242185 0.37598433 0.31000000
v -0.32672497 0.34431824 0.31000000
v -0.42757815 0.37598433 0.31000000
v -0.63327503 -0.42431824 0.31000000
v -0.53242185 -0.45598433 0.31000000
v -0.32672497 -0.42431824 0.31000000
v -0.42757815 -0.45598433 0.31000000
v -0.66408782 -0.40327032 0.34280009
v -0.62251466 -0.39444282 0.40590343
v -0.61612694 -0.42820793 0.34291384
v -0.51081279 -0.29856965 0.50596076
v -0.57009280 -0.35863397 0.46170629
v -0.51125214 -0.45482910 0.34326778
v -0.57069723 -0.41422274 0.40654685
v -0.56364447 -0.44588489 0.34319812
v -0.59447837 -0.42482255 0.37602069
v -0.29591218 -0.40327032 0.34280009
v -0.33748534 -0.39444282 0.40590343
v -0.34387306 -0.42820793 0.34291384
v -0.44918721 -0.29856965 0.50596076
v -0.38990720 -0.35863397 0.46170629
v -0.48000000 -0.33522095 0.48782043
v -0.44874786 -0.45482910 0.34326778
v -0.38930277 -0.41422274 0.40654685
v -0.39635553 -0.44588489 0.34319812
v -0.48000000 -0.44482173 0.37660118
v -0.36552163 -0.42482255 0.37602069
v -0.53944510 -0.39287471 0.43981462
v -0.42055490 -0.39287471 0.43981462
v -0.51083390 -0.36768584 0.46505990
v -0.51128296 -0.42345265 0.40990176
v -0.44916610 -0.36768584 0.46505990
v -0.44871704 -0.42345265 0.40990176
v -0.66408782 0.32327032 0.34280009
v -0.62251466 0.31444282 0.40590343
v -0.61612694 0.34820793 0.34291384
v -0.51081279 0.21856965 0.50596076
v -0.57009280 0.27863397 0.46170629
v -0.51125214 0.37482910 0.34326778
v -0.57069723 0.33422274 0.40654685
v -0.56364447 0.36588489 0.34319812
v -0.59447837 0.34482255 0.37602069
v -0.29591218 0.32327032 0.34280009
v -0.33748534 0.31444282 0.40590343
v -0.34387306 0.34820793 0.34291384
v -0.44918721 0.21856965 0.50596076
v -0.38990720 0.27863397 0.46170629
v -0.48000000 0.25522095 0.48782043
v -0.44874786 0.37482910 0.34326778
v -0.38930277 0.33422274 0.40654685
v -0.39635553 0.36588489 0.34319812
v -0.48000000 0.36482173 0.37660118
v -0.36552163 0.34482255 0.37602069
v -0.53944510 0.31287471 0.43981462
v -0.42055490 0.31287471 0.43981462
v -0.51083390 0.28768584 0.46505990
v -0.51128296 0.34345265 0.40990176
v -0.44916610 0.28768584 0.46505990
v -0.44871704 0.34345265 0.40990176
v -0.48000000 -0.20940925 0.53876086
v -0.48000000 -0.09793994 0.55760972
v -0.48000000 0.12940925 0.53876086
v -0.48000000 0.01793994 0.55760972
v -0.66408782 -0.40327032 0.27719991
v -0.62251466 -0.39444282 0.21409657
v -0.61612694 -0.42820793 0.27708616
v -0.51081279 -0.29856965 0.11403924
v -0.57009280 -0.35863397 0.15829371
v -0.51125214 -0.45482910 0.27673222
v -0.57069723 -0.41422274 0.21345315
v -0.56364447 -0.44588489 0.27680188
v -0.59447837 -0.42482255 0.24397931
v -0.29591218 -0.40327032 0.27719991
v -0.33748534 -0.39444282 0.21409657
v -0.34387306 -0.42820793 0.27708616
v -0.44918721 -0.29856965 0.11403924
v -0.38990720 -0.35863397 0.15829371
v -0.48000000 -0.33522095 0.13217957
v -0.44874786 -0.45482910 0.27673222
v -0.38930277 -0.41422274 0.21345315
v -0.39635553 -0.44588489 0.27680188
v -0.48000000 -0.44482173 0.24339882
v -0.36552163 -0.42482255 0.24397931
v -0.53944510 -0.39287471 0.18018538
v -0.42055490 -0.39287471 0.18018538
v -0.51083390 -0.36768584 0.15494010
v -0.51128296 -0.42345265 0.21009824
v -0.44916610 -0.36768584 0.15494010
v -0.44871704 -0.42345265 0.21009824
v -0.66408782 0.32327032 0.27719991
v -0.62251466 0.31444282 0.21409657
v -0.61612694 0.34820793 0.27708616
v -0.51081279 0.21856965 0.11403924
v -0.57009280 0.27863397 0.15829371
v -0.51125214 0.37482910 0.27673222
v -0.57069723 0.33422274 0.21345315
v -0.56364447 0.36588489 0.27680188
v -0.59447837 0.34482255 0.24397931
v -0.29591218 0.32327032 0.27719991
v -0.33748534 0.31444282 0.21409657
v -0.34387306 0.34820793 0.27708616
v -0.44918721 0.21856965 0.11403924
v -0.38990720 0.27863397 0.15829371
v -0.48000000 0.25522095 0.13217957
v -0.44874786 0.37482910 0.27673222
v -0.38930277 0.33422274 0.21345315
v -0.39635553 0.36588489 0.27680188
v -0.48000000 0.36482173 0.24339882
v -0.36552163 0.34482255 0.24397931
v -0.53944510 0.31287471 0.18018538
v -0.42055490 0.31287471 0.18018538
v -0.51083390 0.28768584 0.15494010
v -0.51128296 0.34345265 0.21009824
v -0.44916610 0.28768584 0.15494010
v -0.44871704 0.34345265 0.21009824
v -0.48000000 -0.20940925 0.08123914
v -0.48000000 -0.09793994 0.06239028
v -0.48000000 0.12940925 0.08123914
v -0.48000000 0.01793994 0.06239028
v -0.24605603 0.28921408 0.28972843
v -0.19171213 0.21486656 0.25072842
v -0.26292437 0.29291268 0.25674428
v -0.15132685 0.01510416 0.18888959
v -0.15931364 0.12111777 0.21624036
v -0.30748361 0.27833288 0.19289254
v -0.21129942 0.21263040 0.21706299
v -0.28387378 0.28904971 0.22346175
v -0.23398348 0.25497014 0.23599885
v -0.24605603 -0.36921408 0.28972843
v -0.19171213 -0.29486656 0.25072842
v -0.26292437 -0.37291268 0.25674428
v -0.15132685 -0.09510416 0.18888959
v -0.15931364 -0.20111777 0.21624036
v -0.30748361 -0.35833288 0.19289254
v -0.21129942 -0.29263040 0.21706299
v -0.28387378 -0.36904971 0.22346175
v -0.23398348 -0.33497014 0.23599885
v -0.43014386 -0.24346549 0.09376767
v -0.33422678 -0.19751620 0.09902213
v -0.39905131 -0.27992570 0.11183769
v -0.42997096 -0.19045609 0.07892385
v -0.18213964 -0.07405624 0.15608949
v -0.24940644 -0.13957626 0.12033692
v -0.17879329 -0.12946960 0.16718709
v -0.33873575 -0.33698485 0.15962476
v -0.30199666 -0.23067601 0.12051614
v -0.36751825 -0.31191300 0.13442254
v -0.28491733 -0.31156267 0.16893645
v -0.34846185 -0.25677108 0.11413708
v -0.42943298 -0.07454184 0.06307791
v -0.33324879 -0.14024431 0.08724837
v -0.42953886 -0.13244915 0.06840185
v -0.37964855 -0.16652873 0.08093896
v -0.19198454 -0.23674054 0.19650238
v -0.25142964 -0.19613417 0.13322330
v -0.18228835 -0.18538427 0.18096959
v -0.23430044 -0.27698677 0.18165614
v -0.21312226 -0.16432193 0.14814703
v -0.26558340 -0.25561769 0.14835555
v -0.43014386 0.16346549 0.09376767
v -0.33422678 0.11751620 0.09902213
v -0.39905131 0.19992570 0.11183769
v -0.42997096 0.11045609 0.07892385
v -0.18213964 -0.00594376 0.15608949
v -0.24940644 0.05957626 0.12033692
v -0.17879329 0.04946960 0.16718709
v -0.20971294 -0.04000000 0.13427324
v -0.33873575 0.25698485 0.15962476
v -0.30199666 0.15067601 0.12051614
v -0.36751825 0.23191300 0.13442254
v -0.28491733 0.23156267 0.16893645
v -0.34846185 0.17677108 0.11413708
v -0.42943298 -0.00545816 0.06307791
v -0.33324879 0.06024431 0.08724837
v -0.42953886 0.05244915 0.06840185
v -0.37876621 -0.04000000 0.06903468
v -0.37964855 0.08652873 0.08093896
v -0.19198454 0.15674054 0.19650238
v -0.25142964 0.11613417 0.13322330
v -0.18228835 0.10538427 0.18096959
v -0.23430044 0.19698677 0.18165614
v -0.21312226 0.08432193 0.14814703
v -0.26558340 0.17561769 0.14835555
v -0.28268177 -0.10570248 0.09995553
v -0.28268177 0.02570248 0.09995553
v -0.24430896 -0.07407958 0.11494891
v -0.32814932 -0.07457590 0.08175438
v -0.24430896 -0.00592042 0.11494891
v -0.32814932 -0.00542410 0.08175438
v -0.24605603 0.28921408 0.33027157
v -0.19171213 0.21486656 0.36927158
v -0.26292437 0.29291268 0.36325572
v -0.21289533 0.25873833 0.31000000
v -0.15132685 0.01510416 0.43111041
v -0.15931364 0.12111777 0.40375964
v -0.30748361 0.27833288 0.42710746
v -0.21129942 0.21263040 0.40293701
v -0.28387378 0.28904971 0.39653825
v -0.23398348 0.25497014 0.38400115
v -0.16073240 0.17808857 0.27089138
v -0.16073240 0.17808857 0.34910862
v -0.18352234 0.22050062 0.28971454
v -0.18352234 0.22050062 0.33028546
v -0.24605603 -0.36921408 0.33027157
v -0.19171213 -0.29486656 0.36927158
v -0.26292437 -0.37291268 0.36325572
v -0.21289533 -0.33873833 0.31000000
v -0.15132685 -0.09510416 0.43111041
v -0.15931364 -0.20111777 0.40375964
v -0.30748361 -0.35833288 0.42710746
v -0.21129942 -0.29263040 0.40293701
v -0.28387378 -0.36904971 0.39653825
v -0.23398348 -0.33497014 0.38400115
v -0.16073240 -0.25808857 0.27089138
v -0.16073240 -0.25808857 0.34910862
v -0.18352234 -0.30050062 0.28971454
v -0.18352234 -0.30050062 0.33028546
v -0.43014386 -0.24346549 0.52623233
v -0.33422678 -0.19751620 0.52097787
v -0.39905131 -0.27992570 0.50816231
v -0.42997096 -0.19045609 0.54107615
v -0.18213964 -0.07405624 0.46391051
v -0.24940644 -0.13957626 0.49966308
v -0.17879329 -0.12946960 0.45281291
v -0.33873575 -0.33698485 0.46037524
v -0.30199666 -0.23067601 0.49948386
v -0.36751825 -0.31191300 0.48557746
v -0.28491733 -0.31156267 0.45106355
v -0.34846185 -0.25677108 0.50586292
v -0.42943298 -0.07454184 0.55692209
v -0.33324879 -0.14024431 0.53275163
v -0.42953886 -0.13244915 0.55159815
v -0.37964855 -0.16652873 0.53906104
v -0.19198454 -0.23674054 0.42349762
v -0.25142964 -0.19613417 0.48677670
v -0.18228835 -0.18538427 0.43903041
v -0.23430044 -0.27698677 0.43834386
v -0.21312226 -0.16432193 0.47185297
v -0.26558340 -0.25561769 0.47164445
v -0.43014386 0.16346549 0.52623233
v -0.33422678 0.11751620 0.52097787
v -0.39905131 0.19992570 0.50816231
v -0.42997096 0.11045609 0.54107615
v -0.18213964 -0.00594376 0.46391051
v -0.24940644 0.05957626 0.49966308
v -0.17879329 0.04946960 0.45281291
v -0.20971294 -0.04000000 0.48572676
v -0.33873575 0.25698485 0.46037524
v -0.30199666 0.15067601 0.49948386
v -0.36751825 0.23191300 0.48557746
v -0.28491733 0.23156267 0.45106355
v -0.34846185 0.17677108 0.50586292
v -0.42943298 -0.00545816 0.55692209
v -0.33324879 0.06024431 0.53275163
v -0.42953886 0.05244915 0.55159815
v -0.37876621 -0.04000000 0.55096532
v -0.37964855 0.08652873 0.53906104
v -0.19198454 0.15674054 0.42349762
v -0.25142964 0.11613417 0.48677670
v -0.18228835 0.10538427 0.43903041
v -0.23430044 0.19698677 0.43834386
v -0.21312226 0.08432193 0.47185297
v -0.26558340 0.17561769 0.47164445
v -0.28268177 -0.10570248 0.52004447
v -0.28268177 0.02570248 0.52004447
v -0.24430896 -0.07407958 0.50505109
v -0.32814932 -0.07457590 0.53824562
v -0.24430896 -0.00592042 0.50505109
v -0.32814932 -0.00542410 0.53824562
v -0.13228350 -0.04000000 0.20916116
v -0.10363322 -0.04000000 0.27551194
v -0.12876425 0.01529526 0.22044280
v -0.12876425 -0.09529526 0.22044280
v -0.13228350 -0.04000000 0.41083884
v -0.10363322 -0.04000000 0.34448806
v -0.12876425 0.01529526 0.39955720
v -0.12876425 -0.09529526 0.39955720
v -0.14141752 0.12219870 0.25033077
v -0.10467843 0.01588986 0.28943938
v -0.13182721 0.07091476 0.23468528
v -0.13306665 0.12783496 0.28941910
v -0.11277081 0.01577284 0.25497074
v -0.14141752 -0.20219870 0.25033077
v -0.10467843 -0.09588986 0.28943938
v -0.13182721 -0.15091476 0.23468528
v -0.13306665 -0.20783496 0.28941910
v -0.11277081 -0.09577284 0.25497074
v -0.14141752 0.12219870 0.36966923
v -0.10467843 0.01588986 0.33056062
v -0.13182721 0.07091476 0.38531472
v -0.13306665 0.12783496 0.33058090
v -0.11277081 0.01577284 0.36502926
v -0.11373272 0.07188997 0.31000000
v -0.14141752 -0.20219870 0.36966923
v -0.10467843 -0.09588986 0.33056062
v -0.13182721 -0.15091476 0.38531472
v -0.13306665 -0.20783496 0.33058090
v -0.11277081 -0.09577284 0.36502926
v -0.11373272 -0.15188997 0.31000000
v -0.71394397 0.28921408 0.28972843
v -0.76828787 0.21486656 0.25072842
v -0.69707563 0.29291268 0.25674428
v -0.80867315 0.01510416 0.18888959
v -0.80068636 0.12111777 0.21624036
v -0.65251639 0.27833288 0.19289254
v -0.74870058 0.21263040 0.21706299
v -0.67612622 0.28904971 0.22346175
v -0.72601652 0.25497014 0.23599885
v -0.71394397 -0.36921408 0.28972843
v -0.76828787 -0.29486656 0.25072842
v -0.69707563 -0.37291268 0.25674428
v -0.80867315 -0.09510416 0.18888959
v -0.80068636 -0.20111777 0.21624036
v -0.65251639 -0.35833288 0.19289254
v -0.74870058 -0.29263040 0.21706299
v -0.67612622 -0.36904971 0.22346175
v -0.72601652 -0.33497014 0.23599885
v -0.52985614 -0.24346549 0.09376767
v -0.62577322 -0.19751620 0.09902213
v -0.56094869 -0.27992570 0.11183769
v -0.53002904 -0.19045609 0.07892385
v -0.77786036 -0.07405624 0.15608949
v -0.71059356 -0.13957626 0.12033692
v -0.78120671 -0.12946960 0.16718709
v -0.62126425 -0.33698485 0.15962476
v -0.65800334 -0.23067601 0.12051614
v -0.59248175 -0.31191300 0.13442254
v -0.67508267 -0.31156267 0.16893645
v -0.61153815 -0.25677108 0.11413708
v -0.53056702 -0.07454184 0.06307791
v -0.62675121 -0.14024431 0.08724837
v -0.53046114 -0.13244915 0.06840185
v -0.58035145 -0.16652873 0.08093896
v -0.76801546 -0.23674054 0.19650238
v -0.70857036 -0.19613417 0.13322330
v -0.77771165 -0.18538427 0.18096959
v -0.72569956 -0.27698677 0.18165614
v -0.74687774 -0.16432193 0.14814703
v -0.69441660 -0.25561769 0.14835555
v -0.52985614 0.16346549 0.09376767
v -0.62577322 0.11751620 0.09902213
v -0.56094869 0.19992570 0.11183769
v -0.53002904 0.11045609 0.07892385
v -0.77786036 -0.00594376 0.15608949
v -0.71059356 0.05957626 0.12033692
v -0.78120671 0.04946960 0.16718709
v -0.75028706 -0.04000000 0.13427324
v -0.62126425 0.25698485 0.15962476
v -0.65800334 0.15067601 0.12051614
v -0.59248175 0.23191300 0.13442254
v -0.67508267 0.23156267 0.16893645
v -0.61153815 0.17677108 0.11413708
v -0.53056702 -0.00545816 0.06307791
v -0.62675121 0.06024431 0.08724837
v -0.53046114 0.05244915 0.06840185
v -0.58123379 -0.04000000 0.06903468
v -0.58035145 0.08652873 0.08093896
v -0.76801546 0.15674054 0.19650238
v -0.70857036 0.11613417 0.13322330
v -0.77771165 0.10538427 0.18096959
v -0.72569956 0.19698677 0.18165614
v -0.74687774 0.08432193 0.14814703
v -0.69441660 0.17561769 0.14835555
v -0.67731823 -0.10570248 0.09995553
v -0.67731823 0.02570248 0.09995553
v -0.71569104 -0.07407958 0.11494891
v -0.63185068 -0.07457590 0.08175438
v -0.71569104 -0.00592042 0.11494891
v -0.63185068 -0.00542410 0.08175438
v -0.71394397 0.28921408 0.33027157
v -0.76828787 0.21486656 0.36927158
v -0.69707563 0.29291268 0.36325572
v -0.74710467 0.25873833 0.31000000
v -0.80867315 0.01510416 0.43111041
v -0.80068636 0.12111777 0.40375964
v -0.65251639 0.27833288 0.42710746
v -0.74870058 0.21263040 0.40293701
v -0.67612622 0.28904971 0.39653825
v -0.72601652 0.25497014 0.38400115
v -0.79926760 0.17808857 0.27089138
v -0.79926760 0.17808857 0.34910862
v -0.77647766 0.22050062 0.28971454
v -0.77647766 0.22050062 0.33028546
v -0.71394397 -0.36921408 0.33027157
v -0.76828787 -0.29486656 0.36927158
v -0.69707563 -0.37291268 0.36325572
v -0.74710467 -0.33873833 0.31000000
v -0.80867315 -0.09510416 0.43111041
v -0.80068636 -0.20111777 0.40375964
v -0.65251639 -0.35833288 0.42710746
v -0.74870058 -0.29263040 0.40293701
v -0.67612622 -0.36904971 0.39653825
v -0.72601652 -0.33497014 0.38400115
v -0.79926760 -0.25808857 0.27089138
v -0.79926760 -0.25808857 0.34910862
v -0.77647766 -0.30050062 0.28971454
v -0.77647766 -0.30050062 0.33028546
v -0.52985614 -0.24346549 0.52623233
v -0.62577322 -0.19751620 0.52097787
v -0.56094869 -0.27992570 0.50816231
v -0.53002904 -0.19045609 0.54107615
v -0.77786036 -0.07405624 0.46391051
v -0.71059356 -0.13957626 0.49966308
v -0.78120671 -0.12946960 0.45281291
v -0.62126425 -0.33698485 0.46037524
v -0.65800334 -0.23067601 0.49948386
v -0.59248175 -0.31191300 0.48557746
v -0.67508267 -0.31156267 0.45106355
v -0.61153815 -0.25677108 0.50586292
v -0.53056702 -0.07454184 0.55692209
v -0.62675121 -0.14024431 0.53275163
v -0.53046114 -0.13244915 0.55159815
v -0.58035145 -0.16652873 0.53906104
v -0.76801546 -0.23674054 0.42349762
v -0.70857036 -0.19613417 0.48677670
v -0.77771165 -0.18538427 0.43903041
v -0.72569956 -0.27698677 0.43834386
v -0.74687774 -0.16432193 0.47185297
v -0.69441660 -0.25561769 0.47164445
v -0.52985614 0.16346549 0.52623233
v -0.62577322 0.11751620 0.52097787
v -0.56094869 0.19992570 0.50816231
v -0.53002904 0.11045609 0.54107615
v -0.77786036 -0.00594376 0.46391051
v -0.71059356 0.05957626 0.49966308
v -0.78120671 0.04946960 0.45281291
v -0.75028706 -0.04000000 0.48572676
v -0.62126425 0.25698485 0.46037524
v -0.65800334 0.15067601 0.49948386
v -0.59248175 0.23191300 0.48557746
v -0.67508267 0.23156267 0.45106355
v -0.61153815 0.17677108 0.50586292
v -0.53056702 -0.00545816 0.55692209
v -0.62675121 0.06024431 0.53275163
v -0.53046114 0.05244915 0.55159815
v -0.58123379 -0.04000000 0.55096532
v -0.58035145 0.08652873 0.53906104
v -0.76801546 0.15674054 0.42349762
v -0.70857036 0.11613417 0.48677670
v -0.77771165 0.10538427 0.43903041
v -0.72569956 0.19698677 0.43834386
v -0.74687774 0.08432193 0.47185297
v -0.69441660 0.17561769 0.47164445
v -0.67731823 -0.10570248 0.52004447
v -0.67731823 0.02570248 0.52004447
v -0.71569104 -0.07407958 0.50505109
v -0.63185068 -0.07457590 0.53824562
v -0.71569104 -0.00592042 0.50505109
v -0.63185068 -0.00542410 0.53824562
v -0.82771650 -0.04000000 0.20916116
v -0.85636678 -0.04000000 0.27551194
v -0.83123575 0.01529526 0.22044280
v -0.83123575 -0.09529526 0.22044280
v -0.82771650 -0.04000000 0.41083884
v -0.85636678 -0.04000000 0.34448806
v -0.83123575 0.01529526 0.39955720
v -0.83123575 -0.09529526 0.39955720
v -0.81858248 0.12219870 0.25033077
v -0.85532157 0.01588986 0.28943938
v -0.82817279 0.07091476 0.23468528
v -0.82693335 0.12783496 0.28941910
v -0.84722919 0.01577284 0.25497074
v -0.81858248 -0.20219870 0.25033077
v -0.85532157 -0.09588986 0.28943938
v -0.82817279 -0.15091476 0.23468528
v -0.82693335 -0.20783496 0.28941910
v -0.84722919 -0.09577284 0.25497074
v -0.81858248 0.12219870 0.36966923
v -0.85532157 0.01588986 0.33056062
v -0.82817279 0.07091476 0.38531472
v -0.82693335 0.12783496 0.33058090
v -0.84722919 0.01577284 0.36502926
v -0.84626728 0.07188997 0.31000000
v -0.81858248 -0.20219870 0.36966923
v -0.85532157 -0.09588986 0.33056062
v -0.82817279 -0.15091476 0.38531472
v -0.82693335 -0.20783496 0.33058090
v -0.84722919 -0.09577284 0.36502926
v -0.84626728 -0.15188997 0.31000000
f 1 533 197
f 533 138 535
f 197 535 54
f 533 535 197
f 138 534 542
f 534 38 540
f 542 540 140
f 534 540 542
f 54 541 198
f 541 140 539
f 198 539 17
f 541 539 198
f 138 542 535
f 542 140 541
f 535 541 54
f 542 541 535
f 38 538 601
f 538 139 603
f 601 603 155
f 538 603 601
f 139 537 589
f 537 12 587
f 589 587 152
f 537 587 589
f 155 605 602
f 605 152 588
f 602 588 41
f 605 588 602
f 139 589 603
f 589 152 605
f 603 605 155
f 589 605 603
f 17 591 201
f 591 153 593
f 201 593 55
f 591 593 201
f 153 592 595
f 592 41 584
f 595 584 151
f 592 584 595
f 55 585 200
f 585 151 583
f 200 583 6
f 585 583 200
f 153 595 593
f 595 151 585
f 593 585 55
f 595 585 593
f 38 601 540
f 601 155 604
f 540 604 140
f 601 604 540
f 155 602 606
f 602 41 592
f 606 592 153
f 602 592 606
f 140 594 539
f 594 153 591
f 539 591 17
f 594 591 539
f 155 606 604
f 606 153 594
f 604 594 140
f 606 594 604
f 1 197 163
f 197 54 199
f 163 199 43
f 197 199 163
f 54 198 205
f 198 17 203
f 205 203 56
f 198 203 205
f 43 204 164
f 204 56 202
f 164 202 13
f 204 202 164
f 54 205 199
f 205 56 204
f 199 204 43
f 205 204 199
f 17 201 217
f 201 55 219
f 217 219 60
f 201 219 217
f 55 200 211
f 200 6 209
f 211 209 58
f 200 209 211
f 60 221 218
f 221 58 210
f 218 210 18
f 221 210 218
f 55 211 219
f 211 58 221
f 219 221 60
f 211 221 219
f 13 212 166
f 212 59 214
f 166 214 44
f 212 214 166
f 59 213 216
f 213 18 207
f 216 207 57
f 213 207 216
f 44 208 165
f 208 57 206
f 165 206 2
f 208 206 165
f 59 216 214
f 216 57 208
f 214 208 44
f 216 208 214
f 17 217 203
f 217 60 220
f 203 220 56
f 217 220 203
f 60 218 222
f 218 18 213
f 222 213 59
f 218 213 222
f 56 215 202
f 215 59 212
f 202 212 13
f 215 212 202
f 60 222 220
f 222 59 215
f 220 215 56
f 222 215 220
f 1 163 253
f 163 43 255
f 253 255 70
f 163 255 253
f 43 164 260
f 164 13 258
f 260 258 72
f 164 258 260
f 70 261 254
f 261 72 259
f 254 259 22
f 261 259 254
f 43 260 255
f 260 72 261
f 255 261 70
f 260 261 255
f 13 166 268
f 166 44 270
f 268 270 75
f 166 270 268
f 44 165 264
f 165 2 262
f 264 262 73
f 165 262 264
f 75 272 269
f 272 73 263
f 269 263 23
f 272 263 269
f 44 264 270
f 264 73 272
f 270 272 75
f 264 272 270
f 22 273 257
f 273 76 275
f 257 275 71
f 273 275 257
f 76 274 277
f 274 23 266
f 277 266 74
f 274 266 277
f 71 267 256
f 267 74 265
f 256 265 8
f 267 265 256
f 76 277 275
f 277 74 267
f 275 267 71
f 277 267 275
f 13 268 258
f 268 75 271
f 258 271 72
f 268 271 258
f 75 269 278
f 269 23 274
f 278 274 76
f 269 274 278
f 72 276 259
f 276 76 273
f 259 273 22
f 276 273 259
f 75 278 271
f 278 76 276
f 271 276 72
f 278 276 271
f 1 253 463
f 253 70 465
f 463 465 121
f 253 465 463
f 70 254 470
f 254 22 468
f 470 468 123
f 254 468 470
f 121 471 464
f 471 123 469
f 464 469 34
f 471 469 464
f 70 470 465
f 470 123 471
f 465 471 121
f 470 471 465
f 22 257 511
f 257 71 513
f 511 513 134
f 257 513 511
f 71 256 505
f 256 8 503
f 505 503 132
f 256 503 505
f 134 515 512
f 515 132 504
f 512 504 37
f 515 504 512
f 71 505 513
f 505 132 515
f 513 515 134
f 505 515 513
f 34 521 467
f 521 136 523
f 467 523 122
f 521 523 467
f 136 522 525
f 522 37 508
f 525 508 133
f 522 508 525
f 122 509 466
f 509 133 507
f 466 507 11
f 509 507 466
f 136 525 523
f 525 133 509
f 523 509 122
f 525 509 523
f 22 511 468
f 511 134 514
f 468 514 123
f 511 514 468
f 134 512 526
f 512 37 522
f 526 522 136
f 512 522 526
f 123 524 469
f 524 136 521
f 469 521 34
f 524 521 469
f 134 526 514
f 526 136 524
f 514 524 123
f 526 524 514
f 1 463 533
f 463 121 536
f 533 536 138
f 463 536 533
f 121 464 545
f 464 34 543
f 545 543 141
f 464 543 545
f 138 546 534
f 546 141 544
f 534 544 38
f 546 544 534
f 121 545 536
f 545 141 546
f 536 546 138
f 545 546 536
f 34 467 621
f 467 122 623
f 621 623 159
f 467 623 621
f 122 466 615
f 466 11 613
f 615 613 157
f 466 613 615
f 159 625 622
f 625 157 614
f 622 614 42
f 625 614 622
f 122 615 623
f 615 157 625
f 623 625 159
f 615 625 623
f 38 631 538
f 631 161 633
f 538 633 139
f 631 633 538
f 161 632 635
f 632 42 618
f 635 618 158
f 632 618 635
f 139 619 537
f 619 158 617
f 537 617 12
f 619 617 537
f 161 635 633
f 635 158 619
f 633 619 139
f 635 619 633
f 34 621 543
f 621 159 624
f 543 624 141
f 621 624 543
f 159 622 636
f 622 42 632
f 636 632 161
f 622 632 636
f 141 634 544
f 634 161 631
f 544 631 38
f 634 631 544
f 159 636 624
f 636 161 634
f 624 634 141
f 636 634 624
f 2 206 353
f 206 57 355
f 353 355 96
f 206 355 353
f 57 207 361
f 207 18 359
f 361 359 98
f 207 359 361
f 96 362 354
f 362 98 360
f 354 360 29
f 362 360 354
f 57 361 355
f 361 98 362
f 355 362 96
f 361 362 355
f 18 210 411
f 210 58 413
f 411 413 111
f 210 413 411
f 58 209 405
f 209 6 403
f 405 403 109
f 209 403 405
f 111 415 412
f 415 109 404
f 412 404 32
f 415 404 412
f 58 405 413
f 405 109 415
f 413 415 111
f 405 415 413
f 29 421 358
f 421 113 423
f 358 423 97
f 421 423 358
f 113 422 425
f 422 32 408
f 425 408 110
f 422 408 425
f 97 409 357
f 409 110 407
f 357 407 10
f 409 407 357
f 113 425 423
f 425 110 409
f 423 409 97
f 425 409 423
f 18 411 359
f 411 111 414
f 359 414 98
f 411 414 359
f 111 412 426
f 412 32 422
f 426 422 113
f 412 422 426
f 98 424 360
f 424 113 421
f 360 421 29
f 424 421 360
f 111 426 414
f 426 113 424
f 414 424 98
f 426 424 414
f 6 583 225
f 583 151 586
f 225 586 62
f 583 586 225
f 151 584 600
f 584 41 597
f 600 597 154
f 584 597 600
f 62 598 226
f 598 154 596
f 226 596 19
f 598 596 226
f 151 600 586
f 600 154 598
f 586 598 62
f 600 598 586
f 41 588 608
f 588 152 611
f 608 611 156
f 588 611 608
f 152 587 590
f 587 12 565
f 590 565 147
f 587 565 590
f 156 609 607
f 609 147 566
f 607 566 40
f 609 566 607
f 152 590 611
f 590 147 609
f 611 609 156
f 590 609 611
f 19 573 224
f 573 149 575
f 224 575 61
f 573 575 224
f 149 574 576
f 574 40 562
f 576 562 146
f 574 562 576
f 61 564 223
f 564 146 561
f 223 561 5
f 564 561 223
f 149 576 575
f 576 146 564
f 575 564 61
f 576 564 575
f 41 608 597
f 608 156 612
f 597 612 154
f 608 612 597
f 156 607 610
f 607 40 574
f 610 574 149
f 607 574 610
f 154 599 596
f 599 149 573
f 596 573 19
f 599 573 596
f 156 610 612
f 610 149 599
f 612 599 154
f 610 599 612
f 12 617 551
f 617 158 620
f 551 620 143
f 617 620 551
f 158 618 641
f 618 42 638
f 641 638 162
f 618 638 641
f 143 639 552
f 639 162 637
f 552 637 39
f 639 637 552
f 158 641 620
f 641 162 639
f 620 639 143
f 641 639 620
f 42 614 627
f 614 157 630
f 627 630 160
f 614 630 627
f 157 613 616
f 613 11 475
f 616 475 125
f 613 475 616
f 160 628 626
f 628 125 476
f 626 476 35
f 628 476 626
f 157 616 630
f 616 125 628
f 630 628 160
f 616 628 630
f 39 558 548
f 558 145 560
f 548 560 142
f 558 560 548
f 145 557 559
f 557 35 473
f 559 473 124
f 557 473 559
f 142 550 547
f 550 124 472
f 547 472 3
f 550 472 547
f 145 559 560
f 559 124 550
f 560 550 142
f 559 550 560
f 42 627 638
f 627 160 642
f 638 642 162
f 627 642 638
f 160 626 629
f 626 35 557
f 629 557 145
f 626 557 629
f 162 640 637
f 640 145 558
f 637 558 39
f 640 558 637
f 160 629 642
f 629 145 640
f 642 640 162
f 629 640 642
f 11 507 485
f 507 133 510
f 485 510 128
f 507 510 485
f 133 508 531
f 508 37 528
f 531 528 137
f 508 528 531
f 128 529 486
f 529 137 527
f 486 527 36
f 529 527 486
f 133 531 510
f 531 137 529
f 510 529 128
f 531 529 510
f 37 504 517
f 504 132 520
f 517 520 135
f 504 520 517
f 132 503 506
f 503 8 281
f 506 281 78
f 503 281 506
f 135 518 516
f 518 78 282
f 516 282 24
f 518 282 516
f 132 506 520
f 506 78 518
f 520 518 135
f 506 518 520
f 36 494 482
f 494 130 496
f 482 496 127
f 494 496 482
f 130 493 495
f 493 24 280
f 495 280 77
f 493 280 495
f 127 484 481
f 484 77 279
f 481 279 7
f 484 279 481
f 130 495 496
f 495 77 484
f 496 484 127
f 495 484 496
f 37 517 528
f 517 135 532
f 528 532 137
f 517 532 528
f 135 516 519
f 516 24 493
f 519 493 130
f 516 493 519
f 137 530 527
f 530 130 494
f 527 494 36
f 530 494 527
f 135 519 532
f 519 130 530
f 532 530 137
f 519 530 532
f 8 265 323
f 265 74 325
f 323 325 90
f 265 325 323
f 74 266 333
f 266 23 331
f 333 331 92
f 266 331 333
f 90 335 324
f 335 92 332
f 324 332 28
f 335 332 324
f 74 333 325
f 333 92 335
f 325 335 90
f 333 335 325
f 23 263 288
f 263 73 290
f 288 290 81
f 263 290 288
f 73 262 285
f 262 2 283
f 285 283 79
f 262 283 285
f 81 291 289
f 291 79 284
f 289 284 25
f 291 284 289
f 73 285 290
f 285 79 291
f 290 291 81
f 285 291 290
f 28 342 328
f 342 94 345
f 328 345 91
f 342 345 328
f 94 341 343
f 341 25 287
f 343 287 80
f 341 287 343
f 91 329 327
f 329 80 286
f 327 286 9
f 329 286 327
f 94 343 345
f 343 80 329
f 345 329 91
f 343 329 345
f 23 288 331
f 288 81 334
f 331 334 92
f 288 334 331
f 81 289 344
f 289 25 341
f 344 341 94
f 289 341 344
f 92 346 332
f 346 94 342
f 332 342 28
f 346 342 332
f 81 344 334
f 344 94 346
f 334 346 92
f 344 346 334
f 4 367 180
f 367 100 369
f 180 369 50
f 367 369 180
f 100 368 376
f 368 30 374
f 376 374 102
f 368 374 376
f 50 375 181
f 375 102 373
f 181 373 16
f 375 373 181
f 100 376 369
f 376 102 375
f 369 375 50
f 376 375 369
f 30 372 397
f 372 101 399
f 397 399 108
f 372 399 397
f 101 371 387
f 371 10 385
f 387 385 105
f 371 385 387
f 108 401 398
f 401 105 386
f 398 386 31
f 401 386 398
f 101 387 399
f 387 105 401
f 399 401 108
f 387 401 399
f 16 388 184
f 388 106 390
f 184 390 51
f 388 390 184
f 106 389 392
f 389 31 382
f 392 382 104
f 389 382 392
f 51 383 183
f 383 104 381
f 183 381 5
f 383 381 183
f 106 392 390
f 392 104 383
f 390 383 51
f 392 383 390
f 30 397 374
f 397 108 400
f 374 400 102
f 397 400 374
f 108 398 402
f 398 31 389
f 402 389 106
f 398 389 402
f 102 391 373
f 391 106 388
f 373 388 16
f 391 388 373
f 108 402 400
f 402 106 391
f 400 391 102
f 402 391 400
f 4 180 169
f 180 50 182
f 169 182 46
f 180 182 169
f 50 181 190
f 181 16 187
f 190 187 52
f 181 187 190
f 46 188 170
f 188 52 186
f 170 186 14
f 188 186 170
f 50 190 182
f 190 52 188
f 182 188 46
f 190 188 182
f 16 184 192
f 184 51 195
f 192 195 53
f 184 195 192
f 51 183 185
f 183 5 174
f 185 174 48
f 183 174 185
f 53 193 191
f 193 48 175
f 191 175 15
f 193 175 191
f 51 185 195
f 185 48 193
f 195 193 53
f 185 193 195
f 14 176 168
f 176 49 178
f 168 178 45
f 176 178 168
f 49 177 179
f 177 15 172
f 179 172 47
f 177 172 179
f 45 173 167
f 173 47 171
f 167 171 3
f 173 171 167
f 49 179 178
f 179 47 173
f 178 173 45
f 179 173 178
f 16 192 187
f 192 53 196
f 187 196 52
f 192 196 187
f 53 191 194
f 191 15 177
f 194 177 49
f 191 177 194
f 52 189 186
f 189 49 176
f 186 176 14
f 189 176 186
f 53 194 196
f 194 49 189
f 196 189 52
f 194 189 196
f 4 169 236
f 169 46 238
f 236 238 66
f 169 238 236
f 46 170 244
f 170 14 242
f 244 242 68
f 170 242 244
f 66 246 237
f 246 68 243
f 237 243 21
f 246 243 237
f 46 244 238
f 244 68 246
f 238 246 66
f 244 246 238
f 14 168 232
f 168 45 234
f 232 234 65
f 168 234 232
f 45 167 229
f 167 3 227
f 229 227 63
f 167 227 229
f 65 235 233
f 235 63 228
f 233 228 20
f 235 228 233
f 45 229 234
f 229 63 235
f 234 235 65
f 229 235 234
f 21 248 240
f 248 69 251
f 240 251 67
f 248 251 240
f 69 247 249
f 247 20 231
f 249 231 64
f 247 231 249
f 67 241 239
f 241 64 230
f 239 230 7
f 241 230 239
f 69 249 251
f 249 64 241
f 251 241 67
f 249 241 251
f 14 232 242
f 232 65 245
f 242 245 68
f 232 245 242
f 65 233 250
f 233 20 247
f 250 247 69
f 233 247 250
f 68 252 243
f 252 69 248
f 243 248 21
f 252 248 243
f 65 250 245
f 250 69 252
f 245 252 68
f 250 252 245
f 4 236 292
f 236 66 294
f 292 294 82
f 236 294 292
f 66 237 299
f 237 21 297
f 299 297 84
f 237 297 299
f 82 300 293
f 300 84 298
f 293 298 26
f 300 298 293
f 66 299 294
f 299 84 300
f 294 300 82
f 299 300 294
f 21 240 308
f 240 67 310
f 308 310 87
f 240 310 308
f 67 239 303
f 239 7 301
f 303 301 85
f 239 301 303
f 87 312 309
f 312 85 302
f 309 302 27
f 312 302 309
f 67 303 310
f 303 85 312
f 310 312 87
f 303 312 310
f 26 317 296
f 317 89 319
f 296 319 83
f 317 319 296
f 89 318 321
f 318 27 306
f 321 306 86
f 318 306 321
f 83 307 295
f 307 86 305
f 295 305 9
f 307 305 295
f 89 321 319
f 321 86 307
f 319 307 83
f 321 307 319
f 21 308 297
f 308 87 311
f 297 311 84
f 308 311 297
f 87 309 322
f 309 27 318
f 322 318 89
f 309 318 322
f 84 320 298
f 320 89 317
f 298 317 26
f 320 317 298
f 87 322 311
f 322 89 320
f 311 320 84
f 322 320 311
f 4 292 367
f 292 82 370
f 367 370 100
f 292 370 367
f 82 293 379
f 293 26 377
f 379 377 103
f 293 377 379
f 100 380 368
f 380 103 378
f 368 378 30
f 380 378 368
f 82 379 370
f 379 103 380
f 370 380 100
f 379 380 370
f 26 296 446
f 296 83 448
f 446 448 118
f 296 448 446
f 83 295 436
f 295 9 433
f 436 433 115
f 295 433 436
f 118 450 447
f 450 115 434
f 447 434 33
f 450 434 447
f 83 436 448
f 436 115 450
f 448 450 118
f 436 450 448
f 30 457 372
f 457 120 459
f 372 459 101
f 457 459 372
f 120 458 461
f 458 33 438
f 461 438 116
f 458 438 461
f 101 440 371
f 440 116 437
f 371 437 10
f 440 437 371
f 120 461 459
f 461 116 440
f 459 440 101
f 461 440 459
f 26 446 377
f 446 118 449
f 377 449 103
f 446 449 377
f 118 447 462
f 447 33 458
f 462 458 120
f 447 458 462
f 103 460 378
f 460 120 457
f 378 457 30
f 460 457 378
f 118 462 449
f 462 120 460
f 449 460 103
f 462 460 449
f 5 381 223
f 381 104 384
f 223 384 61
f 381 384 223
f 104 382 396
f 382 31 394
f 396 394 107
f 382 394 396
f 61 395 224
f 395 107 393
f 224 393 19
f 395 393 224
f 104 396 384
f 396 107 395
f 384 395 61
f 396 395 384
f 31 386 427
f 386 105 429
f 427 429 114
f 386 429 427
f 105 385 410
f 385 10 407
f 410 407 110
f 385 407 410
f 114 431 428
f 431 110 408
f 428 408 32
f 431 408 428
f 105 410 429
f 410 110 431
f 429 431 114
f 410 431 429
f 19 416 226
f 416 112 418
f 226 418 62
f 416 418 226
f 112 417 420
f 417 32 404
f 420 404 109
f 417 404 420
f 62 406 225
f 406 109 403
f 225 403 6
f 406 403 225
f 112 420 418
f 420 109 406
f 418 406 62
f 420 406 418
f 31 427 394
f 427 114 430
f 394 430 107
f 427 430 394
f 114 428 432
f 428 32 417
f 432 417 112
f 428 417 432
f 107 419 393
f 419 112 416
f 393 416 19
f 419 416 393
f 114 432 430
f 432 112 419
f 430 419 107
f 432 419 430
f 3 171 547
f 171 47 549
f 547 549 142
f 171 549 547
f 47 172 555
f 172 15 553
f 555 553 144
f 172 553 555
f 142 556 548
f 556 144 554
f 548 554 39
f 556 554 548
f 47 555 549
f 555 144 556
f 549 556 142
f 555 556 549
f 15 175 568
f 175 48 570
f 568 570 148
f 175 570 568
f 48 174 563
f 174 5 561
f 563 561 146
f 174 561 563
f 148 572 569
f 572 146 562
f 569 562 40
f 572 562 569
f 48 563 570
f 563 146 572
f 570 572 148
f 563 572 570
f 39 577 552
f 577 150 579
f 552 579 143
f 577 579 552
f 150 578 581
f 578 40 566
f 581 566 147
f 578 566 581
f 143 567 551
f 567 147 565
f 551 565 12
f 567 565 551
f 150 581 579
f 581 147 567
f 579 567 143
f 581 567 579
f 15 568 553
f 568 148 571
f 553 571 144
f 568 571 553
f 148 569 582
f 569 40 578
f 582 578 150
f 569 578 582
f 144 580 554
f 580 150 577
f 554 577 39
f 580 577 554
f 148 582 571
f 582 150 580
f 571 580 144
f 582 580 571
f 7 230 481
f 230 64 483
f 481 483 127
f 230 483 481
f 64 231 490
f 231 20 488
f 490 488 129
f 231 488 490
f 127 492 482
f 492 129 489
f 482 489 36
f 492 489 482
f 64 490 483
f 490 129 492
f 483 492 127
f 490 492 483
f 20 228 477
f 228 63 479
f 477 479 126
f 228 479 477
f 63 227 474
f 227 3 472
f 474 472 124
f 227 472 474
f 126 480 478
f 480 124 473
f 478 473 35
f 480 473 478
f 63 474 479
f 474 124 480
f 479 480 126
f 474 480 479
f 36 498 486
f 498 131 501
f 486 501 128
f 498 501 486
f 131 497 499
f 497 35 476
f 499 476 125
f 497 476 499
f 128 487 485
f 487 125 475
f 485 475 11
f 487 475 485
f 131 499 501
f 499 125 487
f 501 487 128
f 499 487 501
f 20 477 488
f 477 126 491
f 488 491 129
f 477 491 488
f 126 478 500
f 478 35 497
f 500 497 131
f 478 497 500
f 129 502 489
f 502 131 498
f 489 498 36
f 502 498 489
f 126 500 491
f 500 131 502
f 491 502 129
f 500 502 491
f 9 305 327
f 305 86 330
f 327 330 91
f 305 330 327
f 86 306 349
f 306 27 347
f 349 347 95
f 306 347 349
f 91 351 328
f 351 95 348
f 328 348 28
f 351 348 328
f 86 349 330
f 349 95 351
f 330 351 91
f 349 351 330
f 27 302 314
f 302 85 316
f 314 316 88
f 302 316 314
f 85 301 304
f 301 7 279
f 304 279 77
f 301 279 304
f 88 315 313
f 315 77 280
f 313 280 24
f 315 280 313
f 85 304 316
f 304 77 315
f 316 315 88
f 304 315 316
f 28 337 324
f 337 93 340
f 324 340 90
f 337 340 324
f 93 336 338
f 336 24 282
f 338 282 78
f 336 282 338
f 90 326 323
f 326 78 281
f 323 281 8
f 326 281 323
f 93 338 340
f 338 78 326
f 340 326 90
f 338 326 340
f 27 314 347
f 314 88 350
f 347 350 95
f 314 350 347
f 88 313 339
f 313 24 336
f 339 336 93
f 313 336 339
f 95 352 348
f 352 93 337
f 348 337 28
f 352 337 348
f 88 339 350
f 339 93 352
f 350 352 95
f 339 352 350
f 10 437 357
f 437 116 439
f 357 439 97
f 437 439 357
f 116 438 455
f 438 33 452
f 455 452 119
f 438 452 455
f 97 453 358
f 453 119 451
f 358 451 29
f 453 451 358
f 116 455 439
f 455 119 453
f 439 453 97
f 455 453 439
f 33 434 442
f 434 115 445
f 442 445 117
f 434 445 442
f 115 433 435
f 433 9 286
f 435 286 80
f 433 286 435
f 117 443 441
f 443 80 287
f 441 287 25
f 443 287 441
f 115 435 445
f 435 80 443
f 445 443 117
f 435 443 445
f 29 364 354
f 364 99 366
f 354 366 96
f 364 366 354
f 99 363 365
f 363 25 284
f 365 284 79
f 363 284 365
f 96 356 353
f 356 79 283
f 353 283 2
f 356 283 353
f 99 365 366
f 365 79 356
f 366 356 96
f 365 356 366
f 33 442 452
f 442 117 456
f 452 456 119
f 442 456 452
f 117 441 444
f 441 25 363
f 444 363 99
f 441 363 444
f 119 454 451
f 454 99 364
f 451 364 29
f 454 364 451
f 117 444 456
f 444 99 454
f 456 454 119
f 444 454 456

