# https://github.com/mikedh/trimesh
v 0.57000000 0.00000000 1.55000000
v 0.55404101 0.00579368 1.53418556
v 0.54037587 0.01118364 1.51622549
v 0.52925912 0.01606949 1.49645433
v 0.52089786 0.02036021 1.47524038
v 0.51544783 0.02397587 1.45297884
v 0.51301057 0.02684912 1.43008437
v 0.51363147 0.02892643 1.40698347
v 0.51729896 0.03016911 1.38410646
v 0.52394473 0.03055402 1.36187950
v 0.53344499 0.03007397 1.34071663
v 0.54562275 0.02873792 1.32101207
v 0.61589153 0.01832773 1.23512801
v 0.63269810 0.01536981 1.21940726
v 0.65136977 0.01167624 1.20613779
v 0.67155870 0.00731582 1.19556678
v 0.69288882 0.00236979 1.18789116
v 0.71496278 -0.00306973 1.18325390
v 0.73736939 -0.00890140 1.18174138
v 0.75969126 -0.01501659 1.18338179
v 0.78151257 -0.02130139 1.18814456
v 0.80242683 -0.02763872 1.19594098
v 0.82204446 -0.03391054 1.20662580
v 0.84000000 -0.04000000 1.22000000
v 0.55615661 0.01135463 1.53524245
v 0.54456765 0.02220196 1.51831957
v 0.53544901 0.03233992 1.49954660
v 0.52897054 0.04157967 1.47927325
v 0.52525293 0.04974907 1.45787716
v 0.52436543 0.05669596 1.43575691
v 0.52632458 0.06229093 1.41332456
v 0.53109387 0.06642975 1.39099798
v 0.53858447 0.06903532 1.36919306
v 0.54865684 0.07005910 1.34831600
v 0.56112334 0.06948203 1.32875570
v 0.63139212 0.05907184 1.24287163
v 0.64790995 0.05535494 1.22700664
v 0.66600950 0.05015753 1.21345136
v 0.68535361 0.04357645 1.20245830
v 0.70558193 0.03573428 1.19423225
v 0.72631764 0.02677712 1.18892644
v 0.74717449 0.01687181 1.18663971
v 0.76776394 0.00620287 1.18741465
v 0.78770245 -0.00503096 1.19123684
v 0.80661861 -0.01662041 1.19803506
v 0.82416005 -0.02834958 1.20768269
v 0.55928364 0.01613171 1.53722189
v 0.55076346 0.03166712 1.52224158
v 0.54459818 0.04631685 1.50533812
v 0.54090265 0.05980801 1.48682639
v 0.53974570 0.07188926 1.46705122
v 0.54114889 0.08233557 1.44638100
v 0.54508608 0.09095233 1.42520077
v 0.55148392 0.09757904 1.40390508
v 0.56022324 0.10209225 1.38289062
v 0.57114125 0.10440789 1.36254885
v 0.58403454 0.10448282 1.34325871
v 0.65430333 0.09407263 1.25737464
v 0.67039436 0.08970372 1.24123948
v 0.68764828 0.08321447 1.22714891
v 0.70574366 0.07472575 1.21536540
v 0.72434343 0.06439569 1.20610846
v 0.74310110 0.05241672 1.19955053
v 0.76166726 0.03901199 1.19581377
v 0.77969605 0.02443121 1.19496779
v 0.79685163 0.00894597 1.19702835
v 0.81281443 -0.00715524 1.20195707
v 0.82728708 -0.02357251 1.20966213
v 0.56320901 0.01979935 1.53998899
v 0.55854107 0.03893410 1.52772423
v 0.55608315 0.05704779 1.51343419
v 0.55588104 0.07380300 1.49738507
v 0.55793849 0.08888761 1.47987582
v 0.56221718 0.10202063 1.46123262
v 0.56863740 0.11295741 1.44180275
v 0.57707957 0.12149422 1.42194816
v 0.58738641 0.12747204 1.40203869
v 0.59936594 0.13077951 1.38244522
v 0.61279499 0.13135502 1.36353275
v 0.68306377 0.12094483 1.27764868
v 0.69861906 0.11607535 1.26113586
v 0.71481145 0.10859426 1.24629698
v 0.73133931 0.09864093 1.23340848
v 0.74789475 0.08640077 1.22271044
v 0.76416938 0.07210178 1.21440215
v 0.77986004 0.05601034 1.20863837
v 0.79467443 0.03842620 1.20552647
v 0.80833660 0.01967691 1.20512443
v 0.82059203 0.00011173 1.20743972
v 0.83121245 -0.01990486 1.21242923
v 0.56766520 0.02210763 1.54335517
v 0.56737044 0.04350765 1.53439389
v 0.56912123 0.06380142 1.52328309
v 0.57288494 0.08261090 1.51022973
v 0.57859147 0.09958571 1.49547698
v 0.58613452 0.11440965 1.47929966
v 0.59537357 0.12680656 1.46199911
v 0.60613651 0.13654552 1.44389762
v 0.61822285 0.14344510 1.42533237
v 0.63140745 0.14737679 1.40664921
v 0.64544471 0.14826735 1.38819617
v 0.71571349 0.13785716 1.30231211
v 0.73066057 0.13267263 1.28533985
v 0.74564789 0.12456732 1.26959067
v 0.76039624 0.11369222 1.25535794
v 0.77463091 0.10024991 1.24290680
v 0.78808673 0.08449080 1.23246918
v 0.80051303 0.06670845 1.22423953
v 0.81167834 0.04723410 1.21837114
v 0.82137467 0.02643054 1.21497332
v 0.82942141 0.00468529 1.21410938
v 0.83566864 -0.01759658 1.21579541
v 0.57234853 0.02289923 1.54709104
v 0.57664987 0.04507610 1.54179604
v 0.58282389 0.06611751 1.53421362
v 0.59075559 0.08563148 1.52448504
v 0.60029720 0.10325452 1.51279151
v 0.61127099 0.11865833 1.49935087
v 0.62347254 0.13155598 1.48441350
v 0.63667456 0.14170720 1.46825764
v 0.65063111 0.14892290 1.45118424
v 0.66508221 0.15306866 1.43351137
v 0.67975867 0.15406725 1.41556821
v 0.75002745 0.14365706 1.32968415
v 0.76433533 0.13836449 1.31220200
v 0.77805614 0.13004511 1.29544253
v 0.79093429 0.11885390 1.27971796
v 0.80272989 0.10499933 1.26532118
v 0.81322320 0.08873948 1.25252040
v 0.82221876 0.07037725 1.24155406
v 0.82954898 0.05025468 1.23262644
v 0.83507734 0.02874663 1.22590385
v 0.83870083 0.00625374 1.22151153
v 0.84035197 -0.01680498 1.21953128
v 0.57693985 0.02212020 1.55094200
v 0.58574698 0.04353257 1.54942622
v 0.59625733 0.06383821 1.54548089
v 0.60827511 0.08265888 1.53917951
v 0.62157646 0.09964399 1.53063945
v 0.63591359 0.11447714 1.52001981
v 0.65101944 0.12688200 1.50751841
v 0.66661260 0.13662751 1.49336812
v 0.68240261 0.14353212 1.47783254
v 0.69809533 0.14746721 1.46120106
v 0.71339843 0.14835948 1.44378351
v 0.78366721 0.13794929 1.35789944
v 0.79734845 0.13276304 1.33989169
v 0.80982764 0.12465434 1.32209083
v 0.82087234 0.11377422 1.30482844
v 0.83027678 0.10032536 1.28842609
v 0.83786580 0.08455829 1.27318934
v 0.84349801 0.06676673 1.25940200
v 0.84706851 0.04728209 1.24732091
v 0.84851077 0.02646733 1.23717113
v 0.84779794 0.00471020 1.22914171
v 0.84494329 -0.01758401 1.22338224
v 0.58112626 0.01982365 1.55464562
v 0.59404181 0.03898223 1.55676446
v 0.60850607 0.05711886 1.55631705
v 0.62424959 0.07389569 1.55331174
v 0.64097910 0.08900020 1.54780450
v 0.65838296 0.10215101 1.53989791
v 0.67613697 0.11310316 1.52973928
v 0.69391041 0.12165262 1.51751782
v 0.71137218 0.12764014 1.50346122
v 0.72819702 0.13095418 1.48783130
v 0.74407151 0.13153300 1.47091923
v 0.81434029 0.12112281 1.38503517
v 0.82745014 0.11625001 1.36652193
v 0.83879722 0.10876236 1.34771951
v 0.84817014 0.09879933 1.32897815
v 0.85539432 0.08654651 1.31064697
v 0.86033517 0.07223216 1.29306744
v 0.86290065 0.05612293 1.27656704
v 0.86304298 0.03851889 1.26145314
v 0.86075951 0.01974798 1.24800729
v 0.85609277 0.00015986 1.23647995
v 0.84912970 -0.01988057 1.22708585
v 0.58462246 0.01616606 1.55794949
v 0.60096909 0.03173519 1.56331066
v 0.61873538 0.04641737 1.56598365
v 0.63759039 0.05993909 1.56591865
v 0.65718286 0.07204848 1.56311688
v 0.67714785 0.08251995 1.55763053
v 0.69711342 0.09115845 1.54956180
v 0.71670768 0.09780305 1.53906099
v 0.73556560 0.10232998 1.52632373
v 0.75333591 0.10465491 1.51158727
v 0.76968757 0.10473452 1.49512613
v 0.83995635 0.09432433 1.40924207
v 0.85258903 0.08995074 1.39027790
v 0.86299064 0.08345219 1.37058202
v 0.87096741 0.07494975 1.35052132
v 0.87637077 0.06460180 1.33046948
v 0.87910005 0.05260111 1.31080005
v 0.87910442 0.03917121 1.29187942
v 0.87638378 0.02456229 1.27406005
v 0.87098883 0.00904649 1.25767388
v 0.86302006 -0.00708717 1.24302615
v 0.85262590 -0.02353815 1.23038973
v 0.58719020 0.01139671 1.56062847
v 0.60605674 0.02228533 1.56861872
v 0.62624816 0.03246303 1.57382190
v 0.64738835 0.04174022 1.57614109
v 0.66908349 0.04994408 1.57553308
v 0.69092946 0.05692179 1.57200920
v 0.71251929 0.06254337 1.56563509
v 0.73345082 0.06670410 1.55652950
v 0.75333412 0.06932647 1.54486203
v 0.77179881 0.07036164 1.53085004
v 0.78850094 0.06979031 1.51475455
v 0.85876972 0.05938012 1.42887048
v 0.87105193 0.05565747 1.40954068
v 0.88075916 0.05044869 1.38912032
v 0.88771055 0.04385081 1.36798982
v 0.89177664 0.03598673 1.34654278
v 0.89288166 0.02700294 1.32517872
v 0.89100505 0.01706681 1.30429562
v 0.88618174 0.00636342 1.28428249
v 0.87850161 -0.00490785 1.26551213
v 0.86810770 -0.01653704 1.24833421
v 0.85519364 -0.02830751 1.23306871
v 0.58865449 0.00584061 1.56249999
v 0.60895803 0.01127663 1.57232689
v 0.63053242 0.01620680 1.57929765
v 0.65297576 0.02053928 1.58328242
v 0.67586998 0.02419337 1.58420695
v 0.69878860 0.02710099 1.58205404
v 0.72130468 0.02920799 1.57686379
v 0.74299881 0.03047512 1.56873288
v 0.76346685 0.03087876 1.55781277
v 0.78232752 0.03041140 1.54430690
v 0.79922950 0.02908176 1.52846683
v 0.86949828 0.01867157 1.44258277
v 0.88158064 0.01570724 1.42299753
v 0.89089188 0.01200098 1.40207107
v 0.89725854 0.00762182 1.38019320
v 0.90056203 0.00265135 1.35777148
v 0.90074080 -0.00281785 1.33522357
v 0.89779153 -0.00868390 1.31296950
v 0.89176916 -0.01483752 1.29142382
v 0.88278587 -0.02116408 1.27098789
v 0.87100900 -0.02754574 1.25204238
v 0.85665793 -0.03386361 1.23494023
v 0.58891553 -0.00012360 1.56343651
v 0.60947526 -0.00054069 1.57418248
v 0.63129619 -0.00124349 1.58203774
v 0.65397185 -0.00221891 1.58685597
v 0.67707984 -0.00344878 1.58854740
v 0.70018968 -0.00491020 1.58708053
v 0.72287089 -0.00657593 1.58248268
v 0.74470097 -0.00841495 1.57483951
v 0.76527325 -0.01039301 1.56429338
v 0.78420452 -0.01247325 1.55104076
v 0.80114212 -0.01461692 1.53532852
v 0.87141091 -0.02502711 1.44944445
v 0.88345764 -0.02717741 1.42973139
v 0.89269829 -0.02927079 1.40855167
v 0.89896071 -0.03126825 1.38629983
v 0.90212824 -0.03313257 1.36339037
v 0.90214189 -0.03482904 1.34025005
v 0.89900139 -0.03632605 1.31730995
v 0.89276525 -0.03759571 1.29499737
v 0.88354964 -0.03861437 1.27372798
v 0.87152622 -0.03936305 1.25389797
v 0.85691897 -0.03982781 1.23587674
v 0.58795554 -0.00608946 1.56337420
v 0.60757317 -0.01236128 1.57405902
v 0.62848743 -0.01869861 1.58185544
v 0.65030874 -0.02498341 1.58661821
v 0.67263061 -0.03109860 1.58825862
v 0.69503722 -0.03693027 1.58674610
v 0.71711118 -0.04236979 1.58210884
v 0.73844130 -0.04731582 1.57443322
v 0.75863023 -0.05167624 1.56386221
v 0.77730190 -0.05536981 1.55059274
v 0.79410847 -0.05832773 1.53487199
v 0.86437725 -0.06873792 1.44898793
v 0.87655501 -0.07007397 1.42928337
v 0.88605527 -0.07055402 1.40812050
v 0.89270104 -0.07016911 1.38589354
v 0.89636853 -0.06892643 1.36301653
v 0.89698943 -0.06684912 1.33991563
v 0.89455217 -0.06397587 1.31702116
v 0.88910214 -0.06036021 1.29475962
v 0.88074088 -0.05606949 1.27354567
v 0.86962413 -0.05118364 1.25377451
v 0.85595899 -0.04579368 1.23581444
v 0.58583995 -0.01165042 1.56231731
v 0.60338139 -0.02337959 1.57196494
v 0.62229755 -0.03496904 1.57876316
v 0.64223606 -0.04620287 1.58258535
v 0.66282551 -0.05687181 1.58336029
v 0.68368236 -0.06677712 1.58107356
v 0.70441807 -0.07573428 1.57576775
v 0.72464639 -0.08357645 1.56754170
v 0.74399050 -0.09015753 1.55654864
v 0.76209005 -0.09535494 1.54299336
v 0.77860788 -0.09907184 1.52712837
v 0.84887666 -0.10948203 1.44124430
v 0.86134316 -0.11005910 1.42168400
v 0.87141553 -0.10903532 1.40080694
v 0.87890613 -0.10642975 1.37900202
v 0.88367542 -0.10229093 1.35667544
v 0.88563457 -0.09669596 1.33424309
v 0.88474707 -0.08974907 1.31212284
v 0.88102946 -0.08157967 1.29072675
v 0.87455099 -0.07233992 1.27045340
v 0.86543235 -0.06220196 1.25168043
v 0.85384339 -0.05135463 1.23475755
v 0.58271292 -0.01642749 1.56033787
v 0.59718557 -0.03284476 1.56804293
v 0.61314837 -0.04894597 1.57297165
v 0.63030395 -0.06443121 1.57503221
v 0.64833274 -0.07901199 1.57418623
v 0.66689890 -0.09241672 1.57044947
v 0.68565657 -0.10439569 1.56389154
v 0.70425634 -0.11472575 1.55463460
v 0.72235172 -0.12321447 1.54285109
v 0.73960564 -0.12970372 1.52876052
v 0.75569667 -0.13407263 1.51262536
v 0.82596546 -0.14448282 1.42674129
v 0.83885875 -0.14440789 1.40745115
v 0.84977676 -0.14209225 1.38710938
v 0.85851608 -0.13757904 1.36609492
v 0.86491392 -0.13095233 1.34479923
v 0.86885111 -0.12233557 1.32361900
v 0.87025430 -0.11188926 1.30294878
v 0.86909735 -0.09980801 1.28317361
v 0.86540182 -0.08631685 1.26466188
v 0.85923654 -0.07166712 1.24775842
v 0.85071636 -0.05613171 1.23277811
v 0.57878755 -0.02009514 1.55757077
v 0.58940797 -0.04011173 1.56256028
v 0.60166340 -0.05967691 1.56487557
v 0.61532557 -0.07842620 1.56447353
v 0.63013996 -0.09601034 1.56136163
v 0.64583062 -0.11210178 1.55559785
v 0.66210525 -0.12640077 1.54728956
v 0.67866069 -0.13864093 1.53659152
v 0.69518855 -0.14859426 1.52370302
v 0.71138094 -0.15607535 1.50886414
v 0.72693623 -0.16094483 1.49235132
v 0.79720501 -0.17135502 1.40646725
v 0.81063406 -0.17077951 1.38755478
v 0.82261359 -0.16747204 1.36796131
v 0.83292043 -0.16149422 1.34805184
v 0.84136260 -0.15295741 1.32819725
v 0.84778282 -0.14202063 1.30876738
v 0.85206151 -0.12888761 1.29012418
v 0.85411896 -0.11380300 1.27261493
v 0.85391685 -0.09704779 1.25656581
v 0.85145893 -0.07893410 1.24227577
v 0.84679099 -0.05979935 1.23001101
v 0.57433136 -0.02240342 1.55420459
v 0.58057859 -0.04468529 1.55589062
v 0.58862533 -0.06643054 1.55502668
v 0.59832166 -0.08723410 1.55162886
v 0.60948697 -0.10670845 1.54576047
v 0.62191327 -0.12449080 1.53753082
v 0.63536909 -0.14024991 1.52709320
v 0.64960376 -0.15369222 1.51464206
v 0.66435211 -0.16456732 1.50040933
v 0.67933943 -0.17267263 1.48466015
v 0.69428651 -0.17785716 1.46768789
v 0.76455529 -0.18826735 1.38180383
v 0.77859255 -0.18737679 1.36335079
v 0.79177715 -0.18344510 1.34466763
v 0.80386349 -0.17654552 1.32610238
v 0.81462643 -0.16680656 1.30800089
v 0.82386548 -0.15440965 1.29070034
v 0.83140853 -0.13958571 1.27452302
v 0.83711506 -0.12261090 1.25977027
v 0.84087877 -0.10380142 1.24671691
v 0.84262956 -0.08350765 1.23560611
v 0.84233480 -0.06210763 1.22664483
v 0.56964803 -0.02319502 1.55046872
v 0.57129917 -0.04625374 1.54848847
v 0.57492266 -0.06874663 1.54409615
v 0.58045102 -0.09025468 1.53737356
v 0.58778124 -0.11037725 1.52844594
v 0.59677680 -0.12873948 1.51747960
v 0.60727011 -0.14499933 1.50467882
v 0.61906571 -0.15885390 1.49028204
v 0.63194386 -0.17004511 1.47455747
v 0.64566467 -0.17836449 1.45779800
v 0.65997255 -0.18365706 1.44031585
v 0.73024133 -0.19406725 1.35443179
v 0.74491779 -0.19306866 1.33648863
v 0.75936889 -0.18892290 1.31881576
v 0.77332544 -0.18170720 1.30174236
v 0.78652746 -0.17155598 1.28558650
v 0.79872901 -0.15865833 1.27064913
v 0.80970280 -0.14325452 1.25720849
v 0.81924441 -0.12563148 1.24551496
v 0.82717611 -0.10611751 1.23578638
v 0.83335013 -0.08507610 1.22820396
v 0.83765147 -0.06289923 1.22290896
v 0.56505671 -0.02241599 1.54661776
v 0.56220206 -0.04471020 1.54085829
v 0.56148923 -0.06646733 1.53282887
v 0.56293149 -0.08728209 1.52267909
v 0.56650199 -0.10676673 1.51059800
v 0.57213420 -0.12455829 1.49681066
v 0.57972322 -0.14032536 1.48157391
v 0.58912766 -0.15377422 1.46517156
v 0.60017236 -0.16465434 1.44790917
v 0.61265155 -0.17276304 1.43010831
v 0.62633279 -0.17794929 1.41210056
v 0.69660157 -0.18835948 1.32621649
v 0.71190467 -0.18746721 1.30879894
v 0.72759739 -0.18353212 1.29216746
v 0.74338740 -0.17662751 1.27663188
v 0.75898056 -0.16688200 1.26248159
v 0.77408641 -0.15447714 1.24998019
v 0.78842354 -0.13964399 1.23936055
v 0.80172489 -0.12265888 1.23082049
v 0.81374267 -0.10383821 1.22451911
v 0.82425302 -0.08353257 1.22057378
v 0.83306015 -0.06212020 1.21905800
v 0.56087030 -0.02011943 1.54291415
v 0.55390723 -0.04015986 1.53352005
v 0.54924049 -0.05974798 1.52199271
v 0.54695702 -0.07851889 1.50854686
v 0.54709935 -0.09612293 1.49343296
v 0.54966483 -0.11223216 1.47693256
v 0.55460568 -0.12654651 1.45935303
v 0.56182986 -0.13879933 1.44102185
v 0.57120278 -0.14876236 1.42228049
v 0.58254986 -0.15625001 1.40347807
v 0.59565971 -0.16112281 1.38496483
v 0.66592849 -0.17153300 1.29908077
v 0.68180298 -0.17095418 1.28216870
v 0.69862782 -0.16764014 1.26653878
v 0.71608959 -0.16165262 1.25248218
v 0.73386303 -0.15310316 1.24026072
v 0.75161704 -0.14215101 1.23010209
v 0.76902090 -0.12900020 1.22219550
v 0.78575041 -0.11389569 1.21668826
v 0.80149393 -0.09711886 1.21368295
v 0.81595819 -0.07898223 1.21323554
v 0.82887374 -0.05982365 1.21535438
v 0.55737410 -0.01646185 1.53961027
v 0.54697994 -0.03291283 1.52697385
v 0.53901117 -0.04904649 1.51232612
v 0.53361622 -0.06456229 1.49593995
v 0.53089558 -0.07917121 1.47812058
v 0.53089995 -0.09260111 1.45919995
v 0.53362923 -0.10460180 1.43953052
v 0.53903259 -0.11494975 1.41947868
v 0.54700936 -0.12345219 1.39941798
v 0.55741097 -0.12995074 1.37972210
v 0.57004365 -0.13432433 1.36075793
v 0.64031243 -0.14473452 1.27487387
v 0.65666409 -0.14465491 1.25841273
v 0.67443440 -0.14232998 1.24367627
v 0.69329232 -0.13780305 1.23093901
v 0.71288658 -0.13115845 1.22043820
v 0.73285215 -0.12251995 1.21236947
v 0.75281714 -0.11204848 1.20688312
v 0.77240961 -0.09993909 1.20408135
v 0.79126462 -0.08641737 1.20401635
v 0.80903091 -0.07173519 1.20668934
v 0.82537754 -0.05616606 1.21205051
v 0.55480636 -0.01169249 1.53693129
v 0.54189230 -0.02346296 1.52166579
v 0.53149839 -0.03509215 1.50448787
v 0.52381826 -0.04636342 1.48571751
v 0.51899495 -0.05706681 1.46570438
v 0.51711834 -0.06700294 1.44482128
v 0.51822336 -0.07598673 1.42345722
v 0.52228945 -0.08385081 1.40201018
v 0.52924084 -0.09044869 1.38087968
v 0.53894807 -0.09565747 1.36045932
v 0.55123028 -0.09938012 1.34112952
v 0.62149906 -0.10979031 1.25524545
v 0.63820119 -0.11036164 1.23914996
v 0.65666588 -0.10932647 1.22513797
v 0.67654918 -0.10670410 1.21347050
v 0.69748071 -0.10254337 1.20436491
v 0.71907054 -0.09692179 1.19799080
v 0.74091651 -0.08994408 1.19446692
v 0.76261165 -0.08174022 1.19385891
v 0.78375184 -0.07246303 1.19617810
v 0.80394326 -0.06228533 1.20138128
v 0.82280980 -0.05139671 1.20937153
v 0.55334207 -0.00613639 1.53505977
v 0.53899100 -0.01245426 1.51795762
v 0.52721413 -0.01883592 1.49901211
v 0.51823084 -0.02516248 1.47857618
v 0.51220847 -0.03131610 1.45703050
v 0.50925920 -0.03718215 1.43477643
v 0.50943797 -0.04265135 1.41222852
v 0.51274146 -0.04762182 1.38980680
v 0.51910812 -0.05200098 1.36792893
v 0.52841936 -0.05570724 1.34700247
v 0.54050172 -0.05867157 1.32741723
v 0.61077050 -0.06908176 1.24153317
v 0.62767248 -0.07041140 1.22569310
v 0.64653315 -0.07087876 1.21218723
v 0.66700119 -0.07047512 1.20126712
v 0.68869532 -0.06920799 1.19313621
v 0.71121140 -0.06710099 1.18794596
v 0.73413002 -0.06419337 1.18579305
v 0.75702424 -0.06053928 1.18671758
v 0.77946758 -0.05620680 1.19070235
v 0.80104197 -0.05127663 1.19767311
v 0.82134551 -0.04584061 1.20750001
v 0.55308103 -0.00017219 1.53412326
v 0.53847378 -0.00063695 1.51610203
v 0.52645036 -0.00138563 1.49627202
v 0.51723475 -0.00240429 1.47500263
v 0.51099861 -0.00367395 1.45269005
v 0.50785811 -0.00517096 1.42974995
v 0.50787176 -0.00686743 1.40660963
v 0.51103929 -0.00873175 1.38370017
v 0.51730171 -0.01072921 1.36144833
v 0.52654236 -0.01282259 1.34026861
v 0.53858909 -0.01497289 1.32055555
v 0.60885788 -0.02538308 1.23467148
v 0.62579548 -0.02752675 1.21895924
v 0.64472675 -0.02960699 1.20570662
v 0.66529903 -0.03158505 1.19516049
v 0.68712911 -0.03342407 1.18751732
v 0.70981032 -0.03508980 1.18291947
v 0.73292016 -0.03655122 1.18145260
v 0.75602815 -0.03778109 1.18314403
v 0.77870381 -0.03875651 1.18796226
v 0.80052474 -0.03945931 1.19581752
v 0.82108447 -0.03987640 1.20656349
f 2 1 25
f 2 25 3
f 3 25 26
f 3 26 4
f 4 26 27
f 4 27 5
f 5 27 28
f 5 28 6
f 6 28 29
f 6 29 7
f 7 29 30
f 7 30 8
f 8 30 31
f 8 31 9
f 9 31 32
f 9 32 10
f 10 32 33
f 10 33 11
f 11 33 34
f 11 34 12
f 12 34 35
f 12 35 13
f 13 35 36
f 13 36 14
f 14 36 37
f 14 37 15
f 15 37 38
f 15 38 16
f 16 38 39
f 16 39 17
f 17 39 40
f 17 40 18
f 18 40 41
f 18 41 19
f 19 41 42
f 19 42 20
f 20 42 43
f 20 43 21
f 21 43 44
f 21 44 22
f 22 44 45
f 22 45 23
f 23 45 46
f 23 46 24
f 25 1 47
f 25 47 26
f 26 47 48
f 26 48 27
f 27 48 49
f 27 49 28
f 28 49 50
f 28 50 29
f 29 50 51
f 29 51 30
f 30 51 52
f 30 52 31
f 31 52 53
f 31 53 32
f 32 53 54
f 32 54 33
f 33 54 55
f 33 55 34
f 34 55 56
f 34 56 35
f 35 56 57
f 35 57 36
f 36 57 58
f 36 58 37
f 37 58 59
f 37 59 38
f 38 59 60
f 38 60 39
f 39 60 61
f 39 61 40
f 40 61 62
f 40 62 41
f 41 62 63
f 41 63 42
f 42 63 64
f 42 64 43
f 43 64 65
f 43 65 44
f 44 65 66
f 44 66 45
f 45 66 67
f 45 67 46
f 46 67 68
f 46 68 24
f 47 1 69
f 47 69 48
f 48 69 70
f 48 70 49
f 49 70 71
f 49 71 50
f 50 71 72
f 50 72 51
f 51 72 73
f 51 73 52
f 52 73 74
f 52 74 53
f 53 74 75
f 53 75 54
f 54 75 76
f 54 76 55
f 55 76 77
f 55 77 56
f 56 77 78
f 56 78 57
f 57 78 79
f 57 79 58
f 58 79 80
f 58 80 59
f 59 80 81
f 59 81 60
f 60 81 82
f 60 82 61
f 61 82 83
f 61 83 62
f 62 83 84
f 62 84 63
f 63 84 85
f 63 85 64
f 64 85 86
f 64 86 65
f 65 86 87
f 65 87 66
f 66 87 88
f 66 88 67
f 67 88 89
f 67 89 68
f 68 89 90
f 68 90 24
f 69 1 91
f 69 91 70
f 70 91 92
f 70 92 71
f 71 92 93
f 71 93 72
f 72 93 94
f 72 94 73
f 73 94 95
f 73 95 74
f 74 95 96
f 74 96 75
f 75 96 97
f 75 97 76
f 76 97 98
f 76 98 77
f 77 98 99
f 77 99 78
f 78 99 100
f 78 100 79
f 79 100 101
f 79 101 80
f 80 101 102
f 80 102 81
f 81 102 103
f 81 103 82
f 82 103 104
f 82 104 83
f 83 104 105
f 83 105 84
f 84 105 106
f 84 106 85
f 85 106 107
f 85 107 86
f 86 107 108
f 86 108 87
f 87 108 109
f 87 109 88
f 88 109 110
f 88 110 89
f 89 110 111
f 89 111 90
f 90 111 112
f 90 112 24
f 91 1 113
f 91 113 92
f 92 113 114
f 92 114 93
f 93 114 115
f 93 115 94
f 94 115 116
f 94 116 95
f 95 116 117
f 95 117 96
f 96 117 118
f 96 118 97
f 97 118 119
f 97 119 98
f 98 119 120
f 98 120 99
f 99 120 121
f 99 121 100
f 100 121 122
f 100 122 101
f 101 122 123
f 101 123 102
f 102 123 124
f 102 124 103
f 103 124 125
f 103 125 104
f 104 125 126
f 104 126 105
f 105 126 127
f 105 127 106
f 106 127 128
f 106 128 107
f 107 128 129
f 107 129 108
f 108 129 130
f 108 130 109
f 109 130 131
f 109 131 110
f 110 131 132
f 110 132 111
f 111 132 133
f 111 133 112
f 112 133 134
f 112 134 24
f 113 1 135
f 113 135 114
f 114 135 136
f 114 136 115
f 115 136 137
f 115 137 116
f 116 137 138
f 116 138 117
f 117 138 139
f 117 139 118
f 118 139 140
f 118 140 119
f 119 140 141
f 119 141 120
f 120 141 142
f 120 142 121
f 121 142 143
f 121 143 122
f 122 143 144
f 122 144 123
f 123 144 145
f 123 145 124
f 124 145 146
f 124 146 125
f 125 146 147
f 125 147 126
f 126 147 148
f 126 148 127
f 127 148 149
f 127 149 128
f 128 149 150
f 128 150 129
f 129 150 151
f 129 151 130
f 130 151 152
f 130 152 131
f 131 152 153
f 131 153 132
f 132 153 154
f 132 154 133
f 133 154 155
f 133 155 134
f 134 155 156
f 134 156 24
f 135 1 157
f 135 157 136
f 136 157 158
f 136 158 137
f 137 158 159
f 137 159 138
f 138 159 160
f 138 160 139
f 139 160 161
f 139 161 140
f 140 161 162
f 140 162 141
f 141 162 163
f 141 163 142
f 142 163 164
f 142 164 143
f 143 164 165
f 143 165 144
f 144 165 166
f 144 166 145
f 145 166 167
f 145 167 146
f 146 167 168
f 146 168 147
f 147 168 169
f 147 169 148
f 148 169 170
f 148 170 149
f 149 170 171
f 149 171 150
f 150 171 172
f 150 172 151
f 151 172 173
f 151 173 152
f 152 173 174
f 152 174 153
f 153 174 175
f 153 175 154
f 154 175 176
f 154 176 155
f 155 176 177
f 155 177 156
f 156 177 178
f 156 178 24
f 157 1 179
f 157 179 158
f 158 179 180
f 158 180 159
f 159 180 181
f 159 181 160
f 160 181 182
f 160 182 161
f 161 182 183
f 161 183 162
f 162 183 184
f 162 184 163
f 163 184 185
f 163 185 164
f 164 185 186
f 164 186 165
f 165 186 187
f 165 187 166
f 166 187 188
f 166 188 167
f 167 188 189
f 167 189 168
f 168 189 190
f 168 190 169
f 169 190 191
f 169 191 170
f 170 191 192
f 170 192 171
f 171 192 193
f 171 193 172
f 172 193 194
f 172 194 173
f 173 194 195
f 173 195 174
f 174 195 196
f 174 196 175
f 175 196 197
f 175 197 176
f 176 197 198
f 176 198 177
f 177 198 199
f 177 199 178
f 178 199 200
f 178 200 24
f 179 1 201
f 179 201 180
f 180 201 202
f 180 202 181
f 181 202 203
f 181 203 182
f 182 203 204
f 182 204 183
f 183 204 205
f 183 205 184
f 184 205 206
f 184 206 185
f 185 206 207
f 185 207 186
f 186 207 208
f 186 208 187
f 187 208 209
f 187 209 188
f 188 209 210
f 188 210 189
f 189 210 211
f 189 211 190
f 190 211 212
f 190 212 191
f 191 212 213
f 191 213 192
f 192 213 214
f 192 214 193
f 193 214 215
f 193 215 194
f 194 215 216
f 194 216 195
f 195 216 217
f 195 217 196
f 196 217 218
f 196 218 197
f 197 218 219
f 197 219 198
f 198 219 220
f 198 220 199
f 199 220 221
f 199 221 200
f 200 221 222
f 200 222 24
f 201 1 223
f 201 223 202
f 202 223 224
f 202 224 203
f 203 224 225
f 203 225 204
f 204 225 226
f 204 226 205
f 205 226 227
f 205 227 206
f 206 227 228
f 206 228 207
f 207 228 229
f 207 229 208
f 208 229 230
f 208 230 209
f 209 230 231
f 209 231 210
f 210 231 232
f 210 232 211
f 211 232 233
f 211 233 212
f 212 233 234
f 212 234 213
f 213 234 235
f 213 235 214
f 214 235 236
f 214 236 215
f 215 236 237
f 215 237 216
f 216 237 238
f 216 238 217
f 217 238 239
f 217 239 218
f 218 239 240
f 218 240 219
f 219 240 241
f 219 241 220
f 220 241 242
f 220 242 221
f 221 242 243
f 221 243 222
f 222 243 244
f 222 244 24
f 223 1 245
f 223 245 224
f 224 245 246
f 224 246 225
f 225 246 247
f 225 247 226
f 226 247 248
f 226 248 227
f 227 248 249
f 227 249 228
f 228 249 250
f 228 250 229
f 229 250 251
f 229 251 230
f 230 251 252
f 230 252 231
f 231 252 253
f 231 253 232
f 232 253 254
f 232 254 233
f 233 254 255
f 233 255 234
f 234 255 256
f 234 256 235
f 235 256 257
f 235 257 236
f 236 257 258
f 236 258 237
f 237 258 259
f 237 259 238
f 238 259 260
f 238 260 239
f 239 260 261
f 239 261 240
f 240 261 262
f 240 262 241
f 241 262 263
f 241 263 242
f 242 263 264
f 242 264 243
f 243 264 265
f 243 265 244
f 244 265 266
f 244 266 24
f 245 1 267
f 245 267 246
f 246 267 268
f 246 268 247
f 247 268 269
f 247 269 248
f 248 269 270
f 248 270 249
f 249 270 271
f 249 271 250
f 250 271 272
f 250 272 251
f 251 272 273
f 251 273 252
f 252 273 274
f 252 274 253
f 253 274 275
f 253 275 254
f 254 275 276
f 254 276 255
f 255 276 277
f 255 277 256
f 256 277 278
f 256 278 257
f 257 278 279
f 257 279 258
f 258 279 280
f 258 280 259
f 259 280 281
f 259 281 260
f 260 281 282
f 260 282 261
f 261 282 283
f 261 283 262
f 262 283 284
f 262 284 263
f 263 284 285
f 263 285 264
f 264 285 286
f 264 286 265
f 265 286 287
f 265 287 266
f 266 287 288
f 266 288 24
f 267 1 289
f 267 289 268
f 268 289 290
f 268 290 269
f 269 290 291
f 269 291 270
f 270 291 292
f 270 292 271
f 271 292 293
f 271 293 272
f 272 293 294
f 272 294 273
f 273 294 295
f 273 295 274
f 274 295 296
f 274 296 275
f 275 296 297
f 275 297 276
f 276 297 298
f 276 298 277
f 277 298 299
f 277 299 278
f 278 299 300
f 278 300 279
f 279 300 301
f 279 301 280
f 280 301 302
f 280 302 281
f 281 302 303
f 281 303 282
f 282 303 304
f 282 304 283
f 283 304 305
f 283 305 284
f 284 305 306
f 284 306 285
f 285 306 307
f 285 307 286
f 286 307 308
f 286 308 287
f 287 308 309
f 287 309 288
f 288 309 310
f 288 310 24
f 289 1 311
f 289 311 290
f 290 311 312
f 290 312 291
f 291 312 313
f 291 313 292
f 292 313 314
f 292 314 293
f 293 314 315
f 293 315 294
f 294 315 316
f 294 316 295
f 295 316 317
f 295 317 296
f 296 317 318
f 296 318 297
f 297 318 319
f 297 319 298
f 298 319 320
f 298 320 299
f 299 320 321
f 299 321 300
f 300 321 322
f 300 322 301
f 301 322 323
f 301 323 302
f 302 323 324
f 302 324 303
f 303 324 325
f 303 325 304
f 304 325 326
f 304 326 305
f 305 326 327
f 305 327 306
f 306 327 328
f 306 328 307
f 307 328 329
f 307 329 308
f 308 329 330
f 308 330 309
f 309 330 331
f 309 331 310
f 310 331 332
f 310 332 24
f 311 1 333
f 311 333 312
f 312 333 334
f 312 334 313
f 313 334 335
f 313 335 314
f 314 335 336
f 314 336 315
f 315 336 337
f 315 337 316
f 316 337 338
f 316 338 317
f 317 338 339
f 317 339 318
f 318 339 340
f 318 340 319
f 319 340 341
f 319 341 320
f 320 341 342
f 320 342 321
f 321 342 343
f 321 343 322
f 322 343 344
f 322 344 323
f 323 344 345
f 323 345 324
f 324 345 346
f 324 346 325
f 325 346 347
f 325 347 326
f 326 347 348
f 326 348 327
f 327 348 349
f 327 349 328
f 328 349 350
f 328 350 329
f 329 350 351
f 329 351 330
f 330 351 352
f 330 352 331
f 331 352 353
f 331 353 332
f 332 353 354
f 332 354 24
f 333 1 355
f 333 355 334
f 334 355 356
f 334 356 335
f 335 356 357
f 335 357 336
f 336 357 358
f 336 358 337
f 337 358 359
f 337 359 338
f 338 359 360
f 338 360 339
f 339 360 361
f 339 361 340
f 340 361 362
f 340 362 341
f 341 362 363
f 341 363 342
f 342 363 364
f 342 364 343
f 343 364 365
f 343 365 344
f 344 365 366
f 344 366 345
f 345 366 367
f 345 367 346
f 346 367 368
f 346 368 347
f 347 368 369
f 347 369 348
f 348 369 370
f 348 370 349
f 349 370 371
f 349 371 350
f 350 371 372
f 350 372 351
f 351 372 373
f 351 373 352
f 352 373 374
f 352 374 353
f 353 374 375
f 353 375 354
f 354 375 376
f 354 376 24
f 355 1 377
f 355 377 356
f 356 377 378
f 356 378 357
f 357 378 379
f 357 379 358
f 358 379 380
f 358 380 359
f 359 380 381
f 359 381 360
f 360 381 382
f 360 382 361
f 361 382 383
f 361 383 362
f 362 383 384
f 362 384 363
f 363 384 385
f 363 385 364
f 364 385 386
f 364 386 365
f 365 386 387
f 365 387 366
f 366 387 388
f 366 388 367
f 367 388 389
f 367 389 368
f 368 389 390
f 368 390 369
f 369 390 391
f 369 391 370
f 370 391 392
f 370 392 371
f 371 392 393
f 371 393 372
f 372 393 394
f 372 394 373
f 373 394 395
f 373 395 374
f 374 395 396
f 374 396 375
f 375 396 397
f 375 397 376
f 376 397 398
f 376 398 24
f 377 1 399
f 377 399 378
f 378 399 400
f 378 400 379
f 379 400 401
f 379 401 380
f 380 401 402
f 380 402 381
f 381 402 403
f 381 403 382
f 382 403 404
f 382 404 383
f 383 404 405
f 383 405 384
f 384 405 406
f 384 406 385
f 385 406 407
f 385 407 386
f 386 407 408
f 386 408 387
f 387 408 409
f 387 409 388
f 388 409 410
f 388 410 389
f 389 410 411
f 389 411 390
f 390 411 412
f 390 412 391
f 391 412 413
f 391 413 392
f 392 413 414
f 392 414 393
f 393 414 415
f 393 415 394
f 394 415 416
f 394 416 395
f 395 416 417
f 395 417 396
f 396 417 418
f 396 418 397
f 397 418 419
f 397 419 398
f 398 419 420
f 398 420 24
f 399 1 421
f 399 421 400
f 400 421 422
f 400 422 401
f 401 422 423
f 401 423 402
f 402 423 424
f 402 424 403
f 403 424 425
f 403 425 404
f 404 425 426
f 404 426 405
f 405 426 427
f 405 427 406
f 406 427 428
f 406 428 407
f 407 428 429
f 407 429 408
f 408 429 430
f 408 430 409
f 409 430 431
f 409 431 410
f 410 431 432
f 410 432 411
f 411 432 433
f 411 433 412
f 412 433 434
f 412 434 413
f 413 434 435
f 413 435 414
f 414 435 436
f 414 436 415
f 415 436 437
f 415 437 416
f 416 437 438
f 416 438 417
f 417 438 439
f 417 439 418
f 418 439 440
f 418 440 419
f 419 440 441
f 419 441 420
f 420 441 442
f 420 442 24
f 421 1 443
f 421 443 422
f 422 443 444
f 422 444 423
f 423 444 445
f 423 445 424
f 424 445 446
f 424 446 425
f 425 446 447
f 425 447 426
f 426 447 448
f 426 448 427
f 427 448 449
f 427 449 428
f 428 449 450
f 428 450 429
f 429 450 451
f 429 451 430
f 430 451 452
f 430 452 431
f 431 452 453
f 431 453 432
f 432 453 454
f 432 454 433
f 433 454 455
f 433 455 434
f 434 455 456
f 434 456 435
f 435 456 457
f 435 457 436
f 436 457 458
f 436 458 437
f 437 458 459
f 437 459 438
f 438 459 460
f 438 460 439
f 439 460 461
f 439 461 440
f 440 461 462
f 440 462 441
f 441 462 463
f 441 463 442
f 442 463 464
f 442 464 24
f 443 1 465
f 443 465 444
f 444 465 466
f 444 466 445
f 445 466 467
f 445 467 446
f 446 467 468
f 446 468 447
f 447 468 469
f 447 469 448
f 448 469 470
f 448 470 449
f 449 470 471
f 449 471 450
f 450 471 472
f 450 472 451
f 451 472 473
f 451 473 452
f 452 473 474
f 452 474 453
f 453 474 475
f 453 475 454
f 454 475 476
f 454 476 455
f 455 476 477
f 455 477 456
f 456 477 478
f 456 478 457
f 457 478 479
f 457 479 458
f 458 479 480
f 458 480 459
f 459 480 481
f 459 481 460
f 460 481 482
f 460 482 461
f 461 482 483
f 461 483 462
f 462 483 484
f 462 484 463
f 463 484 485
f 463 485 464
f 464 485 486
f 464 486 24
f 465 1 487
f 465 487 466
f 466 487 488
f 466 488 467
f 467 488 489
f 467 489 468
f 468 489 490
f 468 490 469
f 469 490 491
f 469 491 470
f 470 491 492
f 470 492 471
f 471 492 493
f 471 493 472
f 472 493 494
f 472 494 473
f 473 494 495
f 473 495 474
f 474 495 496
f 474 496 475
f 475 496 497
f 475 497 476
f 476 497 498
f 476 498 477
f 477 498 499
f 477 499 478
f 478 499 500
f 478 500 479
f 479 500 501
f 479 501 480
f 480 501 502
f 480 502 481
f 481 502 503
f 481 503 482
f 482 503 504
f 482 504 483
f 483 504 505
f 483 505 484
f 484 505 506
f 484 506 485
f 485 506 507
f 485 507 486
f 486 507 508
f 486 508 24
f 487 1 509
f 487 509 488
f 488 509 510
f 488 510 489
f 489 510 511
f 489 511 490
f 490 511 512
f 490 512 491
f 491 512 513
f 491 513 492
f 492 513 514
f 492 514 493
f 493 514 515
f 493 515 494
f 494 515 516
f 494 516 495
f 495 516 517
f 495 517 496
f 496 517 518
f 496 518 497
f 497 518 519
f 497 519 498
f 498 519 520
f 498 520 499
f 499 520 521
f 499 521 500
f 500 521 522
f 500 522 501
f 501 522 523
f 501 523 502
f 502 523 524
f 502 524 503
f 503 524 525
f 503 525 504
f 504 525 526
f 504 526 505
f 505 526 527
f 505 527 506
f 506 527 528
f 506 528 507
f 507 528 529
f 507 529 508
f 508 529 530
f 508 530 24
f 509 1 2
f 509 2 510
f 510 2 3
f 510 3 511
f 511 3 4
f 511 4 512
f 512 4 5
f 512 5 513
f 513 5 6
f 513 6 514
f 514 6 7
f 514 7 515
f 515 7 8
f 515 8 516
f 516 8 9
f 516 9 517
f 517 9 10
f 517 10 518
f 518 10 11
f 518 11 519
f 519 11 12
f 519 12 520
f 520 12 13
f 520 13 521
f 521 13 14
f 521 14 522
f 522 14 15
f 522 15 523
f 523 15 16
f 523 16 524
f 524 16 17
f 524 17 525
f 525 17 18
f 525 18 526
f 526 18 19
f 526 19 527
f 527 19 20
f 527 20 528
f 528 20 21
f 528 21 529
f 529 21 22
f 529 22 530
f 530 22 23
f 530 23 24

