# https://github.com/mikedh/trimesh
v -0.79245397 -0.73250000 2.71641818
v -0.78893344 -0.73250000 2.75372430
v -0.78311474 -0.73250000 2.78936342
v -0.77503784 -0.73250000 2.82328058
v -0.76474270 -0.73250000 2.85542082
v -0.75226930 -0.73250000 2.88572919
v -0.73765761 -0.73250000 2.91415072
v -0.72094758 -0.73250000 2.94063047
v -0.70217919 -0.73250000 2.96511347
v -0.68139241 -0.73250000 2.98754478
v -0.65862720 -0.73250000 3.00786943
v -0.63392354 -0.73250000 3.02603246
v -0.60732139 -0.73250000 3.04197893
v -0.57886072 -0.73250000 3.05565388
v -0.54858150 -0.73250000 3.06700234
v -0.51652369 -0.73250000 3.07596937
v -0.48272727 -0.73250000 3.08250000
v -0.45146383 -0.73250000 3.08651486
v -0.42116962 -0.73250000 3.08814828
v -0.39179468 -0.73250000 3.08766589
v -0.36328905 -0.73250000 3.08533330
v -0.33560276 -0.73250000 3.08141614
v -0.30868586 -0.73250000 3.07618003
v -0.28248839 -0.73250000 3.06989060
v -0.25696038 -0.73250000 3.06281345
v -0.23205188 -0.73250000 3.05521423
v -0.20771293 -0.73250000 3.04735854
v -0.18389357 -0.73250000 3.03951201
v -0.16054383 -0.73250000 3.03194026
v -0.13761375 -0.73250000 3.02490892
v -0.11505338 -0.73250000 3.01868359
v -0.09281276 -0.73250000 3.01352992
v -0.07084192 -0.73250000 3.00971352
v -0.04909091 -0.73250000 3.00750000
v -0.02230557 -0.73250000 3.00643141
v 0.00331070 -0.73250000 3.00829381
v 0.02794775 -0.73250000 3.01274832
v 0.05179542 -0.73250000 3.01945604
v 0.07504358 -0.73250000 3.02807806
v 0.09788206 -0.73250000 3.03827549
v 0.12050071 -0.73250000 3.04970944
v 0.14308939 -0.73250000 3.06204101
v 0.16583794 -0.73250000 3.07493130
v 0.18893622 -0.73250000 3.08804142
v 0.21257406 -0.73250000 3.10103246
v 0.23694132 -0.73250000 3.11356554
v 0.26222786 -0.73250000 3.12530175
v 0.28862350 -0.73250000 3.13590220
v 0.31631812 -0.73250000 3.14502799
v 0.34550155 -0.73250000 3.15234022
v 0.37636364 -0.73250000 3.15750000
v 0.41489629 -0.73250000 3.15947690
v 0.45241974 -0.73250000 3.15758854
v 0.48877412 -0.73250000 3.15201812
v 0.52379957 -0.73250000 3.14294881
v 0.55733620 -0.73250000 3.13056381
v 0.58922414 -0.73250000 3.11504631
v 0.61930352 -0.73250000 3.09657948
v 0.64741447 -0.73250000 3.07534653
v 0.67339711 -0.73250000 3.05153063
v 0.69709158 -0.73250000 3.02531498
v 0.71833799 -0.73250000 2.99688276
v 0.73697648 -0.73250000 2.96641716
v 0.75284718 -0.73250000 2.93410136
v 0.76579020 -0.73250000 2.90011856
v 0.77564569 -0.73250000 2.86465194
v 0.78225376 -0.73250000 2.82788469
v 0.78545455 -0.73250000 2.21250000
v 0.78199230 -0.73250000 2.16969214
v 0.77457321 -0.73250000 2.12867036
v 0.76331717 -0.73250000 2.08950794
v 0.74834410 -0.73250000 2.05227814
v 0.72977388 -0.73250000 2.01705424
v 0.70772644 -0.73250000 1.98390953
v 0.68232167 -0.73250000 1.95291726
v 0.65367948 -0.73250000 1.92415072
v 0.62191977 -0.73250000 1.89768319
v 0.58716244 -0.73250000 1.87358793
v 0.54952741 -0.73250000 1.85193823
v 0.50913458 -0.73250000 1.83280735
v 0.46610384 -0.73250000 1.81626857
v 0.42055511 -0.73250000 1.80239518
v 0.37260829 -0.73250000 1.79126043
v 0.32238329 -0.73250000 1.78293761
v 0.27000000 -0.73250000 1.77750000
v 0.21007105 -0.73250000 1.77628791
v 0.14881317 -0.73250000 1.77543303
v 0.08642618 -0.73250000 1.77513688
v 0.02310993 -0.73250000 1.77560096
v -0.04093574 -0.73250000 1.77702677
v -0.10551098 -0.73250000 1.77961582
v -0.17041597 -0.73250000 1.78356961
v -0.23545084 -0.73250000 1.78908966
v -0.30041578 -0.73250000 1.79637747
v -0.36511093 -0.73250000 1.80563454
v -0.42933645 -0.73250000 1.81706239
v -0.49289251 -0.73250000 1.83086251
v -0.55557926 -0.73250000 1.84723641
v -0.61719686 -0.73250000 1.86638561
v -0.67754547 -0.73250000 1.88851160
v -0.73642525 -0.73250000 1.91381590
v -0.79363636 -0.73250000 1.94250000
v -0.79363636 -0.73250000 1.94504325
v -0.79363636 -0.73250000 1.95225779
v -0.79363636 -0.73250000 1.96352076
v -0.79363636 -0.73250000 1.97820934
v -0.79363636 -0.73250000 1.99570069
v -0.79363636 -0.73250000 2.01537197
v -0.79363636 -0.73250000 2.03660035
v -0.79363636 -0.73250000 2.05876298
v -0.79363636 -0.73250000 2.08123702
v -0.79363636 -0.73250000 2.10339965
v -0.79363636 -0.73250000 2.12462803
v -0.79363636 -0.73250000 2.14429931
v -0.79363636 -0.73250000 2.16179066
v -0.79363636 -0.73250000 2.17647924
v -0.79363636 -0.73250000 2.18774221
v -0.79363636 -0.73250000 2.19495675
v -0.79363636 -0.73250000 2.19750000
v -0.79363636 -0.73250000 2.23057144
v -0.79363636 -0.73250000 2.26354213
v -0.79363636 -0.73250000 2.29631132
v -0.79363636 -0.73250000 2.32877824
v -0.79363636 -0.73250000 2.36084215
v -0.79363636 -0.73250000 2.39240230
v -0.79363636 -0.73250000 2.42335793
v -0.79363636 -0.73250000 2.45360828
v -0.79363636 -0.73250000 2.48305262
v -0.79363636 -0.73250000 2.51159017
v -0.79363636 -0.73250000 2.53912019
v -0.79363636 -0.73250000 2.56554193
v -0.79363636 -0.73250000 2.59075463
v -0.79363636 -0.73250000 2.61465754
v -0.79363636 -0.73250000 2.63714991
v -0.79363636 -0.73250000 2.65813098
v -0.79363636 -0.73250000 2.67750000
v -0.79245397 -0.67750000 2.71641818
v -0.78893344 -0.67750000 2.75372430
v -0.78311474 -0.67750000 2.78936342
v -0.77503784 -0.67750000 2.82328058
v -0.76474270 -0.67750000 2.85542082
v -0.75226930 -0.67750000 2.88572919
v -0.73765761 -0.67750000 2.91415072
v -0.72094758 -0.67750000 2.94063047
v -0.70217919 -0.67750000 2.96511347
v -0.68139241 -0.67750000 2.98754478
v -0.65862720 -0.67750000 3.00786943
v -0.63392354 -0.67750000 3.02603246
v -0.60732139 -0.67750000 3.04197893
v -0.57886072 -0.67750000 3.05565388
v -0.54858150 -0.67750000 3.06700234
v -0.51652369 -0.67750000 3.07596937
v -0.48272727 -0.67750000 3.08250000
v -0.45146383 -0.67750000 3.08651486
v -0.42116962 -0.67750000 3.08814828
v -0.39179468 -0.67750000 3.08766589
v -0.36328905 -0.67750000 3.08533330
v -0.33560276 -0.67750000 3.08141614
v -0.30868586 -0.67750000 3.07618003
v -0.28248839 -0.67750000 3.06989060
v -0.25696038 -0.67750000 3.06281345
v -0.23205188 -0.67750000 3.05521423
v -0.20771293 -0.67750000 3.04735854
v -0.18389357 -0.67750000 3.03951201
v -0.16054383 -0.67750000 3.03194026
v -0.13761375 -0.67750000 3.02490892
v -0.11505338 -0.67750000 3.01868359
v -0.09281276 -0.67750000 3.01352992
v -0.07084192 -0.67750000 3.00971352
v -0.04909091 -0.67750000 3.00750000
v -0.02230557 -0.67750000 3.00643141
v 0.00331070 -0.67750000 3.00829381
v 0.02794775 -0.67750000 3.01274832
v 0.05179542 -0.67750000 3.01945604
v 0.07504358 -0.67750000 3.02807806
v 0.09788206 -0.67750000 3.03827549
v 0.12050071 -0.67750000 3.04970944
v 0.14308939 -0.67750000 3.06204101
v 0.16583794 -0.67750000 3.07493130
v 0.18893622 -0.67750000 3.08804142
v 0.21257406 -0.67750000 3.10103246
v 0.23694132 -0.67750000 3.11356554
v 0.26222786 -0.67750000 3.12530175
v 0.28862350 -0.67750000 3.13590220
v 0.31631812 -0.67750000 3.14502799
v 0.34550155 -0.67750000 3.15234022
v 0.37636364 -0.67750000 3.15750000
v 0.41489629 -0.67750000 3.15947690
v 0.45241974 -0.67750000 3.15758854
v 0.48877412 -0.67750000 3.15201812
v 0.52379957 -0.67750000 3.14294881
v 0.55733620 -0.67750000 3.13056381
v 0.58922414 -0.67750000 3.11504631
v 0.61930352 -0.67750000 3.09657948
v 0.64741447 -0.67750000 3.07534653
v 0.67339711 -0.67750000 3.05153063
v 0.69709158 -0.67750000 3.02531498
v 0.71833799 -0.67750000 2.99688276
v 0.73697648 -0.67750000 2.96641716
v 0.75284718 -0.67750000 2.93410136
v 0.76579020 -0.67750000 2.90011856
v 0.77564569 -0.67750000 2.86465194
v 0.78225376 -0.67750000 2.82788469
v 0.78545455 -0.67750000 2.21250000
v 0.78199230 -0.67750000 2.16969214
v 0.77457321 -0.67750000 2.12867036
v 0.76331717 -0.67750000 2.08950794
v 0.74834410 -0.67750000 2.05227814
v 0.72977388 -0.67750000 2.01705424
v 0.70772644 -0.67750000 1.98390953
v 0.68232167 -0.67750000 1.95291726
v 0.65367948 -0.67750000 1.92415072
v 0.62191977 -0.67750000 1.89768319
v 0.58716244 -0.67750000 1.87358793
v 0.54952741 -0.67750000 1.85193823
v 0.50913458 -0.67750000 1.83280735
v 0.46610384 -0.67750000 1.81626857
v 0.42055511 -0.67750000 1.80239518
v 0.37260829 -0.67750000 1.79126043
v 0.32238329 -0.67750000 1.78293761
v 0.27000000 -0.67750000 1.77750000
v 0.21007105 -0.67750000 1.77628791
v 0.14881317 -0.67750000 1.77543303
v 0.08642618 -0.67750000 1.77513688
v 0.02310993 -0.67750000 1.77560096
v -0.04093574 -0.67750000 1.77702677
v -0.10551098 -0.67750000 1.77961582
v -0.17041597 -0.67750000 1.78356961
v -0.23545084 -0.67750000 1.78908966
v -0.30041578 -0.67750000 1.79637747
v -0.36511093 -0.67750000 1.80563454
v -0.42933645 -0.67750000 1.81706239
v -0.49289251 -0.67750000 1.83086251
v -0.55557926 -0.67750000 1.84723641
v -0.61719686 -0.67750000 1.86638561
v -0.67754547 -0.67750000 1.88851160
v -0.73642525 -0.67750000 1.91381590
v -0.79363636 -0.67750000 1.94250000
v -0.79363636 -0.67750000 1.94504325
v -0.79363636 -0.67750000 1.95225779
v -0.79363636 -0.67750000 1.96352076
v -0.79363636 -0.67750000 1.97820934
v -0.79363636 -0.67750000 1.99570069
v -0.79363636 -0.67750000 2.01537197
v -0.79363636 -0.67750000 2.03660035
v -0.79363636 -0.67750000 2.05876298
v -0.79363636 -0.67750000 2.08123702
v -0.79363636 -0.67750000 2.10339965
v -0.79363636 -0.67750000 2.12462803
v -0.79363636 -0.67750000 2.14429931
v -0.79363636 -0.67750000 2.16179066
v -0.79363636 -0.67750000 2.17647924
v -0.79363636 -0.67750000 2.18774221
v -0.79363636 -0.67750000 2.19495675
v -0.79363636 -0.67750000 2.19750000
v -0.79363636 -0.67750000 2.23057144
v -0.79363636 -0.67750000 2.26354213
v -0.79363636 -0.67750000 2.29631132
v -0.79363636 -0.67750000 2.32877824
v -0.79363636 -0.67750000 2.36084215
v -0.79363636 -0.67750000 2.39240230
v -0.79363636 -0.67750000 2.42335793
v -0.79363636 -0.67750000 2.45360828
v -0.79363636 -0.67750000 2.48305262
v -0.79363636 -0.67750000 2.51159017
v -0.79363636 -0.67750000 2.53912019
v -0.79363636 -0.67750000 2.56554193
v -0.79363636 -0.67750000 2.59075463
v -0.79363636 -0.67750000 2.61465754
v -0.79363636 -0.67750000 2.63714991
v -0.79363636 -0.67750000 2.65813098
v -0.79363636 -0.67750000 2.67750000
f 1 136 135
f 103 102 101
f 101 100 99
f 99 98 97
f 97 96 95
f 95 94 93
f 93 92 91
f 91 90 89
f 89 88 87
f 87 86 85
f 85 84 83
f 83 82 81
f 81 80 79
f 79 78 77
f 77 76 75
f 75 74 73
f 73 72 71
f 71 70 69
f 67 66 65
f 65 64 63
f 63 62 61
f 61 60 59
f 59 58 57
f 57 56 55
f 55 54 53
f 53 52 51
f 51 50 49
f 49 48 47
f 47 46 45
f 45 44 43
f 28 27 26
f 26 25 24
f 24 23 22
f 22 21 20
f 20 19 18
f 18 17 16
f 16 15 14
f 14 13 12
f 12 11 10
f 10 9 8
f 8 7 6
f 6 5 4
f 4 3 2
f 2 1 135
f 104 103 101
f 101 99 97
f 97 95 93
f 93 91 89
f 89 87 85
f 85 83 81
f 81 79 77
f 77 75 73
f 73 71 69
f 67 65 63
f 63 61 59
f 59 57 55
f 55 53 51
f 51 49 47
f 47 45 43
f 28 26 24
f 24 22 20
f 20 18 16
f 16 14 12
f 12 10 8
f 8 6 4
f 4 2 135
f 105 104 101
f 101 97 93
f 93 89 85
f 85 81 77
f 77 73 69
f 67 63 59
f 59 55 51
f 51 47 43
f 29 28 24
f 24 20 16
f 16 12 8
f 8 4 135
f 106 105 101
f 101 93 85
f 85 77 69
f 67 59 51
f 51 43 42
f 29 24 16
f 16 8 135
f 107 106 101
f 101 85 69
f 67 51 42
f 30 29 16
f 16 135 134
f 108 107 101
f 67 42 41
f 31 30 16
f 16 134 133
f 109 108 101
f 67 41 40
f 32 31 16
f 16 133 132
f 110 109 101
f 67 40 39
f 33 32 16
f 16 132 131
f 111 110 101
f 67 39 38
f 33 16 131
f 112 111 101
f 67 38 37
f 34 33 131
f 113 112 101
f 67 37 36
f 35 34 131
f 114 113 101
f 67 36 35
f 35 131 130
f 115 114 101
f 67 35 130
f 116 115 101
f 67 130 129
f 117 116 101
f 67 129 128
f 118 117 101
f 67 128 127
f 119 118 101
f 67 127 126
f 120 119 101
f 67 126 125
f 121 120 101
f 67 125 124
f 122 121 101
f 67 124 123
f 123 122 101
f 67 123 101
f 67 101 69
f 67 69 68
f 271 272 137
f 237 238 239
f 235 236 237
f 233 234 235
f 231 232 233
f 229 230 231
f 227 228 229
f 225 226 227
f 223 224 225
f 221 222 223
f 219 220 221
f 217 218 219
f 215 216 217
f 213 214 215
f 211 212 213
f 209 210 211
f 207 208 209
f 205 206 207
f 201 202 203
f 199 200 201
f 197 198 199
f 195 196 197
f 193 194 195
f 191 192 193
f 189 190 191
f 187 188 189
f 185 186 187
f 183 184 185
f 181 182 183
f 179 180 181
f 162 163 164
f 160 161 162
f 158 159 160
f 156 157 158
f 154 155 156
f 152 153 154
f 150 151 152
f 148 149 150
f 146 147 148
f 144 145 146
f 142 143 144
f 140 141 142
f 138 139 140
f 271 137 138
f 237 239 240
f 233 235 237
f 229 231 233
f 225 227 229
f 221 223 225
f 217 219 221
f 213 215 217
f 209 211 213
f 205 207 209
f 199 201 203
f 195 197 199
f 191 193 195
f 187 189 191
f 183 185 187
f 179 181 183
f 160 162 164
f 156 158 160
f 152 154 156
f 148 150 152
f 144 146 148
f 140 142 144
f 271 138 140
f 237 240 241
f 229 233 237
f 221 225 229
f 213 217 221
f 205 209 213
f 195 199 203
f 187 191 195
f 179 183 187
f 160 164 165
f 152 156 160
f 144 148 152
f 271 140 144
f 237 241 242
f 221 229 237
f 205 213 221
f 187 195 203
f 178 179 187
f 152 160 165
f 271 144 152
f 237 242 243
f 205 221 237
f 178 187 203
f 152 165 166
f 270 271 152
f 237 243 244
f 177 178 203
f 152 166 167
f 269 270 152
f 237 244 245
f 176 177 203
f 152 167 168
f 268 269 152
f 237 245 246
f 175 176 203
f 152 168 169
f 267 268 152
f 237 246 247
f 174 175 203
f 267 152 169
f 237 247 248
f 173 174 203
f 267 169 170
f 237 248 249
f 172 173 203
f 267 170 171
f 237 249 250
f 171 172 203
f 266 267 171
f 237 250 251
f 266 171 203
f 237 251 252
f 265 266 203
f 237 252 253
f 264 265 203
f 237 253 254
f 263 264 203
f 237 254 255
f 262 263 203
f 237 255 256
f 261 262 203
f 237 256 257
f 260 261 203
f 237 257 258
f 259 260 203
f 237 258 259
f 237 259 203
f 205 237 203
f 204 205 203
f 1 138 137
f 2 138 1
f 2 139 138
f 3 139 2
f 3 140 139
f 4 140 3
f 4 141 140
f 5 141 4
f 5 142 141
f 6 142 5
f 6 143 142
f 7 143 6
f 7 144 143
f 8 144 7
f 8 145 144
f 9 145 8
f 9 146 145
f 10 146 9
f 10 147 146
f 11 147 10
f 11 148 147
f 12 148 11
f 12 149 148
f 13 149 12
f 13 150 149
f 14 150 13
f 14 151 150
f 15 151 14
f 15 152 151
f 16 152 15
f 16 153 152
f 17 153 16
f 17 154 153
f 18 154 17
f 18 155 154
f 19 155 18
f 19 156 155
f 20 156 19
f 20 157 156
f 21 157 20
f 21 158 157
f 22 158 21
f 22 159 158
f 23 159 22
f 23 160 159
f 24 160 23
f 24 161 160
f 25 161 24
f 25 162 161
f 26 162 25
f 26 163 162
f 27 163 26
f 27 164 163
f 28 164 27
f 28 165 164
f 29 165 28
f 29 166 165
f 30 166 29
f 30 167 166
f 31 167 30
f 31 168 167
f 32 168 31
f 32 169 168
f 33 169 32
f 33 170 169
f 34 170 33
f 34 171 170
f 35 171 34
f 35 172 171
f 36 172 35
f 36 173 172
f 37 173 36
f 37 174 173
f 38 174 37
f 38 175 174
f 39 175 38
f 39 176 175
f 40 176 39
f 40 177 176
f 41 177 40
f 41 178 177
f 42 178 41
f 42 179 178
f 43 179 42
f 43 180 179
f 44 180 43
f 44 181 180
f 45 181 44
f 45 182 181
f 46 182 45
f 46 183 182
f 47 183 46
f 47 184 183
f 48 184 47
f 48 185 184
f 49 185 48
f 49 186 185
f 50 186 49
f 50 187 186
f 51 187 50
f 51 188 187
f 52 188 51
f 52 189 188
f 53 189 52
f 53 190 189
f 54 190 53
f 54 191 190
f 55 191 54
f 55 192 191
f 56 192 55
f 56 193 192
f 57 193 56
f 57 194 193
f 58 194 57
f 58 195 194
f 59 195 58
f 59 196 195
f 60 196 59
f 60 197 196
f 61 197 60
f 61 198 197
f 62 198 61
f 62 199 198
f 63 199 62
f 63 200 199
f 64 200 63
f 64 201 200
f 65 201 64
f 65 202 201
f 66 202 65
f 66 203 202
f 67 203 66
f 67 204 203
f 68 204 67
f 68 205 204
f 69 205 68
f 69 206 205
f 70 206 69
f 70 207 206
f 71 207 70
f 71 208 207
f 72 208 71
f 72 209 208
f 73 209 72
f 73 210 209
f 74 210 73
f 74 211 210
f 75 211 74
f 75 212 211
f 76 212 75
f 76 213 212
f 77 213 76
f 77 214 213
f 78 214 77
f 78 215 214
f 79 215 78
f 79 216 215
f 80 216 79
f 80 217 216
f 81 217 80
f 81 218 217
f 82 218 81
f 82 219 218
f 83 219 82
f 83 220 219
f 84 220 83
f 84 221 220
f 85 221 84
f 85 222 221
f 86 222 85
f 86 223 222
f 87 223 86
f 87 224 223
f 88 224 87
f 88 225 224
f 89 225 88
f 89 226 225
f 90 226 89
f 90 227 226
f 91 227 90
f 91 228 227
f 92 228 91
f 92 229 228
f 93 229 92
f 93 230 229
f 94 230 93
f 94 231 230
f 95 231 94
f 95 232 231
f 96 232 95
f 96 233 232
f 97 233 96
f 97 234 233
f 98 234 97
f 98 235 234
f 99 235 98
f 99 236 235
f 100 236 99
f 100 237 236
f 101 237 100
f 101 238 237
f 102 238 101
f 102 239 238
f 103 239 102
f 103 240 239
f 104 240 103
f 104 241 240
f 105 241 104
f 105 242 241
f 106 242 105
f 106 243 242
f 107 243 106
f 107 244 243
f 108 244 107
f 108 245 244
f 109 245 108
f 109 246 245
f 110 246 109
f 110 247 246
f 111 247 110
f 111 248 247
f 112 248 111
f 112 249 248
f 113 249 112
f 113 250 249
f 114 250 113
f 114 251 250
f 115 251 114
f 115 252 251
f 116 252 115
f 116 253 252
f 117 253 116
f 117 254 253
f 118 254 117
f 118 255 254
f 119 255 118
f 119 256 255
f 120 256 119
f 120 257 256
f 121 257 120
f 121 258 257
f 122 258 121
f 122 259 258
f 123 259 122
f 123 260 259
f 124 260 123
f 124 261 260
f 125 261 124
f 125 262 261
f 126 262 125
f 126 263 262
f 127 263 126
f 127 264 263
f 128 264 127
f 128 265 264
f 129 265 128
f 129 266 265
f 130 266 129
f 130 267 266
f 131 267 130
f 131 268 267
f 132 268 131
f 132 269 268
f 133 269 132
f 133 270 269
f 134 270 133
f 134 271 270
f 135 271 134
f 136 137 272
f 1 137 136
f 135 272 271
f 136 272 135

