# https://github.com/mikedh/trimesh
v 0.39368264 -0.15194794 3.50645522
v 0.52764803 -0.15194794 3.53361135
v 0.39368264 -0.28805206 3.50645522
v 0.52764803 -0.28805206 3.53361135
v 0.36264636 -0.26205849 4.00357606
v 0.36264636 -0.17794151 4.00357606
v 0.55868431 -0.26205849 3.03649052
v 0.55868431 -0.17794151 3.03649052
v 0.62962467 -0.22000000 3.24315719
v 0.50846655 -0.22000000 3.84084892
v 0.41286412 -0.22000000 3.19921765
v 0.29170600 -0.22000000 3.79690938
v 0.46066533 -0.14000000 3.52003329
v 0.46066533 -0.30000000 3.52003329
v 0.36367979 -0.28472136 3.79627161
v 0.44242267 -0.28472136 3.81223358
v 0.36367979 -0.15527864 3.79627161
v 0.44242267 -0.15527864 3.81223358
v 0.34543712 -0.22000000 4.08847190
v 0.47890800 -0.28472136 3.22783300
v 0.55765088 -0.28472136 3.24379497
v 0.47890800 -0.15527864 3.22783300
v 0.55765088 -0.15527864 3.24379497
v 0.57589355 -0.22000000 2.95159467
v 0.59934858 -0.18000000 3.36527059
v 0.59934858 -0.26000000 3.36527059
v 0.61759124 -0.24472136 3.07307030
v 0.61759124 -0.19527864 3.07307030
v 0.52813363 -0.18000000 3.71658497
v 0.52813363 -0.26000000 3.71658497
v 0.43114808 -0.24472136 3.99282330
v 0.43114808 -0.19527864 3.99282330
v 0.58807399 -0.22000000 3.54586030
v 0.39319704 -0.18000000 3.32348160
v 0.39319704 -0.26000000 3.32348160
v 0.49018259 -0.24472136 3.04724328
v 0.49018259 -0.19527864 3.04724328
v 0.32198209 -0.18000000 3.67479599
v 0.32198209 -0.26000000 3.67479599
v 0.30373943 -0.24472136 3.96699628
v 0.30373943 -0.19527864 3.96699628
v 0.33325668 -0.22000000 3.49420628
v 0.42584881 -0.14304493 3.51297563
v 0.49548186 -0.14304493 3.52709095
v 0.42584881 -0.29695507 3.51297563
v 0.49548186 -0.29695507 3.52709095
v 0.37543730 -0.28901348 3.65655984
v 0.35930514 -0.27550244 3.91495521
v 0.40967702 -0.29608452 3.66526037
v 0.48599961 -0.28901348 3.67897193
v 0.40023442 -0.27550244 3.92325199
v 0.45107460 -0.29608452 3.67365207
v 0.40008628 -0.28805206 3.81887915
v 0.37543730 -0.15098652 3.65655984
v 0.35930514 -0.16449756 3.91495521
v 0.40967702 -0.14391548 3.66526037
v 0.48599961 -0.15098652 3.67897193
v 0.40023442 -0.16449756 3.92325199
v 0.45107460 -0.14391548 3.67365207
v 0.40008628 -0.15194794 3.81887915
v 0.34982290 -0.24186132 4.06683620
v 0.34982290 -0.19813868 4.06683620
v 0.43533106 -0.28901348 3.36109464
v 0.52109625 -0.27550244 3.11681459
v 0.47025607 -0.29608452 3.36641450
v 0.54589337 -0.28901348 3.38350674
v 0.56202553 -0.27550244 3.12511137
v 0.51165365 -0.29608452 3.37480621
v 0.52124439 -0.28805206 3.22118742
v 0.43533106 -0.15098652 3.36109464
v 0.52109625 -0.16449756 3.11681459
v 0.47025607 -0.14391548 3.36641450
v 0.54589337 -0.15098652 3.38350674
v 0.56202553 -0.16449756 3.12511137
v 0.51165365 -0.14391548 3.37480621
v 0.52124439 -0.15194794 3.22118742
v 0.57150777 -0.24186132 2.97323038
v 0.57150777 -0.19813868 2.97323038
v 0.56756716 -0.16383628 3.44664780
v 0.62057297 -0.19920865 3.29567442
v 0.58456375 -0.16494472 3.29344264
v 0.56756716 -0.27616372 3.44664780
v 0.62057297 -0.24079135 3.29567442
v 0.58456375 -0.27505528 3.29344264
v 0.59318156 -0.25471109 3.03637144
v 0.63005521 -0.23284976 3.14379344
v 0.59415449 -0.26702282 3.13982386
v 0.60374522 -0.23299679 2.98620507
v 0.61607626 -0.25402603 3.20368737
v 0.59318156 -0.18528891 3.03637144
v 0.63005521 -0.20715024 3.14379344
v 0.59415449 -0.17297718 3.13982386
v 0.60374522 -0.20700321 2.98620507
v 0.61607626 -0.18597397 3.20368737
v 0.62566700 -0.22000000 3.05006859
v 0.53055078 -0.16383628 3.62925533
v 0.52058056 -0.19920865 3.78895245
v 0.48654478 -0.16494472 3.77698541
v 0.56904561 -0.17794151 3.54200306
v 0.53055078 -0.27616372 3.62925533
v 0.52058056 -0.24079135 3.78895245
v 0.48654478 -0.27505528 3.77698541
v 0.56904561 -0.26205849 3.54200306
v 0.39437407 -0.25471109 4.01711960
v 0.47016904 -0.23284976 3.93253667
v 0.43555646 -0.26702282 3.92221249
v 0.38456814 -0.23299679 4.06743957
v 0.48061738 -0.25402603 3.87192704
v 0.39437407 -0.18528891 4.01711960
v 0.47016904 -0.20715024 3.93253667
v 0.43555646 -0.17297718 3.92221249
v 0.38456814 -0.20700321 4.06743957
v 0.48061738 -0.18597397 3.87192704
v 0.42962906 -0.22000000 4.01715412
v 0.61471262 -0.22000000 3.38954204
v 0.55173659 -0.22000000 3.70021253
v 0.60055812 -0.19897076 3.45224779
v 0.60055812 -0.24102924 3.45224779
v 0.56311821 -0.19897076 3.63694469
v 0.56311821 -0.24102924 3.63694469
v 0.39077989 -0.16383628 3.41081124
v 0.40075011 -0.19920865 3.25111412
v 0.43478589 -0.16494472 3.26308117
v 0.39077989 -0.27616372 3.41081124
v 0.40075011 -0.24079135 3.25111412
v 0.43478589 -0.27505528 3.26308117
v 0.52695660 -0.25471109 3.02294698
v 0.45116163 -0.23284976 3.10752991
v 0.48577421 -0.26702282 3.11785409
v 0.53676253 -0.23299679 2.97262701
v 0.44071329 -0.25402603 3.16813954
v 0.52695660 -0.18528891 3.02294698
v 0.45116163 -0.20715024 3.10752991
v 0.48577421 -0.17297718 3.11785409
v 0.53676253 -0.20700321 2.97262701
v 0.44071329 -0.18597397 3.16813954
v 0.49170161 -0.22000000 3.02291246
v 0.35376351 -0.16383628 3.59341878
v 0.30075770 -0.19920865 3.74439215
v 0.33676692 -0.16494472 3.74662394
v 0.35228506 -0.17794151 3.49806352
v 0.35376351 -0.27616372 3.59341878
v 0.30075770 -0.24079135 3.74439215
v 0.33676692 -0.27505528 3.74662394
v 0.35228506 -0.26205849 3.49806352
v 0.32814911 -0.25471109 4.00369513
v 0.29127546 -0.23284976 3.89627314
v 0.32717618 -0.26702282 3.90024272
v 0.31758545 -0.23299679 4.05386151
v 0.30525441 -0.25402603 3.83637921
v 0.32814911 -0.18528891 4.00369513
v 0.29127546 -0.20715024 3.89627314
v 0.32717618 -0.17297718 3.90024272
v 0.31758545 -0.20700321 4.05386151
v 0.30525441 -0.18597397 3.83637921
v 0.29566367 -0.22000000 3.98999799
v 0.36959408 -0.22000000 3.33985405
v 0.30661805 -0.22000000 3.65052454
v 0.35821246 -0.19897076 3.40312189
v 0.35821246 -0.24102924 3.40312189
v 0.32077255 -0.19897076 3.58781879
v 0.32077255 -0.24102924 3.58781879
v 0.40927437 -0.14679653 3.50961583
v 0.44308902 -0.14076489 3.51647039
v 0.51205630 -0.14679653 3.53045075
v 0.47824164 -0.14076489 3.52359618
v 0.40927437 -0.29320347 3.50961583
v 0.44308902 -0.29923511 3.51647039
v 0.51205630 -0.29320347 3.53045075
v 0.47824164 -0.29923511 3.52359618
v 0.38382529 -0.28919435 3.58210097
v 0.36867905 -0.28751292 3.72840802
v 0.39985347 -0.29394437 3.58561931
v 0.36001341 -0.26925136 3.96350573
v 0.36053511 -0.28069218 3.85885290
v 0.43485339 -0.29901507 3.59355197
v 0.38575615 -0.29128052 3.73339280
v 0.41731908 -0.29731141 3.58983270
v 0.39185256 -0.29329953 3.66236751
v 0.50726941 -0.28919435 3.60712433
v 0.46424537 -0.28751292 3.74778027
v 0.49113637 -0.29394437 3.60412327
v 0.38067560 -0.26925136 3.96769416
v 0.42094881 -0.28069218 3.87109937
v 0.37870561 -0.27623256 3.92435329
v 0.45581019 -0.29901507 3.59780012
v 0.44657516 -0.29128052 3.74572142
v 0.47340871 -0.29731141 3.60120263
v 0.42996800 -0.29710890 3.67146801
v 0.46861854 -0.29329953 3.67792874
v 0.38090100 -0.28721423 3.81115963
v 0.42076321 -0.28721423 3.81924010
v 0.37885806 -0.28241635 3.87050577
v 0.40413059 -0.29303860 3.74505920
v 0.39953441 -0.28241635 3.87469707
v 0.42510807 -0.29303860 3.74931154
v 0.38382529 -0.15080565 3.58210097
v 0.36867905 -0.15248708 3.72840802
v 0.39985347 -0.14605563 3.58561931
v 0.36001341 -0.17074864 3.96350573
v 0.36053511 -0.15930782 3.85885290
v 0.43485339 -0.14098493 3.59355197
v 0.38575615 -0.14871948 3.73339280
v 0.41731908 -0.14268859 3.58983270
v 0.39185256 -0.14670047 3.66236751
v 0.50726941 -0.15080565 3.60712433
v 0.46424537 -0.15248708 3.74778027
v 0.49113637 -0.14605563 3.60412327
v 0.38067560 -0.17074864 3.96769416
v 0.42094881 -0.15930782 3.87109937
v 0.37870561 -0.16376744 3.92435329
v 0.45581019 -0.14098493 3.59780012
v 0.44657516 -0.14871948 3.74572142
v 0.47340871 -0.14268859 3.60120263
v 0.42996800 -0.14289110 3.67146801
v 0.46861854 -0.14670047 3.67792874
v 0.38090100 -0.15278577 3.81115963
v 0.42076321 -0.15278577 3.81924010
v 0.37885806 -0.15758365 3.87050577
v 0.40413059 -0.14696140 3.74505920
v 0.39953441 -0.15758365 3.87469707
v 0.42510807 -0.14696140 3.74931154
v 0.35522652 -0.25226843 4.04017930
v 0.34653883 -0.23103618 4.08303700
v 0.35522652 -0.18773157 4.04017930
v 0.34653883 -0.20896382 4.08303700
v 0.41406126 -0.28919435 3.43294225
v 0.45708530 -0.28751292 3.29228630
v 0.43019430 -0.29394437 3.43594331
v 0.54065507 -0.26925136 3.07237242
v 0.50038186 -0.28069218 3.16896721
v 0.46552048 -0.29901507 3.44226646
v 0.47475551 -0.29128052 3.29434515
v 0.44792196 -0.29731141 3.43886395
v 0.45271213 -0.29329953 3.36213784
v 0.53750538 -0.28919435 3.45796561
v 0.55265162 -0.28751292 3.31165856
v 0.52147720 -0.29394437 3.45444727
v 0.56131726 -0.26925136 3.07656085
v 0.56079556 -0.28069218 3.18121367
v 0.54262506 -0.27623256 3.11571328
v 0.48647728 -0.29901507 3.44651461
v 0.53557452 -0.29128052 3.30667378
v 0.50401159 -0.29731141 3.45023388
v 0.49136267 -0.29710890 3.36859857
v 0.52947811 -0.29329953 3.37769907
v 0.50056746 -0.28721423 3.22082648
v 0.54042967 -0.28721423 3.22890695
v 0.52179626 -0.28241635 3.16536951
v 0.49622260 -0.29303860 3.29075504
v 0.54247261 -0.28241635 3.16956081
v 0.51720008 -0.29303860 3.29500738
v 0.41406126 -0.15080565 3.43294225
v 0.45708530 -0.15248708 3.29228630
v 0.43019430 -0.14605563 3.43594331
v 0.54065507 -0.17074864 3.07237242
v 0.50038186 -0.15930782 3.16896721
v 0.46552048 -0.14098493 3.44226646
v 0.47475551 -0.14871948 3.29434515
v 0.44792196 -0.14268859 3.43886395
v 0.45271213 -0.14670047 3.36213784
v 0.53750538 -0.15080565 3.45796561
v 0.55265162 -0.15248708 3.31165856
v 0.52147720 -0.14605563 3.45444727
v 0.56131726 -0.17074864 3.07656085
v 0.56079556 -0.15930782 3.18121367
v 0.54262506 -0.16376744 3.11571328
v 0.48647728 -0.14098493 3.44651461
v 0.53557452 -0.14871948 3.30667378
v 0.50401159 -0.14268859 3.45023388
v 0.49136267 -0.14289110 3.36859857
v 0.52947811 -0.14670047 3.37769907
v 0.50056746 -0.15278577 3.22082648
v 0.54042967 -0.15278577 3.22890695
v 0.52179626 -0.15758365 3.16536951
v 0.49622260 -0.14696140 3.29075504
v 0.54247261 -0.15758365 3.16956081
v 0.51720008 -0.14696140 3.29500738
v 0.56610415 -0.25226843 2.99988727
v 0.57479184 -0.23103618 2.95702958
v 0.56610415 -0.18773157 2.99988727
v 0.57479184 -0.20896382 2.95702958
v 0.54844689 -0.15729256 3.48984090
v 0.58464324 -0.17145399 3.40485799
v 0.55799398 -0.15658806 3.41369659
v 0.62668616 -0.20950397 3.26699649
v 0.61140198 -0.18931090 3.32864260
v 0.57248399 -0.15936517 3.26548489
v 0.59359272 -0.17187992 3.32697981
v 0.56631029 -0.15732386 3.33659643
v 0.57725929 -0.16381521 3.36849356
v 0.54844689 -0.28270744 3.48984090
v 0.58464324 -0.26854601 3.40485799
v 0.55799398 -0.28341194 3.41369659
v 0.62668616 -0.23049603 3.26699649
v 0.61140198 -0.25068910 3.32864260
v 0.57248399 -0.28063483 3.26548489
v 0.59359272 -0.26812008 3.32697981
v 0.56631029 -0.28267614 3.33659643
v 0.57725929 -0.27618479 3.36849356
v 0.57704566 -0.25875533 3.03176257
v 0.60678345 -0.25000309 3.05022902
v 0.57914184 -0.26570013 3.07496260
v 0.58394533 -0.24865830 2.99802313
v 0.63147305 -0.22648690 3.19032292
v 0.62539826 -0.23896691 3.10445851
v 0.62748001 -0.23704183 3.21578355
v 0.57733913 -0.27656854 3.18771806
v 0.60768290 -0.25631924 3.10129167
v 0.57930479 -0.27179295 3.12845817
v 0.59109181 -0.27172622 3.21254836
v 0.59504396 -0.26128973 3.08362919
v 0.59142931 -0.22657940 2.96202993
v 0.61253804 -0.23909415 3.02352484
v 0.58893994 -0.23760936 2.97412805
v 0.59988894 -0.24410071 3.00602519
v 0.60954538 -0.25747439 3.28154277
v 0.61878041 -0.24973984 3.13362146
v 0.61995563 -0.24769224 3.24688405
v 0.60220028 -0.26514034 3.24491004
v 0.62474580 -0.24368037 3.17015793
v 0.60706021 -0.26107004 3.16706651
v 0.57704566 -0.18124467 3.03176257
v 0.60678345 -0.18999691 3.05022902
v 0.57914184 -0.17429987 3.07496260
v 0.58394533 -0.19134170 2.99802313
v 0.63147305 -0.21351310 3.19032292
v 0.62539826 -0.20103309 3.10445851
v 0.62748001 -0.20295817 3.21578355
v 0.63228350 -0.22000000 3.13884407
v 0.57733913 -0.16343146 3.18771806
v 0.60768290 -0.18368076 3.10129167
v 0.57930479 -0.16820705 3.12845817
v 0.59109181 -0.16827378 3.21254836
v 0.59504396 -0.17871027 3.08362919
v 0.59142931 -0.21342060 2.96202993
v 0.61253804 -0.20090585 3.02352484
v 0.58893994 -0.20239064 2.97412805
v 0.60567161 -0.22000000 2.97901776
v 0.59988894 -0.19589929 3.00602519
v 0.60954538 -0.18252561 3.28154277
v 0.61878041 -0.19026016 3.13362146
v 0.61995563 -0.19230776 3.24688405
v 0.60220028 -0.17485966 3.24491004
v 0.62474580 -0.19631963 3.17015793
v 0.60706021 -0.17892996 3.16706651
v 0.62363556 -0.23251476 3.05585463
v 0.62363556 -0.20748524 3.05585463
v 0.62959078 -0.22649135 3.09255393
v 0.61678007 -0.22658589 3.01137944
v 0.62959078 -0.21350865 3.09255393
v 0.61678007 -0.21341411 3.01137944
v 0.52976003 -0.15729256 3.58202606
v 0.53000517 -0.17145399 3.67439603
v 0.50890150 -0.15658806 3.65587744
v 0.55022177 -0.16309746 3.53818728
v 0.51504347 -0.20950397 3.81774717
v 0.52497194 -0.18931090 3.75501541
v 0.46453132 -0.15936517 3.79803212
v 0.50792100 -0.17187992 3.74961168
v 0.48653710 -0.15732386 3.73012991
v 0.50904313 -0.16381521 3.70501445
v 0.58573693 -0.17845932 3.45280918
v 0.54968561 -0.17845932 3.63065596
v 0.56941995 -0.17038083 3.49405948
v 0.55072029 -0.17038083 3.58630780
v 0.52976003 -0.28270744 3.58202606
v 0.53000517 -0.26854601 3.67439603
v 0.50890150 -0.28341194 3.65587744
v 0.55022177 -0.27690254 3.53818728
v 0.51504347 -0.23049603 3.81774717
v 0.52497194 -0.25068910 3.75501541
v 0.46453132 -0.28063483 3.79803212
v 0.50792100 -0.26812008 3.74961168
v 0.48653710 -0.28267614 3.73012991
v 0.50904313 -0.27618479 3.70501445
v 0.58573693 -0.26154068 3.45280918
v 0.54968561 -0.26154068 3.63065596
v 0.56941995 -0.26961917 3.49405948
v 0.55072029 -0.26961917 3.58630780
v 0.37771714 -0.25875533 4.01508104
v 0.41229863 -0.25000309 4.00965276
v 0.39647074 -0.26570013 3.97610746
v 0.37093340 -0.24865830 4.04884398
v 0.48959439 -0.22648690 3.89023231
v 0.45056196 -0.23896691 3.96695303
v 0.49583140 -0.23704183 3.86522655
v 0.43871937 -0.27656854 3.87155080
v 0.43301181 -0.25631924 3.96297119
v 0.41745297 -0.27179295 3.92689824
v 0.46105581 -0.27172622 3.85403613
v 0.41449249 -0.26128973 3.97431759
v 0.36381018 -0.22657940 4.08491031
v 0.40719986 -0.23909415 4.03648987
v 0.36622855 -0.23760936 4.07279779
v 0.38873458 -0.24410071 4.04768233
v 0.50492035 -0.25747439 3.79767423
v 0.45582311 -0.24973984 3.93751506
v 0.50101209 -0.24769224 3.83365097
v 0.48388961 -0.26514034 3.82855489
v 0.47554557 -0.24368037 3.90618577
v 0.45805220 -0.26107004 3.90214607
v 0.37771714 -0.18124467 4.01508104
v 0.41229863 -0.18999691 4.00965276
v 0.39647074 -0.17429987 3.97610746
v 0.37093340 -0.19134170 4.04884398
v 0.48959439 -0.21351310 3.89023231
v 0.45056196 -0.20103309 3.96695303
v 0.49583140 -0.20295817 3.86522655
v 0.47029406 -0.22000000 3.93796307
v 0.43871937 -0.16343146 3.87155080
v 0.43301181 -0.18368076 3.96297119
v 0.41745297 -0.16820705 3.92689824
v 0.46105581 -0.16827378 3.85403613
v 0.41449249 -0.17871027 3.97431759
v 0.36381018 -0.21342060 4.08491031
v 0.40719986 -0.20090585 4.03648987
v 0.36622855 -0.20239064 4.07279779
v 0.38354359 -0.22000000 4.07480969
v 0.38873458 -0.19589929 4.04768233
v 0.50492035 -0.18252561 3.79767423
v 0.45582311 -0.19026016 3.93751506
v 0.50101209 -0.19230776 3.83365097
v 0.48388961 -0.17485966 3.82855489
v 0.47554557 -0.19631963 3.90618577
v 0.45805220 -0.17892996 3.90214607
v 0.43001117 -0.23251476 4.01103374
v 0.43001117 -0.20748524 4.01103374
v 0.44978767 -0.22649135 3.97955052
v 0.40637739 -0.22658589 4.04932845
v 0.44978767 -0.21350865 3.97955052
v 0.40637739 -0.21341411 4.04932845
v 0.62372770 -0.22000000 3.31438337
v 0.60275181 -0.22000000 3.46719599
v 0.61970780 -0.20946757 3.34027424
v 0.61970780 -0.23053243 3.34027424
v 0.53077187 -0.22000000 3.77294888
v 0.57095983 -0.22000000 3.62403075
v 0.53715168 -0.20946757 3.74753640
v 0.53715168 -0.23053243 3.74753640
v 0.60168959 -0.18910501 3.40737214
v 0.59598203 -0.20935431 3.49879254
v 0.61211629 -0.19887338 3.37244996
v 0.58647321 -0.18803144 3.49681700
v 0.60915581 -0.20937660 3.41986930
v 0.60168959 -0.25089499 3.40737214
v 0.59598203 -0.23064569 3.49879254
v 0.61211629 -0.24112662 3.37244996
v 0.58647321 -0.25196856 3.49681700
v 0.60915581 -0.23062340 3.41986930
v 0.54668496 -0.18910501 3.67871851
v 0.57702873 -0.20935431 3.59229212
v 0.54268925 -0.19887338 3.71494432
v 0.56750121 -0.18803144 3.59040880
v 0.55842842 -0.20937660 3.67011534
v 0.58346960 -0.19868762 3.54492695
v 0.54668496 -0.25089499 3.67871851
v 0.57702873 -0.23064569 3.59229212
v 0.54268925 -0.24112662 3.71494432
v 0.56750121 -0.25196856 3.59040880
v 0.55842842 -0.23062340 3.67011534
v 0.58346960 -0.24131238 3.54492695
v 0.39157064 -0.15729256 3.45804051
v 0.39132550 -0.17145399 3.36567054
v 0.41242917 -0.15658806 3.38418914
v 0.40628720 -0.20950397 3.22231941
v 0.39635873 -0.18931090 3.28505117
v 0.45679935 -0.15936517 3.24203445
v 0.41340967 -0.17187992 3.29045489
v 0.43479357 -0.15732386 3.30993667
v 0.41228754 -0.16381521 3.33505213
v 0.39157064 -0.28270744 3.45804051
v 0.39132550 -0.26854601 3.36567054
v 0.41242917 -0.28341194 3.38418914
v 0.40628720 -0.23049603 3.22231941
v 0.39635873 -0.25068910 3.28505117
v 0.45679935 -0.28063483 3.24203445
v 0.41340967 -0.26812008 3.29045489
v 0.43479357 -0.28267614 3.30993667
v 0.41228754 -0.27618479 3.33505213
v 0.54361353 -0.25875533 3.02498554
v 0.50903204 -0.25000309 3.03041382
v 0.52485993 -0.26570013 3.06395911
v 0.55039727 -0.24865830 2.99122260
v 0.43173628 -0.22648690 3.14983427
v 0.47076871 -0.23896691 3.07311355
v 0.42549927 -0.23704183 3.17484002
v 0.48261130 -0.27656854 3.16851578
v 0.48831886 -0.25631924 3.07709538
v 0.50387770 -0.27179295 3.11316834
v 0.46027486 -0.27172622 3.18603045
v 0.50683818 -0.26128973 3.06574899
v 0.55752049 -0.22657940 2.95515627
v 0.51413081 -0.23909415 3.00357671
v 0.55510211 -0.23760936 2.96726879
v 0.53259608 -0.24410071 2.99238425
v 0.41641032 -0.25747439 3.24239235
v 0.46550756 -0.24973984 3.10255152
v 0.42031858 -0.24769224 3.20641561
v 0.43744106 -0.26514034 3.21151169
v 0.44578510 -0.24368037 3.13388080
v 0.46327847 -0.26107004 3.13792050
v 0.54361353 -0.18124467 3.02498554
v 0.50903204 -0.18999691 3.03041382
v 0.52485993 -0.17429987 3.06395911
v 0.55039727 -0.19134170 2.99122260
v 0.43173628 -0.21351310 3.14983427
v 0.47076871 -0.20103309 3.07311355
v 0.42549927 -0.20295817 3.17484002
v 0.45103661 -0.22000000 3.10210351
v 0.48261130 -0.16343146 3.16851578
v 0.48831886 -0.18368076 3.07709538
v 0.50387770 -0.16820705 3.11316834
v 0.46027486 -0.16827378 3.18603045
v 0.50683818 -0.17871027 3.06574899
v 0.55752049 -0.21342060 2.95515627
v 0.51413081 -0.20090585 3.00357671
v 0.55510211 -0.20239064 2.96726879
v 0.53778708 -0.22000000 2.96525689
v 0.53259608 -0.19589929 2.99238425
v 0.41641032 -0.18252561 3.24239235
v 0.46550756 -0.19026016 3.10255152
v 0.42031858 -0.19230776 3.20641561
v 0.43744106 -0.17485966 3.21151169
v 0.44578510 -0.19631963 3.13388080
v 0.46327847 -0.17892996 3.13792050
v 0.49131950 -0.23251476 3.02903284
v 0.49131950 -0.20748524 3.02903284
v 0.47154300 -0.22649135 3.06051606
v 0.51495328 -0.22658589 2.99073813
v 0.47154300 -0.21350865 3.06051606
v 0.51495328 -0.21341411 2.99073813
v 0.37288378 -0.15729256 3.55022567
v 0.33668743 -0.17145399 3.63520859
v 0.36333669 -0.15658806 3.62636999
v 0.37110890 -0.16309746 3.50187930
v 0.29464451 -0.20950397 3.77307008
v 0.30992869 -0.18931090 3.71142398
v 0.34884668 -0.15936517 3.77458169
v 0.32773795 -0.17187992 3.71308677
v 0.35502038 -0.15732386 3.70347015
v 0.34407138 -0.16381521 3.67157301
v 0.37164506 -0.17845932 3.40941061
v 0.33559374 -0.17845932 3.58725739
v 0.37061038 -0.17038083 3.45375878
v 0.35191071 -0.17038083 3.54600710
v 0.37288378 -0.28270744 3.55022567
v 0.33668743 -0.26854601 3.63520859
v 0.36333669 -0.28341194 3.62636999
v 0.37110890 -0.27690254 3.50187930
v 0.29464451 -0.23049603 3.77307008
v 0.30992869 -0.25068910 3.71142398
v 0.34884668 -0.28063483 3.77458169
v 0.32773795 -0.26812008 3.71308677
v 0.35502038 -0.28267614 3.70347015
v 0.34407138 -0.27618479 3.67157301
v 0.37164506 -0.26154068 3.40941061
v 0.33559374 -0.26154068 3.58725739
v 0.37061038 -0.26961917 3.45375878
v 0.35191071 -0.26961917 3.54600710
v 0.34428501 -0.25875533 4.00830401
v 0.31454721 -0.25000309 3.98983756
v 0.34218882 -0.26570013 3.96510397
v 0.33738533 -0.24865830 4.04204345
v 0.28985762 -0.22648690 3.84974366
v 0.29593241 -0.23896691 3.93560807
v 0.29385066 -0.23704183 3.82428303
v 0.34399154 -0.27656854 3.85234852
v 0.31364777 -0.25631924 3.93877491
v 0.34202588 -0.27179295 3.91160841
v 0.33023886 -0.27172622 3.82751822
v 0.32628671 -0.26128973 3.95643739
v 0.32990136 -0.22657940 4.07803665
v 0.30879263 -0.23909415 4.01654174
v 0.33239073 -0.23760936 4.06593853
v 0.32144173 -0.24410071 4.03404139
v 0.31178529 -0.25747439 3.75852381
v 0.30255026 -0.24973984 3.90644512
v 0.30137504 -0.24769224 3.79318253
v 0.31913039 -0.26514034 3.79515654
v 0.29658487 -0.24368037 3.86990864
v 0.31427046 -0.26107004 3.87300007
v 0.34428501 -0.18124467 4.00830401
v 0.31454721 -0.18999691 3.98983756
v 0.34218882 -0.17429987 3.96510397
v 0.33738533 -0.19134170 4.04204345
v 0.28985762 -0.21351310 3.84974366
v 0.29593241 -0.20103309 3.93560807
v 0.29385066 -0.20295817 3.82428303
v 0.28904717 -0.22000000 3.90122251
v 0.34399154 -0.16343146 3.85234852
v 0.31364777 -0.18368076 3.93877491
v 0.34202588 -0.16820705 3.91160841
v 0.33023886 -0.16827378 3.82751822
v 0.32628671 -0.17871027 3.95643739
v 0.32990136 -0.21342060 4.07803665
v 0.30879263 -0.20090585 4.01654174
v 0.33239073 -0.20239064 4.06593853
v 0.31565906 -0.22000000 4.06104881
v 0.32144173 -0.19589929 4.03404139
v 0.31178529 -0.18252561 3.75852381
v 0.30255026 -0.19026016 3.90644512
v 0.30137504 -0.19230776 3.79318253
v 0.31913039 -0.17485966 3.79515654
v 0.29658487 -0.19631963 3.86990864
v 0.31427046 -0.17892996 3.87300007
v 0.29769511 -0.23251476 3.98421195
v 0.29769511 -0.20748524 3.98421195
v 0.29173989 -0.22649135 3.94751265
v 0.30455060 -0.22658589 4.02868714
v 0.29173989 -0.21350865 3.94751265
v 0.30455060 -0.21341411 4.02868714
v 0.39055880 -0.22000000 3.26711769
v 0.35037084 -0.22000000 3.41603583
v 0.38417899 -0.20946757 3.29253018
v 0.38417899 -0.23053243 3.29253018
v 0.29760297 -0.22000000 3.72568321
v 0.31857886 -0.22000000 3.57287059
v 0.30162287 -0.20946757 3.69979234
v 0.30162287 -0.23053243 3.69979234
v 0.37464571 -0.18910501 3.36134807
v 0.34430194 -0.20935431 3.44777446
v 0.37864142 -0.19887338 3.32512226
v 0.35382946 -0.18803144 3.44965778
v 0.36290224 -0.20937660 3.36995124
v 0.37464571 -0.25089499 3.36134807
v 0.34430194 -0.23064569 3.44777446
v 0.37864142 -0.24112662 3.32512226
v 0.35382946 -0.25196856 3.44965778
v 0.36290224 -0.23062340 3.36995124
v 0.31964108 -0.18910501 3.63269444
v 0.32534864 -0.20935431 3.54127404
v 0.30921437 -0.19887338 3.66761662
v 0.33485746 -0.18803144 3.54324958
v 0.31217486 -0.20937660 3.62019727
v 0.33786107 -0.19868762 3.49513963
v 0.31964108 -0.25089499 3.63269444
v 0.32534864 -0.23064569 3.54127404
v 0.30921437 -0.24112662 3.66761662
v 0.33485746 -0.25196856 3.54324958
v 0.31217486 -0.23062340 3.62019727
v 0.33786107 -0.24131238 3.49513963
f 1 533 197
f 533 138 535
f 197 535 54
f 533 535 197
f 138 534 542
f 534 38 540
f 542 540 140
f 534 540 542
f 54 541 198
f 541 140 539
f 198 539 17
f 541 539 198
f 138 542 535
f 542 140 541
f 535 541 54
f 542 541 535
f 38 538 601
f 538 139 603
f 601 603 155
f 538 603 601
f 139 537 589
f 537 12 587
f 589 587 152
f 537 587 589
f 155 605 602
f 605 152 588
f 602 588 41
f 605 588 602
f 139 589 603
f 589 152 605
f 603 605 155
f 589 605 603
f 17 591 201
f 591 153 593
f 201 593 55
f 591 593 201
f 153 592 595
f 592 41 584
f 595 584 151
f 592 584 595
f 55 585 200
f 585 151 583
f 200 583 6
f 585 583 200
f 153 595 593
f 595 151 585
f 593 585 55
f 595 585 593
f 38 601 540
f 601 155 604
f 540 604 140
f 601 604 540
f 155 602 606
f 602 41 592
f 606 592 153
f 602 592 606
f 140 594 539
f 594 153 591
f 539 591 17
f 594 591 539
f 155 606 604
f 606 153 594
f 604 594 140
f 606 594 604
f 1 197 163
f 197 54 199
f 163 199 43
f 197 199 163
f 54 198 205
f 198 17 203
f 205 203 56
f 198 203 205
f 43 204 164
f 204 56 202
f 164 202 13
f 204 202 164
f 54 205 199
f 205 56 204
f 199 204 43
f 205 204 199
f 17 201 217
f 201 55 219
f 217 219 60
f 201 219 217
f 55 200 211
f 200 6 209
f 211 209 58
f 200 209 211
f 60 221 218
f 221 58 210
f 218 210 18
f 221 210 218
f 55 211 219
f 211 58 221
f 219 221 60
f 211 221 219
f 13 212 166
f 212 59 214
f 166 214 44
f 212 214 166
f 59 213 216
f 213 18 207
f 216 207 57
f 213 207 216
f 44 208 165
f 208 57 206
f 165 206 2
f 208 206 165
f 59 216 214
f 216 57 208
f 214 208 44
f 216 208 214
f 17 217 203
f 217 60 220
f 203 220 56
f 217 220 203
f 60 218 222
f 218 18 213
f 222 213 59
f 218 213 222
f 56 215 202
f 215 59 212
f 202 212 13
f 215 212 202
f 60 222 220
f 222 59 215
f 220 215 56
f 222 215 220
f 1 163 253
f 163 43 255
f 253 255 70
f 163 255 253
f 43 164 260
f 164 13 258
f 260 258 72
f 164 258 260
f 70 261 254
f 261 72 259
f 254 259 22
f 261 259 254
f 43 260 255
f 260 72 261
f 255 261 70
f 260 261 255
f 13 166 268
f 166 44 270
f 268 270 75
f 166 270 268
f 44 165 264
f 165 2 262
f 264 262 73
f 165 262 264
f 75 272 269
f 272 73 263
f 269 263 23
f 272 263 269
f 44 264 270
f 264 73 272
f 270 272 75
f 264 272 270
f 22 273 257
f 273 76 275
f 257 275 71
f 273 275 257
f 76 274 277
f 274 23 266
f 277 266 74
f 274 266 277
f 71 267 256
f 267 74 265
f 256 265 8
f 267 265 256
f 76 277 275
f 277 74 267
f 275 267 71
f 277 267 275
f 13 268 258
f 268 75 271
f 258 271 72
f 268 271 258
f 75 269 278
f 269 23 274
f 278 274 76
f 269 274 278
f 72 276 259
f 276 76 273
f 259 273 22
f 276 273 259
f 75 278 271
f 278 76 276
f 271 276 72
f 278 276 271
f 1 253 463
f 253 70 465
f 463 465 121
f 253 465 463
f 70 254 470
f 254 22 468
f 470 468 123
f 254 468 470
f 121 471 464
f 471 123 469
f 464 469 34
f 471 469 464
f 70 470 465
f 470 123 471
f 465 471 121
f 470 471 465
f 22 257 511
f 257 71 513
f 511 513 134
f 257 513 511
f 71 256 505
f 256 8 503
f 505 503 132
f 256 503 505
f 134 515 512
f 515 132 504
f 512 504 37
f 515 504 512
f 71 505 513
f 505 132 515
f 513 515 134
f 505 515 513
f 34 521 467
f 521 136 523
f 467 523 122
f 521 523 467
f 136 522 525
f 522 37 508
f 525 508 133
f 522 508 525
f 122 509 466
f 509 133 507
f 466 507 11
f 509 507 466
f 136 525 523
f 525 133 509
f 523 509 122
f 525 509 523
f 22 511 468
f 511 134 514
f 468 514 123
f 511 514 468
f 134 512 526
f 512 37 522
f 526 522 136
f 512 522 526
f 123 524 469
f 524 136 521
f 469 521 34
f 524 521 469
f 134 526 514
f 526 136 524
f 514 524 123
f 526 524 514
f 1 463 533
f 463 121 536
f 533 536 138
f 463 536 533
f 121 464 545
f 464 34 543
f 545 543 141
f 464 543 545
f 138 546 534
f 546 141 544
f 534 544 38
f 546 544 534
f 121 545 536
f 545 141 546
f 536 546 138
f 545 546 536
f 34 467 621
f 467 122 623
f 621 623 159
f 467 623 621
f 122 466 615
f 466 11 613
f 615 613 157
f 466 613 615
f 159 625 622
f 625 157 614
f 622 614 42
f 625 614 622
f 122 615 623
f 615 157 625
f 623 625 159
f 615 625 623
f 38 631 538
f 631 161 633
f 538 633 139
f 631 633 538
f 161 632 635
f 632 42 618
f 635 618 158
f 632 618 635
f 139 619 537
f 619 158 617
f 537 617 12
f 619 617 537
f 161 635 633
f 635 158 619
f 633 619 139
f 635 619 633
f 34 621 543
f 621 159 624
f 543 624 141
f 621 624 543
f 159 622 636
f 622 42 632
f 636 632 161
f 622 632 636
f 141 634 544
f 634 161 631
f 544 631 38
f 634 631 544
f 159 636 624
f 636 161 634
f 624 634 141
f 636 634 624
f 2 206 353
f 206 57 355
f 353 355 96
f 206 355 353
f 57 207 361
f 207 18 359
f 361 359 98
f 207 359 361
f 96 362 354
f 362 98 360
f 354 360 29
f 362 360 354
f 57 361 355
f 361 98 362
f 355 362 96
f 361 362 355
f 18 210 411
f 210 58 413
f 411 413 111
f 210 413 411
f 58 209 405
f 209 6 403
f 405 403 109
f 209 403 405
f 111 415 412
f 415 109 404
f 412 404 32
f 415 404 412
f 58 405 413
f 405 109 415
f 413 415 111
f 405 415 413
f 29 421 358
f 421 113 423
f 358 423 97
f 421 423 358
f 113 422 425
f 422 32 408
f 425 408 110
f 422 408 425
f 97 409 357
f 409 110 407
f 357 407 10
f 409 407 357
f 113 425 423
f 425 110 409
f 423 409 97
f 425 409 423
f 18 411 359
f 411 111 414
f 359 414 98
f 411 414 359
f 111 412 426
f 412 32 422
f 426 422 113
f 412 422 426
f 98 424 360
f 424 113 421
f 360 421 29
f 424 421 360
f 111 426 414
f 426 113 424
f 414 424 98
f 426 424 414
f 6 583 225
f 583 151 586
f 225 586 62
f 583 586 225
f 151 584 600
f 584 41 597
f 600 597 154
f 584 597 600
f 62 598 226
f 598 154 596
f 226 596 19
f 598 596 226
f 151 600 586
f 600 154 598
f 586 598 62
f 600 598 586
f 41 588 608
f 588 152 611
f 608 611 156
f 588 611 608
f 152 587 590
f 587 12 565
f 590 565 147
f 587 565 590
f 156 609 607
f 609 147 566
f 607 566 40
f 609 566 607
f 152 590 611
f 590 147 609
f 611 609 156
f 590 609 611
f 19 573 224
f 573 149 575
f 224 575 61
f 573 575 224
f 149 574 576
f 574 40 562
f 576 562 146
f 574 562 576
f 61 564 223
f 564 146 561
f 223 561 5
f 564 561 223
f 149 576 575
f 576 146 564
f 575 564 61
f 576 564 575
f 41 608 597
f 608 156 612
f 597 612 154
f 608 612 597
f 156 607 610
f 607 40 574
f 610 574 149
f 607 574 610
f 154 599 596
f 599 149 573
f 596 573 19
f 599 573 596
f 156 610 612
f 610 149 599
f 612 599 154
f 610 599 612
f 12 617 551
f 617 158 620
f 551 620 143
f 617 620 551
f 158 618 641
f 618 42 638
f 641 638 162
f 618 638 641
f 143 639 552
f 639 162 637
f 552 637 39
f 639 637 552
f 158 641 620
f 641 162 639
f 620 639 143
f 641 639 620
f 42 614 627
f 614 157 630
f 627 630 160
f 614 630 627
f 157 613 616
f 613 11 475
f 616 475 125
f 613 475 616
f 160 628 626
f 628 125 476
f 626 476 35
f 628 476 626
f 157 616 630
f 616 125 628
f 630 628 160
f 616 628 630
f 39 558 548
f 558 145 560
f 548 560 142
f 558 560 548
f 145 557 559
f 557 35 473
f 559 473 124
f 557 473 559
f 142 550 547
f 550 124 472
f 547 472 3
f 550 472 547
f 145 559 560
f 559 124 550
f 560 550 142
f 559 550 560
f 42 627 638
f 627 160 642
f 638 642 162
f 627 642 638
f 160 626 629
f 626 35 557
f 629 557 145
f 626 557 629
f 162 640 637
f 640 145 558
f 637 558 39
f 640 558 637
f 160 629 642
f 629 145 640
f 642 640 162
f 629 640 642
f 11 507 485
f 507 133 510
f 485 510 128
f 507 510 485
f 133 508 531
f 508 37 528
f 531 528 137
f 508 528 531
f 128 529 486
f 529 137 527
f 486 527 36
f 529 527 486
f 133 531 510
f 531 137 529
f 510 529 128
f 531 529 510
f 37 504 517
f 504 132 520
f 517 520 135
f 504 520 517
f 132 503 506
f 503 8 281
f 506 281 78
f 503 281 506
f 135 518 516
f 518 78 282
f 516 282 24
f 518 282 516
f 132 506 520
f 506 78 518
f 520 518 135
f 506 518 520
f 36 494 482
f 494 130 496
f 482 496 127
f 494 496 482
f 130 493 495
f 493 24 280
f 495 280 77
f 493 280 495
f 127 484 481
f 484 77 279
f 481 279 7
f 484 279 481
f 130 495 496
f 495 77 484
f 496 484 127
f 495 484 496
f 37 517 528
f 517 135 532
f 528 532 137
f 517 532 528
f 135 516 519
f 516 24 493
f 519 493 130
f 516 493 519
f 137 530 527
f 530 130 494
f 527 494 36
f 530 494 527
f 135 519 532
f 519 130 530
f 532 530 137
f 519 530 532
f 8 265 323
f 265 74 325
f 323 325 90
f 265 325 323
f 74 266 333
f 266 23 331
f 333 331 92
f 266 331 333
f 90 335 324
f 335 92 332
f 324 332 28
f 335 332 324
f 74 333 325
f 333 92 335
f 325 335 90
f 333 335 325
f 23 263 288
f 263 73 290
f 288 290 81
f 263 290 288
f 73 262 285
f 262 2 283
f 285 283 79
f 262 283 285
f 81 291 289
f 291 79 284
f 289 284 25
f 291 284 289
f 73 285 290
f 285 79 291
f 290 291 81
f 285 291 290
f 28 342 328
f 342 94 345
f 328 345 91
f 342 345 328
f 94 341 343
f 341 25 287
f 343 287 80
f 341 287 343
f 91 329 327
f 329 80 286
f 327 286 9
f 329 286 327
f 94 343 345
f 343 80 329
f 345 329 91
f 343 329 345
f 23 288 331
f 288 81 334
f 331 334 92
f 288 334 331
f 81 289 344
f 289 25 341
f 344 341 94
f 289 341 344
f 92 346 332
f 346 94 342
f 332 342 28
f 346 342 332
f 81 344 334
f 344 94 346
f 334 346 92
f 344 346 334
f 4 367 180
f 367 100 369
f 180 369 50
f 367 369 180
f 100 368 376
f 368 30 374
f 376 374 102
f 368 374 376
f 50 375 181
f 375 102 373
f 181 373 16
f 375 373 181
f 100 376 369
f 376 102 375
f 369 375 50
f 376 375 369
f 30 372 397
f 372 101 399
f 397 399 108
f 372 399 397
f 101 371 387
f 371 10 385
f 387 385 105
f 371 385 387
f 108 401 398
f 401 105 386
f 398 386 31
f 401 386 398
f 101 387 399
f 387 105 401
f 399 401 108
f 387 401 399
f 16 388 184
f 388 106 390
f 184 390 51
f 388 390 184
f 106 389 392
f 389 31 382
f 392 382 104
f 389 382 392
f 51 383 183
f 383 104 381
f 183 381 5
f 383 381 183
f 106 392 390
f 392 104 383
f 390 383 51
f 392 383 390
f 30 397 374
f 397 108 400
f 374 400 102
f 397 400 374
f 108 398 402
f 398 31 389
f 402 389 106
f 398 389 402
f 102 391 373
f 391 106 388
f 373 388 16
f 391 388 373
f 108 402 400
f 402 106 391
f 400 391 102
f 402 391 400
f 4 180 169
f 180 50 182
f 169 182 46
f 180 182 169
f 50 181 190
f 181 16 187
f 190 187 52
f 181 187 190
f 46 188 170
f 188 52 186
f 170 186 14
f 188 186 170
f 50 190 182
f 190 52 188
f 182 188 46
f 190 188 182
f 16 184 192
f 184 51 195
f 192 195 53
f 184 195 192
f 51 183 185
f 183 5 174
f 185 174 48
f 183 174 185
f 53 193 191
f 193 48 175
f 191 175 15
f 193 175 191
f 51 185 195
f 185 48 193
f 195 193 53
f 185 193 195
f 14 176 168
f 176 49 178
f 168 178 45
f 176 178 168
f 49 177 179
f 177 15 172
f 179 172 47
f 177 172 179
f 45 173 167
f 173 47 171
f 167 171 3
f 173 171 167
f 49 179 178
f 179 47 173
f 178 173 45
f 179 173 178
f 16 192 187
f 192 53 196
f 187 196 52
f 192 196 187
f 53 191 194
f 191 15 177
f 194 177 49
f 191 177 194
f 52 189 186
f 189 49 176
f 186 176 14
f 189 176 186
f 53 194 196
f 194 49 189
f 196 189 52
f 194 189 196
f 4 169 236
f 169 46 238
f 236 238 66
f 169 238 236
f 46 170 244
f 170 14 242
f 244 242 68
f 170 242 244
f 66 246 237
f 246 68 243
f 237 243 21
f 246 243 237
f 46 244 238
f 244 68 246
f 238 246 66
f 244 246 238
f 14 168 232
f 168 45 234
f 232 234 65
f 168 234 232
f 45 167 229
f 167 3 227
f 229 227 63
f 167 227 229
f 65 235 233
f 235 63 228
f 233 228 20
f 235 228 233
f 45 229 234
f 229 63 235
f 234 235 65
f 229 235 234
f 21 248 240
f 248 69 251
f 240 251 67
f 248 251 240
f 69 247 249
f 247 20 231
f 249 231 64
f 247 231 249
f 67 241 239
f 241 64 230
f 239 230 7
f 241 230 239
f 69 249 251
f 249 64 241
f 251 241 67
f 249 241 251
f 14 232 242
f 232 65 245
f 242 245 68
f 232 245 242
f 65 233 250
f 233 20 247
f 250 247 69
f 233 247 250
f 68 252 243
f 252 69 248
f 243 248 21
f 252 248 243
f 65 250 245
f 250 69 252
f 245 252 68
f 250 252 245
f 4 236 292
f 236 66 294
f 292 294 82
f 236 294 292
f 66 237 299
f 237 21 297
f 299 297 84
f 237 297 299
f 82 300 293
f 300 84 298
f 293 298 26
f 300 298 293
f 66 299 294
f 299 84 300
f 294 300 82
f 299 300 294
f 21 240 308
f 240 67 310
f 308 310 87
f 240 310 308
f 67 239 303
f 239 7 301
f 303 301 85
f 239 301 303
f 87 312 309
f 312 85 302
f 309 302 27
f 312 302 309
f 67 303 310
f 303 85 312
f 310 312 87
f 303 312 310
f 26 317 296
f 317 89 319
f 296 319 83
f 317 319 296
f 89 318 321
f 318 27 306
f 321 306 86
f 318 306 321
f 83 307 295
f 307 86 305
f 295 305 9
f 307 305 295
f 89 321 319
f 321 86 307
f 319 307 83
f 321 307 319
f 21 308 297
f 308 87 311
f 297 311 84
f 308 311 297
f 87 309 322
f 309 27 318
f 322 318 89
f 309 318 322
f 84 320 298
f 320 89 317
f 298 317 26
f 320 317 298
f 87 322 311
f 322 89 320
f 311 320 84
f 322 320 311
f 4 292 367
f 292 82 370
f 367 370 100
f 292 370 367
f 82 293 379
f 293 26 377
f 379 377 103
f 293 377 379
f 100 380 368
f 380 103 378
f 368 378 30
f 380 378 368
f 82 379 370
f 379 103 380
f 370 380 100
f 379 380 370
f 26 296 446
f 296 83 448
f 446 448 118
f 296 448 446
f 83 295 436
f 295 9 433
f 436 433 115
f 295 433 436
f 118 450 447
f 450 115 434
f 447 434 33
f 450 434 447
f 83 436 448
f 436 115 450
f 448 450 118
f 436 450 448
f 30 457 372
f 457 120 459
f 372 459 101
f 457 459 372
f 120 458 461
f 458 33 438
f 461 438 116
f 458 438 461
f 101 440 371
f 440 116 437
f 371 437 10
f 440 437 371
f 120 461 459
f 461 116 440
f 459 440 101
f 461 440 459
f 26 446 377
f 446 118 449
f 377 449 103
f 446 449 377
f 118 447 462
f 447 33 458
f 462 458 120
f 447 458 462
f 103 460 378
f 460 120 457
f 378 457 30
f 460 457 378
f 118 462 449
f 462 120 460
f 449 460 103
f 462 460 449
f 5 381 223
f 381 104 384
f 223 384 61
f 381 384 223
f 104 382 396
f 382 31 394
f 396 394 107
f 382 394 396
f 61 395 224
f 395 107 393
f 224 393 19
f 395 393 224
f 104 396 384
f 396 107 395
f 384 395 61
f 396 395 384
f 31 386 427
f 386 105 429
f 427 429 114
f 386 429 427
f 105 385 410
f 385 10 407
f 410 407 110
f 385 407 410
f 114 431 428
f 431 110 408
f 428 408 32
f 431 408 428
f 105 410 429
f 410 110 431
f 429 431 114
f 410 431 429
f 19 416 226
f 416 112 418
f 226 418 62
f 416 418 226
f 112 417 420
f 417 32 404
f 420 404 109
f 417 404 420
f 62 406 225
f 406 109 403
f 225 403 6
f 406 403 225
f 112 420 418
f 420 109 406
f 418 406 62
f 420 406 418
f 31 427 394
f 427 114 430
f 394 430 107
f 427 430 394
f 114 428 432
f 428 32 417
f 432 417 112
f 428 417 432
f 107 419 393
f 419 112 416
f 393 416 19
f 419 416 393
f 114 432 430
f 432 112 419
f 430 419 107
f 432 419 430
f 3 171 547
f 171 47 549
f 547 549 142
f 171 549 547
f 47 172 555
f 172 15 553
f 555 553 144
f 172 553 555
f 142 556 548
f 556 144 554
f 548 554 39
f 556 554 548
f 47 555 549
f 555 144 556
f 549 556 142
f 555 556 549
f 15 175 568
f 175 48 570
f 568 570 148
f 175 570 568
f 48 174 563
f 174 5 561
f 563 561 146
f 174 561 563
f 148 572 569
f 572 146 562
f 569 562 40
f 572 562 569
f 48 563 570
f 563 146 572
f 570 572 148
f 563 572 570
f 39 577 552
f 577 150 579
f 552 579 143
f 577 579 552
f 150 578 581
f 578 40 566
f 581 566 147
f 578 566 581
f 143 567 551
f 567 147 565
f 551 565 12
f 567 565 551
f 150 581 579
f 581 147 567
f 579 567 143
f 581 567 579
f 15 568 553
f 568 148 571
f 553 571 144
f 568 571 553
f 148 569 582
f 569 40 578
f 582 578 150
f 569 578 582
f 144 580 554
f 580 150 577
f 554 577 39
f 580 577 554
f 148 582 571
f 582 150 580
f 571 580 144
f 582 580 571
f 7 230 481
f 230 64 483
f 481 483 127
f 230 483 481
f 64 231 490
f 231 20 488
f 490 488 129
f 231 488 490
f 127 492 482
f 492 129 489
f 482 489 36
f 492 489 482
f 64 490 483
f 490 129 492
f 483 492 127
f 490 492 483
f 20 228 477
f 228 63 479
f 477 479 126
f 228 479 477
f 63 227 474
f 227 3 472
f 474 472 124
f 227 472 474
f 126 480 478
f 480 124 473
f 478 473 35
f 480 473 478
f 63 474 479
f 474 124 480
f 479 480 126
f 474 480 479
f 36 498 486
f 498 131 501
f 486 501 128
f 498 501 486
f 131 497 499
f 497 35 476
f 499 476 125
f 497 476 499
f 128 487 485
f 487 125 475
f 485 475 11
f 487 475 485
f 131 499 501
f 499 125 487
f 501 487 128
f 499 487 501
f 20 477 488
f 477 126 491
f 488 491 129
f 477 491 488
f 126 478 500
f 478 35 497
f 500 497 131
f 478 497 500
f 129 502 489
f 502 131 498
f 489 498 36
f 502 498 489
f 126 500 491
f 500 131 502
f 491 502 129
f 500 502 491
f 9 305 327
f 305 86 330
f 327 330 91
f 305 330 327
f 86 306 349
f 306 27 347
f 349 347 95
f 306 347 349
f 91 351 328
f 351 95 348
f 328 348 28
f 351 348 328
f 86 349 330
f 349 95 351
f 330 351 91
f 349 351 330
f 27 302 314
f 302 85 316
f 314 316 88
f 302 316 314
f 85 301 304
f 301 7 279
f 304 279 77
f 301 279 304
f 88 315 313
f 315 77 280
f 313 280 24
f 315 280 313
f 85 304 316
f 304 77 315
f 316 315 88
f 304 315 316
f 28 337 324
f 337 93 340
f 324 340 90
f 337 340 324
f 93 336 338
f 336 24 282
f 338 282 78
f 336 282 338
f 90 326 323
f 326 78 281
f 323 281 8
f 326 281 323
f 93 338 340
f 338 78 326
f 340 326 90
f 338 326 340
f 27 314 347
f 314 88 350
f 347 350 95
f 314 350 347
f 88 313 339
f 313 24 336
f 339 336 93
f 313 336 339
f 95 352 348
f 352 93 337
f 348 337 28
f 352 337 348
f 88 339 350
f 339 93 352
f 350 352 95
f 339 352 350
f 10 437 357
f 437 116 439
f 357 439 97
f 437 439 357
f 116 438 455
f 438 33 452
f 455 452 119
f 438 452 455
f 97 453 358
f 453 119 451
f 358 451 29
f 453 451 358
f 116 455 439
f 455 119 453
f 439 453 97
f 455 453 439
f 33 434 442
f 434 115 445
f 442 445 117
f 434 445 442
f 115 433 435
f 433 9 286
f 435 286 80
f 433 286 435
f 117 443 441
f 443 80 287
f 441 287 25
f 443 287 441
f 115 435 445
f 435 80 443
f 445 443 117
f 435 443 445
f 29 364 354
f 364 99 366
f 354 366 96
f 364 366 354
f 99 363 365
f 363 25 284
f 365 284 79
f 363 284 365
f 96 356 353
f 356 79 283
f 353 283 2
f 356 283 353
f 99 365 366
f 365 79 356
f 366 356 96
f 365 356 366
f 33 442 452
f 442 117 456
f 452 456 119
f 442 456 452
f 117 441 444
f 441 25 363
f 444 363 99
f 441 363 444
f 119 454 451
f 454 99 364
f 451 364 29
f 454 364 451
f 117 444 456
f 444 99 454
f 456 454 119
f 444 454 456

