# https://github.com/mikedh/trimesh
v 0.34000000 0.00000000 0.78000000
v 0.31719720 0.00695350 0.76979433
v 0.29598709 0.01361061 0.75644184
v 0.27676478 0.01984735 0.74019128
v 0.25988835 0.02554751 0.72134536
v 0.24567217 0.03060493 0.70025513
v 0.23438106 0.03492540 0.67731349
v 0.22622536 0.03842842 0.65294777
v 0.22135698 0.04104874 0.62761188
v 0.21986662 0.04273756 0.60177777
v 0.22178205 0.04346342 0.57592667
v 0.22706757 0.04321279 0.55054016
v 0.25023113 0.03990371 0.48435856
v 0.26190053 0.03773221 0.46130245
v 0.27646478 0.03465211 0.44006874
v 0.29365259 0.03072080 0.42105299
v 0.31314378 0.02601150 0.40460943
v 0.33457526 0.02061194 0.39104436
v 0.35754780 0.01462270 0.38061047
v 0.38163348 0.00815535 0.37350214
v 0.40638361 0.00133037 0.36985177
v 0.43133716 -0.00572511 0.36972737
v 0.45602927 -0.01287966 0.37313125
v 0.48000000 -0.02000000 0.38000000
v 0.31981537 0.01314961 0.77040088
v 0.30117467 0.02588743 0.75764365
v 0.28442513 0.03797616 0.74196596
v 0.26987876 0.04919063 0.72365984
v 0.25780655 0.05932192 0.70306632
v 0.24843337 0.06818131 0.68056900
v 0.24193382 0.07560376 0.65658697
v 0.23842898 0.08145101 0.63156697
v 0.23798415 0.08561414 0.60597507
v 0.24060759 0.08801559 0.58028801
v 0.24625046 0.08861064 0.55498428
v 0.26941402 0.08530156 0.48880268
v 0.28072607 0.08228438 0.46566378
v 0.29458230 0.07752869 0.44426605
v 0.31072459 0.07112307 0.42500808
v 0.32885224 0.06318684 0.40824862
v 0.34862756 0.05386785 0.39429987
v 0.36968218 0.04333968 0.38342166
v 0.39162389 0.03179847 0.37581663
v 0.41404395 0.01945919 0.37162645
v 0.43652473 0.00655170 0.37092918
v 0.45864745 -0.00668354 0.37373780
v 0.32384889 0.01844392 0.77154790
v 0.30916656 0.03637742 0.75991632
v 0.29622653 0.05346643 0.74532194
v 0.28526984 0.06939262 0.72803662
v 0.27650059 0.08385931 0.70838236
v 0.27008213 0.09659701 0.68672528
v 0.26613404 0.10736844 0.66346881
v 0.26472985 0.11597296 0.63904617
v 0.26589573 0.12225028 0.61391232
v 0.26960995 0.12608346 0.58853544
v 0.27580333 0.12740109 0.56338826
v 0.29896688 0.12409201 0.49720666
v 0.30972843 0.12035224 0.47391121
v 0.32249389 0.11416483 0.45220329
v 0.33702546 0.10564502 0.43248729
v 0.35305246 0.09495153 0.41513047
v 0.37027633 0.08228355 0.40045615
v 0.38837622 0.06787707 0.38873770
v 0.40701496 0.05200046 0.38019341
v 0.42584536 0.03494946 0.37498243
v 0.44451663 0.01704170 0.37320185
v 0.46268097 -0.00138923 0.37488482
v 0.32902287 0.02247562 0.77315721
v 0.31941815 0.04436572 0.76310496
v 0.31136476 0.06526252 0.75003051
v 0.30501271 0.08477676 0.73417742
v 0.30048032 0.10254492 0.71584099
v 0.29785204 0.11823602 0.69536280
v 0.29717682 0.13155776 0.67312432
v 0.29846723 0.14226198 0.64953980
v 0.30169924 0.15014928 0.62504860
v 0.30681265 0.15507274 0.60010692
v 0.31371220 0.15694064 0.57517939
v 0.33687576 0.15363156 0.50899779
v 0.34693113 0.14934153 0.48548269
v 0.35829740 0.14206383 0.46333957
v 0.37076284 0.13193403 0.44298092
v 0.38409524 0.11914084 0.42478597
v 0.39804623 0.10392256 0.40909367
v 0.41235595 0.08656269 0.39619633
v 0.42675783 0.06738460 0.38633420
v 0.44098359 0.04674555 0.37969101
v 0.45476822 0.02503000 0.37639049
v 0.46785495 0.00264247 0.37649413
v 0.33498473 0.02496996 0.77511914
v 0.33123081 0.04930793 0.76699228
v 0.32880816 0.07256054 0.75577080
v 0.32776192 0.09429464 0.74166375
v 0.32811157 0.11410537 0.72493390
v 0.32985061 0.13162368 0.70589291
v 0.33294663 0.14652324 0.68489548
v 0.33734197 0.15852651 0.66233274
v 0.34295474 0.16740988 0.63862499
v 0.34968039 0.17300788 0.61421387
v 0.35739364 0.17521622 0.58955411
v 0.38055720 0.17190714 0.52337252
v 0.38979887 0.16727667 0.49958964
v 0.39955290 0.15932443 0.47691597
v 0.40963758 0.14819856 0.45577385
v 0.41986505 0.13410632 0.43655713
v 0.43004480 0.11731022 0.41962379
v 0.43998720 0.09812314 0.40528924
v 0.44950704 0.07690248 0.39382053
v 0.45842699 0.05404357 0.38543130
v 0.46658087 0.02997221 0.38027780
v 0.47381681 0.00513681 0.37845606
v 0.34132816 0.02575695 0.77729999
v 0.34379951 0.05086726 0.77131335
v 0.34736800 0.07486315 0.76215161
v 0.35196716 0.09729765 0.74998543
v 0.35751131 0.11775282 0.73504144
v 0.36389719 0.13584764 0.71759802
v 0.37100583 0.15124502 0.69798011
v 0.37870482 0.16365815 0.67655315
v 0.38685073 0.17285580 0.65371629
v 0.39529182 0.17866662 0.62989493
v 0.40387085 0.18098237 0.60553283
v 0.42703441 0.17767329 0.53935123
v 0.43541030 0.17293541 0.51527071
v 0.44344888 0.16477034 0.49200727
v 0.45100043 0.15333021 0.46999427
v 0.45792425 0.13882810 0.44964176
v 0.46409139 0.12153418 0.43132889
v 0.46938694 0.10177059 0.41539678
v 0.47371228 0.07990548 0.40214222
v 0.47698682 0.05634618 0.39181211
v 0.47914957 0.03153153 0.38459888
v 0.48016024 0.00592380 0.38063691
v 0.34762088 0.02478297 0.77955114
v 0.35626772 0.04893743 0.77577372
v 0.36577945 0.07201343 0.76873811
v 0.37597887 0.09358111 0.75857536
v 0.38667600 0.11323871 0.74547479
v 0.39767157 0.13062004 0.72968043
v 0.40876075 0.14540132 0.71148651
v 0.41973697 0.15730720 0.69123195
v 0.43039576 0.16611590 0.66929405
v 0.44053857 0.17166332 0.64608146
v 0.44997647 0.17384614 0.62202661
v 0.47314003 0.17053706 0.55584501
v 0.48065705 0.16593211 0.53145723
v 0.48699392 0.15803044 0.50758502
v 0.49203258 0.14697925 0.48467307
v 0.49567917 0.13298440 0.46314817
v 0.49786577 0.11630658 0.44341130
v 0.49855163 0.09725648 0.42583013
v 0.49772400 0.07618895 0.41073214
v 0.49539827 0.05349645 0.39839860
v 0.49161778 0.02960170 0.38905925
v 0.48645296 0.00494981 0.38288806
v 0.35343404 0.02211438 0.78171918
v 0.36778576 0.04364996 0.78006941
v 0.38278780 0.06420558 0.77508142
v 0.39816071 0.08339832 0.76684814
v 0.41361811 0.10087067 0.75552293
v 0.42887208 0.11629714 0.74131675
v 0.44363844 0.12939036 0.72449426
v 0.45764215 0.13990645 0.70536880
v 0.47062232 0.14764949 0.68429666
v 0.48233717 0.15247526 0.66167038
v 0.49256847 0.15429386 0.63791142
v 0.51573203 0.15098478 0.57172982
v 0.52245565 0.14674405 0.54704615
v 0.52722048 0.13956404 0.52258764
v 0.52993776 0.12957850 0.49880992
v 0.53055686 0.11697345 0.47615591
v 0.52906627 0.10198368 0.45504763
v 0.52549374 0.08488843 0.43587827
v 0.51990583 0.06600616 0.41900493
v 0.51240662 0.04568860 0.40474192
v 0.50313582 0.02431423 0.39335494
v 0.49226612 0.00228122 0.38505610
v 0.35837149 0.01793304 0.78365635
v 0.37756868 0.03536518 0.78390767
v 0.39723396 0.05197169 0.78074927
v 0.41700100 0.06744321 0.77424000
v 0.43650159 0.08149155 0.76450110
v 0.45537245 0.09385501 0.75171399
v 0.47326206 0.10430328 0.73611688
v 0.48983718 0.11264174 0.71800030
v 0.50478904 0.11871504 0.69770174
v 0.51783911 0.12241006 0.67559931
v 0.52874430 0.12365797 0.65210475
v 0.55190786 0.12034889 0.58592316
v 0.55795759 0.11667885 0.56097508
v 0.56138720 0.11062959 0.53599271
v 0.56213279 0.10231379 0.51144141
v 0.56018048 0.09188637 0.48777853
v 0.55556664 0.07954155 0.46544486
v 0.54837722 0.06550932 0.44485644
v 0.53874613 0.05005105 0.42639679
v 0.52685279 0.03345471 0.41040977
v 0.51291875 0.01602946 0.39719320
v 0.49720357 -0.00190011 0.38699327
v 0.36209675 0.01252392 0.78523065
v 0.38494981 0.02464769 0.78702694
v 0.40813346 0.03614548 0.78535541
v 0.43121583 0.04680310 0.78024719
v 0.45376695 0.05642202 0.77179745
v 0.47536673 0.06482306 0.76016359
v 0.49561280 0.07184972 0.74556231
v 0.51412803 0.07737111 0.72826563
v 0.53056750 0.08128438 0.70859573
v 0.54462498 0.08351663 0.68691904
v 0.55603861 0.08402627 0.66363935
v 0.57920217 0.08071719 0.59745775
v 0.58474346 0.07778542 0.57229481
v 0.58716566 0.07319893 0.54688671
v 0.58642364 0.06704317 0.52170674
v 0.58253122 0.05943280 0.49722397
v 0.57556092 0.05050960 0.47389446
v 0.56564258 0.04043979 0.45215279
v 0.55296096 0.02941094 0.43240398
v 0.53775228 0.01762850 0.41501590
v 0.52029987 0.00531197 0.40031247
v 0.50092883 -0.00730924 0.38856757
v 0.36435595 0.00625562 0.78633478
v 0.38942612 0.01222787 0.78921464
v 0.41474350 0.01780548 0.78858592
v 0.43983647 0.02288457 0.78446034
v 0.46423760 0.02737052 0.77691475
v 0.48749234 0.03117976 0.76608972
v 0.50916750 0.03424133 0.75218688
v 0.52885931 0.03649821 0.73546522
v 0.54620095 0.03790834 0.71623624
v 0.56086938 0.03844547 0.69485814
v 0.57259136 0.03809959 0.67172915
v 0.59575492 0.03479051 0.60554755
v 0.60098786 0.03271426 0.58023391
v 0.60279911 0.02982289 0.55452722
v 0.60115492 0.02617026 0.52890634
v 0.59608592 0.02182441 0.50384853
v 0.58768653 0.01686630 0.47982059
v 0.57611323 0.01138829 0.45727010
v 0.56158159 0.00549241 0.43661713
v 0.54436233 -0.00071149 0.41824642
v 0.52477619 -0.00710786 0.40250017
v 0.50318803 -0.01357753 0.38967171
v 0.36499513 -0.00044467 0.78689351
v 0.39069257 -0.00104790 0.79032168
v 0.41661363 -0.00179846 0.79022066
v 0.44227544 -0.00268236 0.78659233
v 0.46719997 -0.00368314 0.77950427
v 0.49092294 -0.00478216 0.76908852
v 0.51300242 -0.00595894 0.75553911
v 0.53302711 -0.00719156 0.73910844
v 0.55062400 -0.00845706 0.72010258
v 0.56546528 -0.00973187 0.69887557
v 0.57727450 -0.01099224 0.67582284
v 0.60043806 -0.01430132 0.60964124
v 0.60558376 -0.01546309 0.58425134
v 0.60722216 -0.01654251 0.55839355
v 0.60532272 -0.01751950 0.53254955
v 0.59992084 -0.01837585 0.50720077
v 0.59111713 -0.01909561 0.48281939
v 0.57907561 -0.01966537 0.45985961
v 0.56402056 -0.02007452 0.43874912
v 0.54623245 -0.02031543 0.41988116
v 0.52604263 -0.02038362 0.40360721
v 0.50382721 -0.02027782 0.39023043
v 0.36397073 -0.00712034 0.78686875
v 0.38866284 -0.01427489 0.79027263
v 0.41361639 -0.02133037 0.79014823
v 0.43836652 -0.02815535 0.78649786
v 0.46245220 -0.03462270 0.77938953
v 0.48542474 -0.04061194 0.76895564
v 0.50685622 -0.04601150 0.75539057
v 0.52634741 -0.05072080 0.73894701
v 0.54353522 -0.05465211 0.71993126
v 0.55809947 -0.05773221 0.69869755
v 0.56976887 -0.05990371 0.67564144
v 0.59293243 -0.06321279 0.60945984
v 0.59821795 -0.06346342 0.58407333
v 0.60013338 -0.06273756 0.55822223
v 0.59864302 -0.06104874 0.53238812
v 0.59377464 -0.05842842 0.50705223
v 0.58561894 -0.05492540 0.48268651
v 0.57432783 -0.05060493 0.45974487
v 0.56011165 -0.04554751 0.43865464
v 0.54323522 -0.03984735 0.41980872
v 0.52401291 -0.03361061 0.40355816
v 0.50280280 -0.02695350 0.39020567
v 0.36135255 -0.01331646 0.78626220
v 0.38347527 -0.02655170 0.78907082
v 0.40595605 -0.03945919 0.78837355
v 0.42837611 -0.05179847 0.78418337
v 0.45031782 -0.06333968 0.77657834
v 0.47137244 -0.07386785 0.76570013
v 0.49114776 -0.08318684 0.75175138
v 0.50927541 -0.09112307 0.73499192
v 0.52541770 -0.09752869 0.71573395
v 0.53927393 -0.10228438 0.69433622
v 0.55058598 -0.10530156 0.67119732
v 0.57374954 -0.10861064 0.60501572
v 0.57939241 -0.10801559 0.57971199
v 0.58201585 -0.10561414 0.55402493
v 0.58157102 -0.10145101 0.52843303
v 0.57806618 -0.09560376 0.50341303
v 0.57156663 -0.08818131 0.47943100
v 0.56219345 -0.07932192 0.45693368
v 0.55012124 -0.06919063 0.43634016
v 0.53557487 -0.05797616 0.41803404
v 0.51882533 -0.04588743 0.40235635
v 0.50018463 -0.03314961 0.38959912
v 0.35731903 -0.01861077 0.78511518
v 0.37548337 -0.03704170 0.78679815
v 0.39415464 -0.05494946 0.78501757
v 0.41298504 -0.07200046 0.77980659
v 0.43162378 -0.08787707 0.77126230
v 0.44972367 -0.10228355 0.75954385
v 0.46694754 -0.11495153 0.74486953
v 0.48297454 -0.12564502 0.72751271
v 0.49750611 -0.13416483 0.70779671
v 0.51027157 -0.14035224 0.68608879
v 0.52103312 -0.14409201 0.66279334
v 0.54419667 -0.14740109 0.59661174
v 0.55039005 -0.14608346 0.57146456
v 0.55410427 -0.14225028 0.54608768
v 0.55527015 -0.13597296 0.52095383
v 0.55386596 -0.12736844 0.49653119
v 0.54991787 -0.11659701 0.47327472
v 0.54349941 -0.10385931 0.45161764
v 0.53473016 -0.08939262 0.43196338
v 0.52377347 -0.07346643 0.41467806
v 0.51083344 -0.05637742 0.40008368
v 0.49615111 -0.03844392 0.38845210
v 0.35214505 -0.02264247 0.78350587
v 0.36523178 -0.04503000 0.78360951
v 0.37901641 -0.06674555 0.78030899
v 0.39324217 -0.08738460 0.77366580
v 0.40764405 -0.10656269 0.76380367
v 0.42195377 -0.12392256 0.75090633
v 0.43590476 -0.13914084 0.73521403
v 0.44923716 -0.15193403 0.71701908
v 0.46170260 -0.16206383 0.69666043
v 0.47306887 -0.16934153 0.67451731
v 0.48312424 -0.17363156 0.65100221
v 0.50628780 -0.17694064 0.58482061
v 0.51318735 -0.17507274 0.55989308
v 0.51830076 -0.17014928 0.53495140
v 0.52153277 -0.16226198 0.51046020
v 0.52282318 -0.15155776 0.48687568
v 0.52214796 -0.13823602 0.46463720
v 0.51951968 -0.12254492 0.44415901
v 0.51498729 -0.10477676 0.42582258
v 0.50863524 -0.08526252 0.40996949
v 0.50058185 -0.06436572 0.39689504
v 0.49097713 -0.04247562 0.38684279
v 0.34618319 -0.02513681 0.78154394
v 0.35341913 -0.04997221 0.77972220
v 0.36157301 -0.07404357 0.77456870
v 0.37049296 -0.09690248 0.76617947
v 0.38001280 -0.11812314 0.75471076
v 0.38995520 -0.13731022 0.74037621
v 0.40013495 -0.15410632 0.72344287
v 0.41036242 -0.16819856 0.70422615
v 0.42044710 -0.17932443 0.68308403
v 0.43020113 -0.18727667 0.66041036
v 0.43944280 -0.19190714 0.63662748
v 0.46260636 -0.19521622 0.57044589
v 0.47031961 -0.19300788 0.54578613
v 0.47704526 -0.18740988 0.52137501
v 0.48265803 -0.17852651 0.49766726
v 0.48705337 -0.16652324 0.47510452
v 0.49014939 -0.15162368 0.45410709
v 0.49188843 -0.13410537 0.43506610
v 0.49223808 -0.11429464 0.41833625
v 0.49119184 -0.09256054 0.40422920
v 0.48876919 -0.06930793 0.39300772
v 0.48501527 -0.04496996 0.38488086
v 0.33983976 -0.02592380 0.77936309
v 0.34085043 -0.05153153 0.77540112
v 0.34301318 -0.07634618 0.76818789
v 0.34628772 -0.09990548 0.75785778
v 0.35061306 -0.12177059 0.74460322
v 0.35590861 -0.14153418 0.72867111
v 0.36207575 -0.15882810 0.71035824
v 0.36899957 -0.17333021 0.69000573
v 0.37655112 -0.18477034 0.66799273
v 0.38458970 -0.19293541 0.64472929
v 0.39296559 -0.19767329 0.62064877
v 0.41612915 -0.20098237 0.55446717
v 0.42470818 -0.19866662 0.53010507
v 0.43314927 -0.19285580 0.50628371
v 0.44129518 -0.18365815 0.48344685
v 0.44899417 -0.17124502 0.46201989
v 0.45610281 -0.15584764 0.44240198
v 0.46248869 -0.13775282 0.42495856
v 0.46803284 -0.11729765 0.41001457
v 0.47263200 -0.09486315 0.39784839
v 0.47620049 -0.07086726 0.38868665
v 0.47867184 -0.04575695 0.38270001
v 0.33354704 -0.02494981 0.77711194
v 0.32838222 -0.04960170 0.77094075
v 0.32460173 -0.07349645 0.76160140
v 0.32227600 -0.09618895 0.74926786
v 0.32144837 -0.11725648 0.73416987
v 0.32213423 -0.13630658 0.71658870
v 0.32432083 -0.15298440 0.69685183
v 0.32796742 -0.16697925 0.67532693
v 0.33300608 -0.17803044 0.65241498
v 0.33934295 -0.18593211 0.62854277
v 0.34685997 -0.19053706 0.60415499
v 0.37002353 -0.19384614 0.53797339
v 0.37946143 -0.19166332 0.51391854
v 0.38960424 -0.18611590 0.49070595
v 0.40026303 -0.17730720 0.46876805
v 0.41123925 -0.16540132 0.44851349
v 0.42232843 -0.15062004 0.43031957
v 0.43332400 -0.13323871 0.41452521
v 0.44402113 -0.11358111 0.40142464
v 0.45422055 -0.09201343 0.39126189
v 0.46373228 -0.06893743 0.38422628
v 0.47237912 -0.04478297 0.38044886
v 0.32773388 -0.02228122 0.77494390
v 0.31686418 -0.04431423 0.76664506
v 0.30759338 -0.06568860 0.75525808
v 0.30009417 -0.08600616 0.74099507
v 0.29450626 -0.10488843 0.72412173
v 0.29093373 -0.12198368 0.70495237
v 0.28944314 -0.13697345 0.68384409
v 0.29006224 -0.14957850 0.66119008
v 0.29277952 -0.15956404 0.63741236
v 0.29754435 -0.16674405 0.61295385
v 0.30426797 -0.17098478 0.58827018
v 0.32743153 -0.17429386 0.52208858
v 0.33766283 -0.17247526 0.49832962
v 0.34937768 -0.16764949 0.47570334
v 0.36235785 -0.15990645 0.45463120
v 0.37636156 -0.14939036 0.43550574
v 0.39112792 -0.13629714 0.41868325
v 0.40638189 -0.12087067 0.40447707
v 0.42183929 -0.10339832 0.39315186
v 0.43721220 -0.08420558 0.38491858
v 0.45221424 -0.06364996 0.37993059
v 0.46656596 -0.04211438 0.37828082
v 0.32279643 -0.01809989 0.77300673
v 0.30708125 -0.03602946 0.76280680
v 0.29314721 -0.05345471 0.74959023
v 0.28125387 -0.07005105 0.73360321
v 0.27162278 -0.08550932 0.71514356
v 0.26443336 -0.09954155 0.69455514
v 0.25981952 -0.11188637 0.67222147
v 0.25786721 -0.12231379 0.64855859
v 0.25861280 -0.13062959 0.62400729
v 0.26204241 -0.13667885 0.59902492
v 0.26809214 -0.14034889 0.57407684
v 0.29125570 -0.14365797 0.50789525
v 0.30216089 -0.14241006 0.48440069
v 0.31521096 -0.13871504 0.46229826
v 0.33016282 -0.13264174 0.44199970
v 0.34673794 -0.12430328 0.42388312
v 0.36462755 -0.11385501 0.40828601
v 0.38349841 -0.10149155 0.39549890
v 0.40299900 -0.08744321 0.38576000
v 0.42276604 -0.07197169 0.37925073
v 0.44243132 -0.05536518 0.37609233
v 0.46162851 -0.03793304 0.37634365
v 0.31907117 -0.01269076 0.77143243
v 0.29970013 -0.02531197 0.75968753
v 0.28224772 -0.03762850 0.74498410
v 0.26703904 -0.04941094 0.72759602
v 0.25435742 -0.06043979 0.70784721
v 0.24443908 -0.07050960 0.68610554
v 0.23746878 -0.07943280 0.66277603
v 0.23357636 -0.08704317 0.63829326
v 0.23283434 -0.09319893 0.61311329
v 0.23525654 -0.09778542 0.58770519
v 0.24079783 -0.10071719 0.56254225
v 0.26396139 -0.10402627 0.49636065
v 0.27537502 -0.10351663 0.47308096
v 0.28943250 -0.10128438 0.45140427
v 0.30587197 -0.09737111 0.43173437
v 0.32438720 -0.09184972 0.41443769
v 0.34463327 -0.08482306 0.39983641
v 0.36623305 -0.07642202 0.38820255
v 0.38878417 -0.06680310 0.37975281
v 0.41186654 -0.05614548 0.37464459
v 0.43505019 -0.04464769 0.37297306
v 0.45790325 -0.03252392 0.37476935
v 0.31681197 -0.00642247 0.77032829
v 0.29522381 -0.01289214 0.75749983
v 0.27563767 -0.01928851 0.74175358
v 0.25841841 -0.02549241 0.72338287
v 0.24388677 -0.03138829 0.70272990
v 0.23231347 -0.03686630 0.68017941
v 0.22391408 -0.04182441 0.65615147
v 0.21884508 -0.04617026 0.63109366
v 0.21720089 -0.04982289 0.60547278
v 0.21901214 -0.05271426 0.57976609
v 0.22424508 -0.05479051 0.55445245
v 0.24740864 -0.05809959 0.48827085
v 0.25913062 -0.05844547 0.46514186
v 0.27379905 -0.05790834 0.44376376
v 0.29114069 -0.05649821 0.42453478
v 0.31083250 -0.05424133 0.40781312
v 0.33250766 -0.05117976 0.39391028
v 0.35576240 -0.04737052 0.38308525
v 0.38016353 -0.04288457 0.37553966
v 0.40525650 -0.03780548 0.37141408
v 0.43057388 -0.03222787 0.37078536
v 0.45564405 -0.02625562 0.37366522
v 0.31617279 0.00027782 0.76976957
v 0.29395737 0.00038362 0.75639279
v 0.27376755 0.00031543 0.74011884
v 0.25597944 0.00007452 0.72125088
v 0.24092439 -0.00033463 0.70014039
v 0.22888287 -0.00090439 0.67718061
v 0.22007916 -0.00162415 0.65279923
v 0.21467728 -0.00248050 0.62745045
v 0.21277784 -0.00345749 0.60160645
v 0.21441624 -0.00453691 0.57574866
v 0.21956194 -0.00569868 0.55035876
v 0.24272550 -0.00900776 0.48417716
v 0.25453472 -0.01026813 0.46112443
v 0.26937600 -0.01154294 0.43989742
v 0.28697289 -0.01280844 0.42089156
v 0.30699758 -0.01404106 0.40446089
v 0.32907706 -0.01521784 0.39091148
v 0.35280003 -0.01631686 0.38049573
v 0.37772456 -0.01731764 0.37340767
v 0.40338637 -0.01820154 0.36977934
v 0.42930743 -0.01895210 0.36967832
v 0.45500487 -0.01955533 0.37310649
f 2 1 25
f 2 25 3
f 3 25 26
f 3 26 4
f 4 26 27
f 4 27 5
f 5 27 28
f 5 28 6
f 6 28 29
f 6 29 7
f 7 29 30
f 7 30 8
f 8 30 31
f 8 31 9
f 9 31 32
f 9 32 10
f 10 32 33
f 10 33 11
f 11 33 34
f 11 34 12
f 12 34 35
f 12 35 13
f 13 35 36
f 13 36 14
f 14 36 37
f 14 37 15
f 15 37 38
f 15 38 16
f 16 38 39
f 16 39 17
f 17 39 40
f 17 40 18
f 18 40 41
f 18 41 19
f 19 41 42
f 19 42 20
f 20 42 43
f 20 43 21
f 21 43 44
f 21 44 22
f 22 44 45
f 22 45 23
f 23 45 46
f 23 46 24
f 25 1 47
f 25 47 26
f 26 47 48
f 26 48 27
f 27 48 49
f 27 49 28
f 28 49 50
f 28 50 29
f 29 50 51
f 29 51 30
f 30 51 52
f 30 52 31
f 31 52 53
f 31 53 32
f 32 53 54
f 32 54 33
f 33 54 55
f 33 55 34
f 34 55 56
f 34 56 35
f 35 56 57
f 35 57 36
f 36 57 58
f 36 58 37
f 37 58 59
f 37 59 38
f 38 59 60
f 38 60 39
f 39 60 61
f 39 61 40
f 40 61 62
f 40 62 41
f 41 62 63
f 41 63 42
f 42 63 64
f 42 64 43
f 43 64 65
f 43 65 44
f 44 65 66
f 44 66 45
f 45 66 67
f 45 67 46
f 46 67 68
f 46 68 24
f 47 1 69
f 47 69 48
f 48 69 70
f 48 70 49
f 49 70 71
f 49 71 50
f 50 71 72
f 50 72 51
f 51 72 73
f 51 73 52
f 52 73 74
f 52 74 53
f 53 74 75
f 53 75 54
f 54 75 76
f 54 76 55
f 55 76 77
f 55 77 56
f 56 77 78
f 56 78 57
f 57 78 79
f 57 79 58
f 58 79 80
f 58 80 59
f 59 80 81
f 59 81 60
f 60 81 82
f 60 82 61
f 61 82 83
f 61 83 62
f 62 83 84
f 62 84 63
f 63 84 85
f 63 85 64
f 64 85 86
f 64 86 65
f 65 86 87
f 65 87 66
f 66 87 88
f 66 88 67
f 67 88 89
f 67 89 68
f 68 89 90
f 68 90 24
f 69 1 91
f 69 91 70
f 70 91 92
f 70 92 71
f 71 92 93
f 71 93 72
f 72 93 94
f 72 94 73
f 73 94 95
f 73 95 74
f 74 95 96
f 74 96 75
f 75 96 97
f 75 97 76
f 76 97 98
f 76 98 77
f 77 98 99
f 77 99 78
f 78 99 100
f 78 100 79
f 79 100 101
f 79 101 80
f 80 101 102
f 80 102 81
f 81 102 103
f 81 103 82
f 82 103 104
f 82 104 83
f 83 104 105
f 83 105 84
f 84 105 106
f 84 106 85
f 85 106 107
f 85 107 86
f 86 107 108
f 86 108 87
f 87 108 109
f 87 109 88
f 88 109 110
f 88 110 89
f 89 110 111
f 89 111 90
f 90 111 112
f 90 112 24
f 91 1 113
f 91 113 92
f 92 113 114
f 92 114 93
f 93 114 115
f 93 115 94
f 94 115 116
f 94 116 95
f 95 116 117
f 95 117 96
f 96 117 118
f 96 118 97
f 97 118 119
f 97 119 98
f 98 119 120
f 98 120 99
f 99 120 121
f 99 121 100
f 100 121 122
f 100 122 101
f 101 122 123
f 101 123 102
f 102 123 124
f 102 124 103
f 103 124 125
f 103 125 104
f 104 125 126
f 104 126 105
f 105 126 127
f 105 127 106
f 106 127 128
f 106 128 107
f 107 128 129
f 107 129 108
f 108 129 130
f 108 130 109
f 109 130 131
f 109 131 110
f 110 131 132
f 110 132 111
f 111 132 133
f 111 133 112
f 112 133 134
f 112 134 24
f 113 1 135
f 113 135 114
f 114 135 136
f 114 136 115
f 115 136 137
f 115 137 116
f 116 137 138
f 116 138 117
f 117 138 139
f 117 139 118
f 118 139 140
f 118 140 119
f 119 140 141
f 119 141 120
f 120 141 142
f 120 142 121
f 121 142 143
f 121 143 122
f 122 143 144
f 122 144 123
f 123 144 145
f 123 145 124
f 124 145 146
f 124 146 125
f 125 146 147
f 125 147 126
f 126 147 148
f 126 148 127
f 127 148 149
f 127 149 128
f 128 149 150
f 128 150 129
f 129 150 151
f 129 151 130
f 130 151 152
f 130 152 131
f 131 152 153
f 131 153 132
f 132 153 154
f 132 154 133
f 133 154 155
f 133 155 134
f 134 155 156
f 134 156 24
f 135 1 157
f 135 157 136
f 136 157 158
f 136 158 137
f 137 158 159
f 137 159 138
f 138 159 160
f 138 160 139
f 139 160 161
f 139 161 140
f 140 161 162
f 140 162 141
f 141 162 163
f 141 163 142
f 142 163 164
f 142 164 143
f 143 164 165
f 143 165 144
f 144 165 166
f 144 166 145
f 145 166 167
f 145 167 146
f 146 167 168
f 146 168 147
f 147 168 169
f 147 169 148
f 148 169 170
f 148 170 149
f 149 170 171
f 149 171 150
f 150 171 172
f 150 172 151
f 151 172 173
f 151 173 152
f 152 173 174
f 152 174 153
f 153 174 175
f 153 175 154
f 154 175 176
f 154 176 155
f 155 176 177
f 155 177 156
f 156 177 178
f 156 178 24
f 157 1 179
f 157 179 158
f 158 179 180
f 158 180 159
f 159 180 181
f 159 181 160
f 160 181 182
f 160 182 161
f 161 182 183
f 161 183 162
f 162 183 184
f 162 184 163
f 163 184 185
f 163 185 164
f 164 185 186
f 164 186 165
f 165 186 187
f 165 187 166
f 166 187 188
f 166 188 167
f 167 188 189
f 167 189 168
f 168 189 190
f 168 190 169
f 169 190 191
f 169 191 170
f 170 191 192
f 170 192 171
f 171 192 193
f 171 193 172
f 172 193 194
f 172 194 173
f 173 194 195
f 173 195 174
f 174 195 196
f 174 196 175
f 175 196 197
f 175 197 176
f 176 197 198
f 176 198 177
f 177 198 199
f 177 199 178
f 178 199 200
f 178 200 24
f 179 1 201
f 179 201 180
f 180 201 202
f 180 202 181
f 181 202 203
f 181 203 182
f 182 203 204
f 182 204 183
f 183 204 205
f 183 205 184
f 184 205 206
f 184 206 185
f 185 206 207
f 185 207 186
f 186 207 208
f 186 208 187
f 187 208 209
f 187 209 188
f 188 209 210
f 188 210 189
f 189 210 211
f 189 211 190
f 190 211 212
f 190 212 191
f 191 212 213
f 191 213 192
f 192 213 214
f 192 214 193
f 193 214 215
f 193 215 194
f 194 215 216
f 194 216 195
f 195 216 217
f 195 217 196
f 196 217 218
f 196 218 197
f 197 218 219
f 197 219 198
f 198 219 220
f 198 220 199
f 199 220 221
f 199 221 200
f 200 221 222
f 200 222 24
f 201 1 223
f 201 223 202
f 202 223 224
f 202 224 203
f 203 224 225
f 203 225 204
f 204 225 226
f 204 226 205
f 205 226 227
f 205 227 206
f 206 227 228
f 206 228 207
f 207 228 229
f 207 229 208
f 208 229 230
f 208 230 209
f 209 230 231
f 209 231 210
f 210 231 232
f 210 232 211
f 211 232 233
f 211 233 212
f 212 233 234
f 212 234 213
f 213 234 235
f 213 235 214
f 214 235 236
f 214 236 215
f 215 236 237
f 215 237 216
f 216 237 238
f 216 238 217
f 217 238 239
f 217 239 218
f 218 239 240
f 218 240 219
f 219 240 241
f 219 241 220
f 220 241 242
f 220 242 221
f 221 242 243
f 221 243 222
f 222 243 244
f 222 244 24
f 223 1 245
f 223 245 224
f 224 245 246
f 224 246 225
f 225 246 247
f 225 247 226
f 226 247 248
f 226 248 227
f 227 248 249
f 227 249 228
f 228 249 250
f 228 250 229
f 229 250 251
f 229 251 230
f 230 251 252
f 230 252 231
f 231 252 253
f 231 253 232
f 232 253 254
f 232 254 233
f 233 254 255
f 233 255 234
f 234 255 256
f 234 256 235
f 235 256 257
f 235 257 236
f 236 257 258
f 236 258 237
f 237 258 259
f 237 259 238
f 238 259 260
f 238 260 239
f 239 260 261
f 239 261 240
f 240 261 262
f 240 262 241
f 241 262 263
f 241 263 242
f 242 263 264
f 242 264 243
f 243 264 265
f 243 265 244
f 244 265 266
f 244 266 24
f 245 1 267
f 245 267 246
f 246 267 268
f 246 268 247
f 247 268 269
f 247 269 248
f 248 269 270
f 248 270 249
f 249 270 271
f 249 271 250
f 250 271 272
f 250 272 251
f 251 272 273
f 251 273 252
f 252 273 274
f 252 274 253
f 253 274 275
f 253 275 254
f 254 275 276
f 254 276 255
f 255 276 277
f 255 277 256
f 256 277 278
f 256 278 257
f 257 278 279
f 257 279 258
f 258 279 280
f 258 280 259
f 259 280 281
f 259 281 260
f 260 281 282
f 260 282 261
f 261 282 283
f 261 283 262
f 262 283 284
f 262 284 263
f 263 284 285
f 263 285 264
f 264 285 286
f 264 286 265
f 265 286 287
f 265 287 266
f 266 287 288
f 266 288 24
f 267 1 289
f 267 289 268
f 268 289 290
f 268 290 269
f 269 290 291
f 269 291 270
f 270 291 292
f 270 292 271
f 271 292 293
f 271 293 272
f 272 293 294
f 272 294 273
f 273 294 295
f 273 295 274
f 274 295 296
f 274 296 275
f 275 296 297
f 275 297 276
f 276 297 298
f 276 298 277
f 277 298 299
f 277 299 278
f 278 299 300
f 278 300 279
f 279 300 301
f 279 301 280
f 280 301 302
f 280 302 281
f 281 302 303
f 281 303 282
f 282 303 304
f 282 304 283
f 283 304 305
f 283 305 284
f 284 305 306
f 284 306 285
f 285 306 307
f 285 307 286
f 286 307 308
f 286 308 287
f 287 308 309
f 287 309 288
f 288 309 310
f 288 310 24
f 289 1 311
f 289 311 290
f 290 311 312
f 290 312 291
f 291 312 313
f 291 313 292
f 292 313 314
f 292 314 293
f 293 314 315
f 293 315 294
f 294 315 316
f 294 316 295
f 295 316 317
f 295 317 296
f 296 317 318
f 296 318 297
f 297 318 319
f 297 319 298
f 298 319 320
f 298 320 299
f 299 320 321
f 299 321 300
f 300 321 322
f 300 322 301
f 301 322 323
f 301 323 302
f 302 323 324
f 302 324 303
f 303 324 325
f 303 325 304
f 304 325 326
f 304 326 305
f 305 326 327
f 305 327 306
f 306 327 328
f 306 328 307
f 307 328 329
f 307 329 308
f 308 329 330
f 308 330 309
f 309 330 331
f 309 331 310
f 310 331 332
f 310 332 24
f 311 1 333
f 311 333 312
f 312 333 334
f 312 334 313
f 313 334 335
f 313 335 314
f 314 335 336
f 314 336 315
f 315 336 337
f 315 337 316
f 316 337 338
f 316 338 317
f 317 338 339
f 317 339 318
f 318 339 340
f 318 340 319
f 319 340 341
f 319 341 320
f 320 341 342
f 320 342 321
f 321 342 343
f 321 343 322
f 322 343 344
f 322 344 323
f 323 344 345
f 323 345 324
f 324 345 346
f 324 346 325
f 325 346 347
f 325 347 326
f 326 347 348
f 326 348 327
f 327 348 349
f 327 349 328
f 328 349 350
f 328 350 329
f 329 350 351
f 329 351 330
f 330 351 352
f 330 352 331
f 331 352 353
f 331 353 332
f 332 353 354
f 332 354 24
f 333 1 355
f 333 355 334
f 334 355 356
f 334 356 335
f 335 356 357
f 335 357 336
f 336 357 358
f 336 358 337
f 337 358 359
f 337 359 338
f 338 359 360
f 338 360 339
f 339 360 361
f 339 361 340
f 340 361 362
f 340 362 341
f 341 362 363
f 341 363 342
f 342 363 364
f 342 364 343
f 343 364 365
f 343 365 344
f 344 365 366
f 344 366 345
f 345 366 367
f 345 367 346
f 346 367 368
f 346 368 347
f 347 368 369
f 347 369 348
f 348 369 370
f 348 370 349
f 349 370 371
f 349 371 350
f 350 371 372
f 350 372 351
f 351 372 373
f 351 373 352
f 352 373 374
f 352 374 353
f 353 374 375
f 353 375 354
f 354 375 376
f 354 376 24
f 355 1 377
f 355 377 356
f 356 377 378
f 356 378 357
f 357 378 379
f 357 379 358
f 358 379 380
f 358 380 359
f 359 380 381
f 359 381 360
f 360 381 382
f 360 382 361
f 361 382 383
f 361 383 362
f 362 383 384
f 362 384 363
f 363 384 385
f 363 385 364
f 364 385 386
f 364 386 365
f 365 386 387
f 365 387 366
f 366 387 388
f 366 388 367
f 367 388 389
f 367 389 368
f 368 389 390
f 368 390 369
f 369 390 391
f 369 391 370
f 370 391 392
f 370 392 371
f 371 392 393
f 371 393 372
f 372 393 394
f 372 394 373
f 373 394 395
f 373 395 374
f 374 395 396
f 374 396 375
f 375 396 397
f 375 397 376
f 376 397 398
f 376 398 24
f 377 1 399
f 377 399 378
f 378 399 400
f 378 400 379
f 379 400 401
f 379 401 380
f 380 401 402
f 380 402 381
f 381 402 403
f 381 403 382
f 382 403 404
f 382 404 383
f 383 404 405
f 383 405 384
f 384 405 406
f 384 406 385
f 385 406 407
f 385 407 386
f 386 407 408
f 386 408 387
f 387 408 409
f 387 409 388
f 388 409 410
f 388 410 389
f 389 410 411
f 389 411 390
f 390 411 412
f 390 412 391
f 391 412 413
f 391 413 392
f 392 413 414
f 392 414 393
f 393 414 415
f 393 415 394
f 394 415 416
f 394 416 395
f 395 416 417
f 395 417 396
f 396 417 418
f 396 418 397
f 397 418 419
f 397 419 398
f 398 419 420
f 398 420 24
f 399 1 421
f 399 421 400
f 400 421 422
f 400 422 401
f 401 422 423
f 401 423 402
f 402 423 424
f 402 424 403
f 403 424 425
f 403 425 404
f 404 425 426
f 404 426 405
f 405 426 427
f 405 427 406
f 406 427 428
f 406 428 407
f 407 428 429
f 407 429 408
f 408 429 430
f 408 430 409
f 409 430 431
f 409 431 410
f 410 431 432
f 410 432 411
f 411 432 433
f 411 433 412
f 412 433 434
f 412 434 413
f 413 434 435
f 413 435 414
f 414 435 436
f 414 436 415
f 415 436 437
f 415 437 416
f 416 437 438
f 416 438 417
f 417 438 439
f 417 439 418
f 418 439 440
f 418 440 419
f 419 440 441
f 419 441 420
f 420 441 442
f 420 442 24
f 421 1 443
f 421 443 422
f 422 443 444
f 422 444 423
f 423 444 445
f 423 445 424
f 424 445 446
f 424 446 425
f 425 446 447
f 425 447 426
f 426 447 448
f 426 448 427
f 427 448 449
f 427 449 428
f 428 449 450
f 428 450 429
f 429 450 451
f 429 451 430
f 430 451 452
f 430 452 431
f 431 452 453
f 431 453 432
f 432 453 454
f 432 454 433
f 433 454 455
f 433 455 434
f 434 455 456
f 434 456 435
f 435 456 457
f 435 457 436
f 436 457 458
f 436 458 437
f 437 458 459
f 437 459 438
f 438 459 460
f 438 460 439
f 439 460 461
f 439 461 440
f 440 461 462
f 440 462 441
f 441 462 463
f 441 463 442
f 442 463 464
f 442 464 24
f 443 1 465
f 443 465 444
f 444 465 466
f 444 466 445
f 445 466 467
f 445 467 446
f 446 467 468
f 446 468 447
f 447 468 469
f 447 469 448
f 448 469 470
f 448 470 449
f 449 470 471
f 449 471 450
f 450 471 472
f 450 472 451
f 451 472 473
f 451 473 452
f 452 473 474
f 452 474 453
f 453 474 475
f 453 475 454
f 454 475 476
f 454 476 455
f 455 476 477
f 455 477 456
f 456 477 478
f 456 478 457
f 457 478 479
f 457 479 458
f 458 479 480
f 458 480 459
f 459 480 481
f 459 481 460
f 460 481 482
f 460 482 461
f 461 482 483
f 461 483 462
f 462 483 484
f 462 484 463
f 463 484 485
f 463 485 464
f 464 485 486
f 464 486 24
f 465 1 487
f 465 487 466
f 466 487 488
f 466 488 467
f 467 488 489
f 467 489 468
f 468 489 490
f 468 490 469
f 469 490 491
f 469 491 470
f 470 491 492
f 470 492 471
f 471 492 493
f 471 493 472
f 472 493 494
f 472 494 473
f 473 494 495
f 473 495 474
f 474 495 496
f 474 496 475
f 475 496 497
f 475 497 476
f 476 497 498
f 476 498 477
f 477 498 499
f 477 499 478
f 478 499 500
f 478 500 479
f 479 500 501
f 479 501 480
f 480 501 502
f 480 502 481
f 481 502 503
f 481 503 482
f 482 503 504
f 482 504 483
f 483 504 505
f 483 505 484
f 484 505 506
f 484 506 485
f 485 506 507
f 485 507 486
f 486 507 508
f 486 508 24
f 487 1 509
f 487 509 488
f 488 509 510
f 488 510 489
f 489 510 511
f 489 511 490
f 490 511 512
f 490 512 491
f 491 512 513
f 491 513 492
f 492 513 514
f 492 514 493
f 493 514 515
f 493 515 494
f 494 515 516
f 494 516 495
f 495 516 517
f 495 517 496
f 496 517 518
f 496 518 497
f 497 518 519
f 497 519 498
f 498 519 520
f 498 520 499
f 499 520 521
f 499 521 500
f 500 521 522
f 500 522 501
f 501 522 523
f 501 523 502
f 502 523 524
f 502 524 503
f 503 524 525
f 503 525 504
f 504 525 526
f 504 526 505
f 505 526 527
f 505 527 506
f 506 527 528
f 506 528 507
f 507 528 529
f 507 529 508
f 508 529 530
f 508 530 24
f 509 1 2
f 509 2 510
f 510 2 3
f 510 3 511
f 511 3 4
f 511 4 512
f 512 4 5
f 512 5 513
f 513 5 6
f 513 6 514
f 514 6 7
f 514 7 515
f 515 7 8
f 515 8 516
f 516 8 9
f 516 9 517
f 517 9 10
f 517 10 518
f 518 10 11
f 518 11 519
f 519 11 12
f 519 12 520
f 520 12 13
f 520 13 521
f 521 13 14
f 521 14 522
f 522 14 15
f 522 15 523
f 523 15 16
f 523 16 524
f 524 16 17
f 524 17 525
f 525 17 18
f 525 18 526
f 526 18 19
f 526 19 527
f 527 19 20
f 527 20 528
f 528 20 21
f 528 21 529
f 529 21 22
f 529 22 530
f 530 22 23
f 530 23 24

